<?xml version="1.0" encoding="UTF-8" standalone="no"?>
<!-- Created with Inkscape (http://www.inkscape.org/) -->

<svg
   width="1200.9099"
   height="1194.579"
   viewBox="0 0 317.74074 316.06569"
   version="1.1"
   id="svg4622"
   inkscape:version="1.1.2 (b8e25be833, 2022-02-05)"
   sodipodi:docname="heartlogo_open.svg"
   xmlns:inkscape="http://www.inkscape.org/namespaces/inkscape"
   xmlns:sodipodi="http://sodipodi.sourceforge.net/DTD/sodipodi-0.dtd"
   xmlns="http://www.w3.org/2000/svg"
   xmlns:svg="http://www.w3.org/2000/svg"
   xmlns:rdf="http://www.w3.org/1999/02/22-rdf-syntax-ns#"
   xmlns:cc="http://creativecommons.org/ns#"
   xmlns:dc="http://purl.org/dc/elements/1.1/">
  <title
     id="title4998">heartlogo_open</title>
  <sodipodi:namedview
     id="namedview4624"
     pagecolor="#ffffff"
     bordercolor="#999999"
     borderopacity="1"
     inkscape:pageshadow="0"
     inkscape:pageopacity="0"
     inkscape:pagecheckerboard="0"
     inkscape:document-units="px"
     showgrid="false"
     units="px"
     showborder="false"
     fit-margin-top="0"
     fit-margin-left="0"
     fit-margin-right="0"
     fit-margin-bottom="0"
     inkscape:zoom="0.11322959"
     inkscape:cx="-322.3539"
     inkscape:cy="565.22328"
     inkscape:window-width="1920"
     inkscape:window-height="1009"
     inkscape:window-x="-8"
     inkscape:window-y="-8"
     inkscape:window-maximized="1"
     inkscape:current-layer="layer1" />
  <defs
     id="defs4619">
    <inkscape:path-effect
       effect="skeletal"
       id="path-effect5116"
       is_visible="true"
       lpeversion="1"
       pattern="m 287.6905,-91.022262 c 6.6157,0.03231 12.74481,1.826601 17.34038,5.501912 11.3122,9.046941 8.92176,25.964848 -5.35948,37.93261 l -4.71073,3.94777 c -39.89605,33.432665 -39.89605,33.432665 -39.89605,33.432665 0,0 0,0 -41.01196,-32.514335 l -5.79805,-4.59696 c -14.68097,-11.639101 -17.64279,-28.496209 -6.64126,-37.796351 11.00152,-9.300142 31.67707,-7.417417 46.35804,4.221704 l 5.97731,4.738942 4.88473,-4.093565 c 8.4795,-7.105881 19.18796,-10.821803 28.85707,-10.774392 z"
       copytype="repeated_stretched"
       prop_scale="0.76"
       scale_y_rel="false"
       spacing="-3.2"
       normal_offset="0"
       tang_offset="-1.4"
       prop_units="false"
       vertical_pattern="false"
       hide_knot="false"
       fuse_tolerance="0" />
    <inkscape:path-effect
       effect="skeletal"
       id="path-effect5112"
       is_visible="true"
       lpeversion="1"
       pattern="m 316.99263,-114.49779 c 7.03002,0.0356 13.54297,2.01043 18.42635,6.05562 12.02064,9.957417 9.4805,28.577909 -5.69513,41.750091 l -5.00576,4.345069 c -42.39459,36.797284 -42.39459,36.797284 -42.39459,36.797284 0,0 0,0 -43.58041,-35.786527 l -6.16116,-5.059598 c -15.60038,-12.81044 -18.74769,-31.36403 -7.05718,-41.600119 11.69052,-10.2361 33.66091,-8.1639 49.26129,4.64656 l 6.35164,5.215873 5.19065,-4.505543 c 9.01055,-7.821 20.38964,-11.91089 30.6643,-11.85871 z"
       copytype="repeated_stretched"
       prop_scale="0.76"
       scale_y_rel="false"
       spacing="-3.2"
       normal_offset="0"
       tang_offset="-1.4"
       prop_units="false"
       vertical_pattern="false"
       hide_knot="false"
       fuse_tolerance="0" />
    <inkscape:path-effect
       effect="skeletal"
       id="path-effect5108"
       is_visible="true"
       lpeversion="1"
       pattern="m 346.14348,-137.98053 c 7.44221,0.0389 14.33703,2.19482 19.50672,6.61101 12.72543,10.87064 10.03635,31.19889 -6.02905,45.579137 l -5.29924,4.74357 c -44.88024,40.172109 -44.88024,40.172109 -44.88024,40.172109 0,0 0,0 -46.13559,-39.068644 l -6.52239,-5.523634 c -16.51505,-13.985337 -19.84689,-34.240548 -7.47095,-45.415428 12.37595,-11.17489 35.63449,-8.91263 52.14954,5.07272 l 6.72405,5.69423 5.49497,-4.91876 c 9.53885,-8.5383 21.58512,-13.00327 32.46218,-12.94631 z"
       copytype="repeated_stretched"
       prop_scale="0.76"
       scale_y_rel="false"
       spacing="-3.2"
       normal_offset="0"
       tang_offset="-1.4"
       prop_units="false"
       vertical_pattern="false"
       hide_knot="false"
       fuse_tolerance="0" />
    <inkscape:path-effect
       effect="skeletal"
       id="path-effect5104"
       is_visible="true"
       lpeversion="1"
       pattern="m 346.14348,-137.91779 c 7.44221,0.0389 14.33703,2.19482 19.50672,6.61101 12.72543,10.87064 10.03635,31.19889 -6.02905,45.579137 l -5.29924,4.74357 c -44.88024,40.172109 -44.88024,40.172109 -44.88024,40.172109 0,0 0,0 -46.13559,-39.068644 l -6.52239,-5.523634 c -16.51505,-13.985337 -19.84689,-34.240548 -7.47095,-45.415428 12.37595,-11.17489 35.63449,-8.91263 52.14954,5.07272 l 6.72405,5.69423 5.49497,-4.91876 c 9.53885,-8.5383 21.58512,-13.00327 32.46218,-12.94631 z"
       copytype="repeated_stretched"
       prop_scale="0.76"
       scale_y_rel="false"
       spacing="-3.2"
       normal_offset="0"
       tang_offset="-1.4"
       prop_units="false"
       vertical_pattern="false"
       hide_knot="false"
       fuse_tolerance="0" />
    <inkscape:path-effect
       effect="skeletal"
       id="path-effect1790"
       is_visible="true"
       lpeversion="1"
       pattern="m 622.10712,-139.98352 c 6.62179,0.0401 12.75654,2.26233 17.35634,6.81437 11.3226,11.20504 8.92996,32.15862 -5.36442,46.98123 l -4.71507,4.88949 c -39.93273,41.40787 -39.93273,41.40787 -39.93273,41.40787 0,0 0,0 -41.0497,-40.27046 l -5.80338,-5.69355 c -14.69447,-14.41555 -17.65901,-35.29384 -6.64737,-46.81248 11.01165,-11.51865 31.70622,-9.1868 46.40069,5.22876 l 5.9828,5.8694 4.88922,-5.07007 c 8.48731,-8.80095 19.20562,-13.40328 28.88362,-13.34456 z"
       copytype="repeated_stretched"
       prop_scale="0.76"
       scale_y_rel="false"
       spacing="-3.2"
       normal_offset="0"
       tang_offset="-1.4"
       prop_units="false"
       vertical_pattern="false"
       hide_knot="false"
       fuse_tolerance="0" />
    <inkscape:path-effect
       effect="skeletal"
       id="path-effect17315"
       is_visible="true"
       lpeversion="1"
       pattern="m 622.10712,-140.04819 c 6.62179,0.0401 12.75654,2.26233 17.35634,6.81437 11.3226,11.20504 8.92996,32.15862 -5.36442,46.98123 l -4.71507,4.88949 c -39.93273,41.40787 -39.93273,41.40787 -39.93273,41.40787 0,0 0,0 -41.0497,-40.27046 l -5.80338,-5.69355 c -14.69447,-14.41555 -17.65901,-35.29384 -6.64737,-46.81248 11.01165,-11.51865 31.70622,-9.1868 46.40069,5.22876 l 5.9828,5.8694 4.88922,-5.07007 c 8.48731,-8.80095 19.20562,-13.40328 28.88362,-13.34456 z"
       copytype="repeated_stretched"
       prop_scale="0.76"
       scale_y_rel="false"
       spacing="-3.2"
       normal_offset="0"
       tang_offset="-1.4"
       prop_units="false"
       vertical_pattern="false"
       hide_knot="false"
       fuse_tolerance="0" />
    <inkscape:path-effect
       effect="skeletal"
       id="path-effect17339"
       is_visible="true"
       lpeversion="1"
       pattern="m 596.16979,-115.84308 c 6.25505,0.0367 12.05003,2.07227 16.39507,6.2419 10.69551,10.26372 8.43539,29.45701 -5.06731,43.03439 l -4.45393,4.47873 c -37.7211,37.92923 -37.7211,37.92923 -37.7211,37.92923 0,0 0,0 -38.7762,-36.88738 l -5.48197,-5.21524 c -13.88063,-13.20451 -16.68098,-32.32884 -6.27921,-42.87981 10.40178,-10.55098 29.9502,-8.41503 43.83083,4.7895 l 5.65145,5.37632 4.61844,-4.64414 c 8.01725,-8.06159 18.14193,-12.27729 27.28393,-12.2235 z"
       copytype="repeated_stretched"
       prop_scale="0.76"
       scale_y_rel="false"
       spacing="-3.2"
       normal_offset="0"
       tang_offset="-1.4"
       prop_units="false"
       vertical_pattern="false"
       hide_knot="false"
       fuse_tolerance="0" />
    <inkscape:path-effect
       effect="skeletal"
       id="path-effect17443"
       is_visible="true"
       lpeversion="1"
       pattern="m 570.09787,-91.64541 c 5.8864,0.0333 11.33985,1.88279 15.42881,5.67116 10.06517,9.32524 7.93825,26.76357 -4.76866,39.09948 l -4.19143,4.06921 C 541.0686,-8.34445 541.0686,-8.34445 541.0686,-8.34445 c 0,0 0,0 -36.49089,-33.51453 l -5.15889,-4.73837 c -13.06257,-11.99714 -15.69788,-29.3728 -5.90914,-38.95903 9.78874,-9.58623 28.18506,-7.64559 41.24763,4.35157 l 5.31838,4.88472 4.34625,-4.21949 c 7.54474,-7.32447 17.07272,-11.1547 25.67593,-11.10583 z"
       copytype="repeated_stretched"
       prop_scale="0.76"
       scale_y_rel="false"
       spacing="-3.2"
       normal_offset="0"
       tang_offset="-1.4"
       prop_units="false"
       vertical_pattern="false"
       hide_knot="false"
       fuse_tolerance="0" />
    <inkscape:path-effect
       effect="skeletal"
       id="path-effect4824"
       is_visible="true"
       lpeversion="1"
       pattern="m 240.26921,-295.3968 c 6.62179,0.0401 12.75654,2.26233 17.35634,6.81437 11.3226,11.20504 8.92996,32.15862 -5.36442,46.98123 l -4.71507,4.88949 c -39.93273,41.40787 -39.93273,41.40787 -39.93273,41.40787 0,0 0,0 -41.0497,-40.27046 l -5.80338,-5.69355 c -14.69447,-14.41555 -17.65901,-35.29384 -6.64737,-46.81248 11.01165,-11.51865 31.70622,-9.1868 46.40069,5.22876 l 5.9828,5.8694 4.88922,-5.07007 c 8.48731,-8.80095 19.20562,-13.40328 28.88362,-13.34456 z"
       copytype="repeated_stretched"
       prop_scale="0.76"
       scale_y_rel="false"
       spacing="-3.2"
       normal_offset="0"
       tang_offset="-1.4"
       prop_units="false"
       vertical_pattern="false"
       hide_knot="false"
       fuse_tolerance="0" />
    <inkscape:path-effect
       effect="skeletal"
       id="path-effect4828"
       is_visible="true"
       lpeversion="1"
       pattern="m 240.26921,-295.46147 c 6.62179,0.0401 12.75654,2.26233 17.35634,6.81437 11.3226,11.20504 8.92996,32.15862 -5.36442,46.98123 l -4.71507,4.88949 c -39.93273,41.40787 -39.93273,41.40787 -39.93273,41.40787 0,0 0,0 -41.0497,-40.27046 l -5.80338,-5.69355 c -14.69447,-14.41555 -17.65901,-35.29384 -6.64737,-46.81248 11.01165,-11.51865 31.70622,-9.1868 46.40069,5.22876 l 5.9828,5.8694 4.88922,-5.07007 c 8.48731,-8.80095 19.20562,-13.40328 28.88362,-13.34456 z"
       copytype="repeated_stretched"
       prop_scale="0.76"
       scale_y_rel="false"
       spacing="-3.2"
       normal_offset="0"
       tang_offset="-1.4"
       prop_units="false"
       vertical_pattern="false"
       hide_knot="false"
       fuse_tolerance="0" />
    <inkscape:path-effect
       effect="skeletal"
       id="path-effect4832"
       is_visible="true"
       lpeversion="1"
       pattern="m 214.33188,-271.25636 c 6.25505,0.0367 12.05003,2.07227 16.39507,6.2419 10.69551,10.26372 8.43539,29.45701 -5.06731,43.03439 l -4.45393,4.47873 c -37.7211,37.92923 -37.7211,37.92923 -37.7211,37.92923 0,0 0,0 -38.7762,-36.88738 l -5.48197,-5.21524 c -13.88063,-13.20451 -16.68098,-32.32884 -6.27921,-42.87981 10.40178,-10.55098 29.9502,-8.41503 43.83083,4.7895 l 5.65145,5.37632 4.61844,-4.64414 c 8.01725,-8.06159 18.14193,-12.27729 27.28393,-12.2235 z"
       copytype="repeated_stretched"
       prop_scale="0.76"
       scale_y_rel="false"
       spacing="-3.2"
       normal_offset="0"
       tang_offset="-1.4"
       prop_units="false"
       vertical_pattern="false"
       hide_knot="false"
       fuse_tolerance="0" />
    <inkscape:path-effect
       effect="skeletal"
       id="path-effect4836"
       is_visible="true"
       lpeversion="1"
       pattern="m 188.25996,-247.05869 c 5.8864,0.0333 11.33985,1.88279 15.42881,5.67116 10.06517,9.32524 7.93825,26.76357 -4.76866,39.09948 l -4.19143,4.06921 c -35.49799,34.46111 -35.49799,34.46111 -35.49799,34.46111 0,0 0,0 -36.49089,-33.51453 l -5.15889,-4.73837 c -13.06257,-11.99714 -15.69788,-29.3728 -5.90914,-38.95903 9.78874,-9.58623 28.18506,-7.64559 41.24763,4.35157 l 5.31838,4.88472 4.34625,-4.21949 c 7.54474,-7.32447 17.07272,-11.1547 25.67593,-11.10583 z"
       copytype="repeated_stretched"
       prop_scale="0.76"
       scale_y_rel="false"
       spacing="-3.2"
       normal_offset="0"
       tang_offset="-1.4"
       prop_units="false"
       vertical_pattern="false"
       hide_knot="false"
       fuse_tolerance="0" />
  </defs>
  <g
     inkscape:label="Layer 1"
     inkscape:groupmode="layer"
     id="layer1">
    <g
       id="g4846"
       transform="matrix(1.1238959,0,0,0.97015637,415.65249,163.94703)">
      <path
         id="path4812"
         style="fill:#06bef9;fill-opacity:1;stroke-width:0"
         d="m -171.86149,-71.39719 c -3.77056,-3.403328 -6.66241,-7.551683 -8.04964,-12.502139 -1.7142,-6.117316 -0.84197,-12.483118 3.10053,-17.680161 3.90364,-5.14582 11.08348,-9.19113 21.16588,-9.01684 2.20357,0.0381 4.42837,0.13966 6.67146,0.30736 6.79961,0.50849 12.99406,1.56619 18.43836,2.83692 0,0 0,0 0,0 18.24041,4.30021 32.067678,11.954277 35.070893,13.594834 4.958147,2.708472 4.916199,2.804377 4.916199,2.804377 0,0 0.235561,0.01704 0.396022,8.375911 0.07245,3.77408 0.07332,10.723517 -0.898829,19.248408 -0.974479,8.545328 -3.149666,20.732961 -8.400145,33.999198 -1.00621,2.542173 -2.08509,5.021572 -3.23227,7.433271 -4.39182,9.23344 -11.23305,13.930592 -17.61093,15.150561 -6.42562,1.2291005 -12.47974,-0.8431082 -17.13763,-5.140481 -4.62506,-4.267082 -7.18918,-10.088909 -8.22723,-16.668285 -1.02786,-6.514766 -0.6421,-14.452794 1.21206,-22.620328 0.51004,-2.246564 0.94311,-4.540053 1.29445,-6.875069 -1.86505,-0.640202 -3.7289,-1.214497 -5.58746,-1.722597 -7.7703,-2.12442 -14.76948,-5.351118 -19.85824,-8.904142 -1.15577,-0.829555 -2.24579,-1.702204 -3.26348,-2.620798 z m -83.3031,-16.906537 c -4.90944,1.676798 -9.99194,2.162264 -15.00034,0.926396 -6.18841,-1.527046 -11.28218,-5.439575 -13.85133,-11.434603 -2.5461,-5.941236 -2.5058,-14.169766 2.61932,-22.861276 1.11942,-1.89847 2.30298,-3.7843 3.55063,-5.65363 7.81893,-11.71437 16.44453,-20.22769 22.93088,-25.8174 6.44326,-5.55259 12.16778,-9.40351 15.34761,-11.44989 7.02913,-4.52361 7.18594,-4.33032 7.18594,-4.33032 0,0 0.009,-0.0156 2.11051,0.98495 1.29528,0.62845 7.60248,3.65696 14.95988,8.41282 7.51326,4.85661 20.46177,14.23068 32.17753,29.33527 1.67593,2.16083 3.25966,4.35272 4.75076,6.5688 5.70392,8.47678 6.28642,16.76905 4.11347,22.87488 -2.19207,6.15952 -7.0647,10.327019 -13.1717,12.144424 -6.07445,1.807718 -12.40211,1.021341 -18.51356,-1.427073 -6.04885,-2.423332 -12.51195,-6.746038 -18.50474,-12.371931 -1.57528,-1.47889 -3.22621,-2.91455 -4.95237,-4.30045 -0.0832,-0.0677 -0.16666,-0.13517 -0.25028,-0.20256 -1.44391,1.30157 -2.82824,2.63786 -4.15295,4.00458 -6.7749,6.989488 -14.31942,12.19609 -21.34926,14.597013 z m -56.34554,64.923455 c -1.08385,5.115113 -3.26668,9.712777 -6.86898,13.359518 -2.363,2.3921491 -5.14656,4.1720393 -8.21546,5.2062753 -3.67135,1.2350386 -7.79417,1.4188634 -11.9648,0.1496121 -5.42569,-1.6498497 -11.01165,-5.8279064 -15.0429,-13.1608804 -1.06159,-1.930994 -2.07931,-3.91101 -3.05058,-5.93741 -6.06545,-12.655281 -9.06013,-24.47836 -10.62432,-32.791175 -1.56117,-8.296691 -2.06626,-15.120276 -2.27092,-18.826333 -0.45351,-8.212415 -0.22737,-8.245865 -0.22737,-8.245865 0,0 -0.0575,-0.109068 5.10922,-3.429597 3.13637,-2.01565 17.53559,-11.384457 37.02383,-16.999443 0,0 10e-6,0 10e-6,0 4.70815,-1.34556 9.94149,-2.53874 15.62851,-3.37542 2.7087,-0.39843 5.39739,-0.69787 8.06067,-0.90258 10.18107,-0.78281 17.6856,2.82225 21.91705,7.72513 4.27859,4.957492 5.46134,11.318479 4.0488,17.443972 -1.51342,6.562952 -5.67974,11.887347 -11.18659,16.089461 -4.84694,3.601304 -11.44346,6.953569 -18.83355,9.350778 -2.18198,0.707762 -4.36751,1.510888 -6.54944,2.408531 0.4088,1.931759 0.87266,3.831401 1.38871,5.695986 2.64483,9.556968 3.20989,18.916427 1.65811,26.23944 z m 26.56579,81.956747 c 3.72419,3.444971 6.56471,7.624465 7.8937,12.589115 1.64228,6.13503 0.69843,12.490299 -3.30248,17.642374 -3.96131,5.101084 -11.18634,9.065614 -21.26601,8.775508 -2.20302,-0.06337 -4.4266,-0.190637 -6.66781,-0.384339 -6.20129,-0.536104 -11.89086,-1.524733 -16.95974,-2.706973 0,0 0,-2e-6 0,-2e-6 -18.83555,-4.435206 -33.07933,-12.501369 -36.17403,-14.230941 -5.10717,-2.854303 -5.06116,-2.956758 -5.06116,-2.956758 0,0 -0.23498,-0.01955 -0.30178,-8.378218 -0.0302,-3.773526 0.0466,-10.72301 1.11288,-19.236239 1.06867,-8.532116 3.37818,-20.700201 8.77557,-33.906081 1.0345,-2.53093 2.14107,-4.998207 3.31537,-7.3969151 3.16085,-6.4570265 7.56331,-10.707128 12.09251,-13.0152603 6.12665,-3.1251799 12.44809,-2.7633859 17.60263,-0.22011 1.86043,0.9209456 3.59289,2.1379699 5.16649,3.6226329 4.57397,4.3154443 7.0706,10.1599071 8.03534,16.7469465 0.95522,6.522034 0.48383,14.45616 -1.45943,22.604377 -0.53455,2.241277 -0.99271,4.530416 -1.36969,6.862029 1.85815,0.661388 3.71586,1.257022 5.56903,1.786607 8.05699,2.302619 15.26112,5.787152 20.38392,9.604848 0.9178,0.703131 1.79059,1.43507 2.61469,2.197399 z m 83.09235,17.868482 c 4.92536,-1.62049 10.0124,-2.049442 15.00695,-0.757731 6.17119,1.596018 11.22111,5.565769 13.72215,11.589712 2.47852,5.9697 2.34501,14.198002 -2.87759,22.830822 -1.14075,1.8857 -2.34549,3.75802 -3.61418,5.6131 -7.95144,11.62607 -16.67352,20.03851 -23.228,25.55477 -6.51,5.47883 -12.28299,9.26353 -15.48963,11.27354 -7.08825,4.4431 -7.24329,4.24764 -7.24329,4.24764 0,0 -7.8e-4,0.001 -0.61521,-0.29155 -1.12362,-0.54593 -4.52164,-1.92524 -12.67913,-6.97478 -7.10445,-4.39771 -22.22941,-14.54803 -35.48359,-32.04135 -1.65139,-2.17968 -3.21029,-4.38936 -4.6763,-6.62215 -5.60813,-8.54096 -6.0965,-16.838504 -3.85424,-22.919254 2.26189,-6.13402 7.18076,-10.246081 13.30724,-11.995169 6.0936,-1.739704 12.41269,-0.88335 18.50005,1.635441 6.02534,2.493125 12.44474,6.89259 18.37606,12.592443 1.63411,1.570381 3.35166,3.09438 5.15221,4.564454 0.21226,-0.188715 0.42316,-0.378225 0.6327,-0.56852 1.23173,-1.105661 2.4201,-2.236791 3.56506,-3.390702 6.85093,-6.904227 14.4467,-12.020613 21.49874,-14.340716 z m 57.06862,-64.271589 c 1.1411,-5.1059182 3.37691,-9.6831673 7.02197,-13.2920304 4.5081,-4.4633308 10.48273,-6.7777719 16.94548,-5.8758498 6.41238,0.894893 13.42178,5.1795092 18.1858,14.0811582 1.03978,1.9427617 2.03525,3.933973 2.983852,5.970991 5.924601,12.723212 8.788534,24.573449 10.261173,32.904789 1.469523,8.313711 1.898541,15.141839 2.061814,18.850951 0.361757,8.218137 0.134913,8.249191 0.134913,8.249191 0,0 0.05287,0.102599 -4.977899,3.267328 -3.05252,1.920263 -17.071763,10.849546 -35.983073,16.299648 0,-10e-7 -1e-5,2e-6 -1e-5,2e-6 -5.08524,1.453137 -10.80921,2.737909 -17.07516,3.58565 -2.71282,0.366954 -5.40465,0.635368 -8.07006,0.809508 -10.18943,0.665974 -17.6528,-3.02293 -21.8289,-7.97351 -4.22223,-5.005268 -5.33357,-11.379855 -3.84983,-17.489993 1.64727,-6.783621 6.12716,-12.204558 12.01061,-16.421032 4.79735,-3.347931 11.19096,-6.44994 18.30165,-8.666149 2.18928,-0.682307 4.38318,-1.460235 6.57454,-2.332956 -0.38753,-1.935643 -0.83054,-3.839806 -1.32616,-5.709539 -2.54019,-9.583427 -3.00463,-18.947485 -1.37071,-26.258157 z"
         inkscape:original-d="M -104.79214,-7.9645609 A 123.26677,124.87039 0 0 0 -229.75227,-130.94554 123.26677,124.87039 0 0 0 -351.30185,-4.5055297 123.26677,124.87039 0 0 0 -226.62966,118.775 123.26677,124.87039 0 0 0 -104.78474,-7.3729695"
         inkscape:path-effect="#path-effect4824" />
      <path
         id="path4814"
         style="fill:#06bef9;fill-opacity:1;stroke-width:0"
         d="m -171.86149,-71.461859 c -3.77056,-3.403328 -6.66241,-7.551683 -8.04964,-12.502139 -1.7142,-6.117317 -0.84197,-12.483119 3.10053,-17.680162 3.90364,-5.14582 11.08348,-9.19113 21.16588,-9.01684 2.20357,0.0381 4.42837,0.13966 6.67146,0.30736 6.79961,0.50849 12.99406,1.56619 18.43836,2.83692 0,0 0,0 0,0 18.24041,4.30021 32.067678,11.954278 35.070893,13.594835 4.958147,2.708472 4.916199,2.804377 4.916199,2.804377 0,0 0.235561,0.01704 0.396022,8.375911 0.07245,3.77408 0.07332,10.723517 -0.898829,19.248407 -0.974479,8.545328 -3.149666,20.732962 -8.400145,33.999199 -1.00621,2.542173 -2.08509,5.021572 -3.23227,7.43327 -4.39182,9.23344 -11.23305,13.9305924 -17.61093,15.1505614 -6.42562,1.2291005 -12.47974,-0.8431082 -17.13763,-5.1404814 -4.62506,-4.267082 -7.18918,-10.088908 -8.22723,-16.668285 -1.02786,-6.514765 -0.6421,-14.452794 1.21206,-22.620328 0.51004,-2.246564 0.94311,-4.540052 1.29445,-6.875068 -1.86505,-0.640203 -3.7289,-1.214498 -5.58746,-1.722598 -7.7703,-2.124419 -14.76948,-5.351118 -19.85824,-8.904142 -1.15577,-0.829554 -2.24579,-1.702204 -3.26348,-2.620797 z m -83.3031,-16.906538 c -4.90944,1.676798 -9.99194,2.162264 -15.00034,0.926396 -6.18841,-1.527047 -11.28218,-5.439576 -13.85133,-11.434603 -2.5461,-5.941236 -2.5058,-14.169766 2.61932,-22.861276 1.11942,-1.89847 2.30298,-3.7843 3.55063,-5.65363 7.81893,-11.71437 16.44453,-20.22769 22.93088,-25.8174 6.44326,-5.55259 12.16778,-9.40351 15.34761,-11.44989 7.02913,-4.52361 7.18594,-4.33032 7.18594,-4.33032 0,0 0.009,-0.0156 2.11051,0.98495 1.29528,0.62845 7.60248,3.65696 14.95988,8.41282 7.51326,4.85661 20.46177,14.23068 32.17753,29.33527 1.67594,2.16083 3.25967,4.35272 4.75076,6.5688 5.70392,8.47678 6.28642,16.76905 4.11347,22.87488 -2.19207,6.15952 -7.0647,10.327019 -13.1717,12.144424 -6.07445,1.807718 -12.40211,1.021341 -18.51356,-1.427073 -6.04885,-2.423332 -12.51195,-6.746038 -18.50474,-12.371931 -1.57528,-1.47889 -3.22621,-2.91455 -4.95237,-4.30045 -0.0832,-0.0677 -0.16666,-0.13517 -0.25028,-0.20256 -1.4439,1.30157 -2.82824,2.63786 -4.15295,4.00458 -6.7749,6.989488 -14.31942,12.19609 -21.34926,14.597013 z m -56.34554,64.923454 c -1.08385,5.115114 -3.26668,9.712777 -6.86898,13.359518 -2.363,2.3921504 -5.14656,4.1720408 -8.21547,5.2062767 -3.67134,1.2350376 -7.79416,1.4188622 -11.96478,0.1496121 -5.4257,-1.6498491 -11.01166,-5.8279058 -15.04291,-13.1608818 -1.06159,-1.930993 -2.07931,-3.911009 -3.05058,-5.93741 -6.06545,-12.655281 -9.06013,-24.47836 -10.62432,-32.791174 -1.56117,-8.296691 -2.06626,-15.120276 -2.27092,-18.826334 -0.45351,-8.212414 -0.22737,-8.245864 -0.22737,-8.245864 0,0 -0.0575,-0.109069 5.10922,-3.429597 3.13637,-2.015651 17.53559,-11.384458 37.02383,-16.999443 0,0 10e-6,0 10e-6,0 4.70815,-1.34556 9.94149,-2.53874 15.62851,-3.37542 2.7087,-0.39843 5.39739,-0.69787 8.06067,-0.90258 10.18107,-0.78281 17.6856,2.82225 21.91705,7.72513 4.27859,4.957492 5.46134,11.318478 4.0488,17.443972 -1.51342,6.562952 -5.67974,11.887348 -11.18659,16.089461 -4.84694,3.601304 -11.44346,6.953569 -18.83355,9.350777 -2.18198,0.707763 -4.36751,1.510889 -6.54944,2.408532 0.4088,1.931759 0.87266,3.831401 1.38871,5.695985 2.64483,9.556969 3.20989,18.916428 1.65811,26.23944 z m 26.56579,81.956748 c 3.72419,3.444971 6.56471,7.624465 7.8937,12.589115 1.64228,6.13503 0.69843,12.490298 -3.30248,17.642373 -3.96131,5.101085 -11.18634,9.065615 -21.26601,8.775509 -2.20302,-0.06337 -4.4266,-0.190637 -6.66781,-0.384339 -6.20129,-0.536104 -11.89086,-1.524733 -16.95974,-2.706973 0,0 0,-3e-6 0,-3e-6 -18.83555,-4.435205 -33.07933,-12.501368 -36.17403,-14.23094 -5.10717,-2.854303 -5.06116,-2.956759 -5.06116,-2.956759 0,0 -0.23498,-0.01955 -0.30178,-8.378217 -0.0302,-3.773527 0.0466,-10.72301 1.11288,-19.236239 1.06867,-8.532117 3.37818,-20.700201 8.77557,-33.906081 1.0345,-2.53093 2.14107,-4.998207 3.31537,-7.3969156 3.16085,-6.4570256 7.56331,-10.7071269 12.09251,-13.0152593 6.12665,-3.1251813 12.44809,-2.763387 17.60263,-0.2201102 1.86043,0.9209456 3.59289,2.1379697 5.16649,3.6226323 4.57397,4.3154442 7.0706,10.159907 8.03534,16.7469468 0.95522,6.522034 0.48383,14.456159 -1.45943,22.604376 -0.53455,2.241278 -0.99271,4.530416 -1.36969,6.862029 1.85815,0.661389 3.71586,1.257023 5.56903,1.786608 8.05699,2.302619 15.26112,5.787152 20.38392,9.604849 0.9178,0.70313 1.79059,1.435069 2.61469,2.197398 z m 83.09235,17.868482 c 4.92536,-1.620489 10.0124,-2.049441 15.00695,-0.757731 6.17119,1.596018 11.22111,5.565769 13.72215,11.589712 2.47852,5.9697 2.34501,14.198002 -2.87759,22.830822 -1.14075,1.8857 -2.34549,3.75802 -3.61418,5.6131 -7.95144,11.62607 -16.67353,20.03851 -23.228,25.55477 -6.51,5.47883 -12.28299,9.26353 -15.48963,11.27354 -7.08825,4.4431 -7.24329,4.24764 -7.24329,4.24764 0,0 -7.8e-4,0.001 -0.61521,-0.29155 -1.12362,-0.54593 -4.52164,-1.92524 -12.67912,-6.97478 -7.10446,-4.39771 -22.22942,-14.54802 -35.4836,-32.04135 -1.65139,-2.17968 -3.2103,-4.38936 -4.6763,-6.62215 -5.60813,-8.54096 -6.0965,-16.838505 -3.85424,-22.919255 2.26189,-6.134019 7.18076,-10.24608 13.30724,-11.995168 6.0936,-1.739704 12.41269,-0.88335 18.50005,1.635441 6.02534,2.493125 12.44474,6.89259 18.37606,12.592443 1.63411,1.570381 3.35166,3.09438 5.15221,4.564454 0.21226,-0.188715 0.42316,-0.378225 0.6327,-0.568521 1.23173,-1.105661 2.4201,-2.23679 3.56506,-3.390701 6.85093,-6.904227 14.4467,-12.020613 21.49874,-14.340716 z m 57.06862,-64.271589 c 1.1411,-5.1059178 3.37691,-9.6831669 7.02197,-13.29203 4.5081,-4.4633308 10.48273,-6.7777719 16.94548,-5.8758498 6.41238,0.8948931 13.42178,5.1795093 18.1858,14.0811583 1.03978,1.9427618 2.03525,3.9339735 2.983852,5.9709905 5.924601,12.723212 8.788534,24.57345 10.261173,32.90479 1.469523,8.313711 1.89854,15.141838 2.061813,18.85095 0.361758,8.218137 0.134914,8.249191 0.134914,8.249191 0,0 0.05287,0.1026 -4.977899,3.267328 -3.05252,1.920263 -17.071763,10.849546 -35.983073,16.299648 0,-10e-7 -1e-5,2e-6 -1e-5,2e-6 -5.08524,1.453138 -10.80921,2.737909 -17.07516,3.58565 -2.71283,0.366954 -5.40465,0.635369 -8.07006,0.809508 -10.18943,0.665974 -17.6528,-3.022929 -21.8289,-7.973509 -4.22223,-5.005269 -5.33357,-11.379856 -3.84983,-17.489994 1.64727,-6.783621 6.12716,-12.204558 12.01061,-16.421032 4.79735,-3.347931 11.19096,-6.44994 18.30165,-8.666149 2.18928,-0.682307 4.38318,-1.460235 6.57454,-2.332955 -0.38753,-1.935644 -0.83054,-3.839806 -1.32616,-5.70954 -2.54019,-9.583427 -3.00463,-18.947485 -1.37071,-26.258157 z"
         inkscape:original-d="M -104.79214,-8.0292304 A 123.26677,124.87039 0 0 0 -229.75227,-131.01021 123.26677,124.87039 0 0 0 -351.30185,-4.5701992 123.26677,124.87039 0 0 0 -226.62966,118.71033 123.26677,124.87039 0 0 0 -104.78474,-7.437639"
         inkscape:path-effect="#path-effect4828" />
      <path
         id="path4816"
         style="fill:#38cbfa;fill-opacity:1;stroke-width:0"
         d="m -174.3274,-66.150279 c -3.62879,-3.135643 -6.47677,-6.957391 -7.92858,-11.513965 -1.77521,-5.571572 -1.15528,-11.486886 2.38656,-16.312383 3.50121,-4.770149 10.0768,-8.562713 19.40844,-8.529163 2.04027,0.007 4.10054,0.0719 6.17844,0.19614 6.78522,0.40588 12.93156,1.39814 18.27249,2.60075 0,0 1e-5,2e-6 1e-5,2e-6 16.49091,3.771042 28.96214,10.482068 31.70714,11.940646 4.48988,2.385743 4.45343,2.471702 4.45343,2.471702 0,0 0.222621,0.0099 0.569702,7.775873 0.156607,3.504109 0.320526,9.969895 -0.398927,17.912648 -0.720255,7.951555 -2.493515,19.349557 -7.162605,31.724738 -0.89531,2.372769 -1.8615,4.686416 -2.89472,6.935824 -3.95764,8.616651 -10.23885,12.9760625 -16.08286,14.1005339 -5.88933,1.1331929 -11.42322,-0.7958307 -15.68728,-4.7399049 -4.22937,-3.911989 -6.60792,-9.244205 -7.64588,-15.293805 -1.02681,-5.984587 -0.83077,-13.341415 0.68208,-20.922209 0.41649,-2.086871 0.75939,-4.217146 1.02447,-6.385221 -1.73259,-0.571613 -3.46349,-1.081713 -5.18873,-1.530277 -6.9663,-1.811381 -13.31092,-4.581708 -18.04527,-7.662302 -1.2964,-0.8692 -2.51587,-1.791401 -3.64791,-2.769627 z m -79.669,-15.414518 c -4.69577,1.522491 -9.50803,1.943693 -14.1701,0.773981 -5.76233,-1.445763 -10.39057,-5.095402 -12.61936,-10.638488 -2.20916,-5.494268 -1.95486,-13.063636 2.98574,-20.993956 1.07932,-1.73252 2.21601,-3.45251 3.40978,-5.1566 7.47367,-10.66813 15.57302,-18.42082 21.60454,-23.4935 5.99754,-5.0441 11.28832,-8.54841 14.21568,-10.40659 6.47383,-4.10937 6.60964,-3.93772 6.60964,-3.93772 0,0 0.007,-0.0125 1.84084,0.86469 1.11247,0.537 6.8952,3.29603 13.67665,7.60418 6.91117,4.39055 19.06088,12.97555 30.25089,26.81981 1.59159,1.96922 3.10133,3.96765 4.52841,5.98936 11.35499,16.085542 2.75903,29.132299 -7.65612,32.2566 -5.65056,1.695034 -11.66197,0.995517 -17.52154,-1.239429 -5.80161,-2.212837 -12.03606,-6.172109 -17.7525,-11.340841 -1.51976,-1.374186 -3.10755,-2.708492 -4.76255,-3.997062 -0.0595,-0.04658 -0.11905,-0.0931 -0.17872,-0.139554 -1.36995,1.194909 -2.68789,2.421142 -3.9535,3.674959 -6.47531,6.414759 -13.78161,11.179472 -20.50778,13.36016 z m -53.97136,59.467362 c -1.04697,4.697493 -3.06532,8.908526 -6.36134,12.2527144 -2.13194,2.1630975 -4.63321,3.7866991 -7.39249,4.748739 -3.43632,1.1938973 -7.30814,1.3822154 -11.22215,0.1447105 -4.92754,-1.5552507 -9.98997,-5.4318729 -13.60308,-12.2107509 -0.96031,-1.801645 -1.87748,-3.649956 -2.7492,-5.542176 -5.44093,-11.811225 -7.98882,-22.88092 -9.26333,-30.628317 -1.27359,-7.741815 -1.58359,-14.102213 -1.686,-17.550181 -0.22707,-7.645408 -0.0124,-7.671152 -0.0124,-7.671152 0,0 -0.0505,-0.09816 4.63552,-3.036912 2.87135,-1.800727 15.87792,-10.053686 33.5157,-15.009812 0,10e-7 1e-5,-2e-6 1e-5,-2e-6 4.70478,-1.305298 9.99177,-2.455231 15.7741,-3.208809 2.51329,-0.327477 5.00668,-0.565257 7.47568,-0.717357 9.43457,-0.58141 16.31197,2.82068 20.11424,7.376924 3.84811,4.611177 4.77119,10.467385 3.25247,16.112312 -1.68096,6.247954 -5.99414,11.285245 -11.52998,15.220422 -4.49817,3.10317 -10.45724,5.969043 -17.0547,8.013131 -2.02709,0.628025 -4.05864,1.344965 -6.08763,2.150417 0.32859,1.795187 0.70976,3.560982 1.14093,5.294313 2.20768,8.875602 2.54993,17.548872 1.05365,24.261786 z m 25.49192,75.128876 c 3.58383,3.177023 6.38233,7.030174 7.77877,11.6018 1.70761,5.590323 1.02022,11.497221 -2.57655,16.281868 -3.55517,4.729308 -10.1733,8.446948 -19.50392,8.30414 -2.04009,-0.03119 -4.0996,-0.120033 -6.17614,-0.268884 -6.19598,-0.444284 -11.85022,-1.372933 -16.8372,-2.495084 0,0 0,-3e-6 0,-3e-6 -17.07448,-3.899374 -29.95277,-11.001726 -32.78976,-12.546839 -4.63682,-2.52535 -4.59652,-2.617723 -4.59652,-2.617723 0,0 -0.22222,-0.0124 -0.47728,-7.781313 -0.11507,-3.504888 -0.20264,-9.973281 0.61009,-17.906996 0.81348,-7.940935 2.72061,-19.323042 7.53775,-31.640344 0.92383,-2.362013 1.91802,-4.6639677 2.9787,-6.9007578 2.79491,-5.8943323 6.71928,-9.8090778 10.77759,-11.9763852 5.77886,-3.0918171 11.76544,-2.6962978 16.60364,-0.2141058 1.61864,0.8362615 3.1281,1.9191534 4.50596,3.2251218 4.1775,3.9595477 6.48728,9.3132406 7.45133,15.369383 0.95362,5.990528 0.67182,13.343616 -0.92908,20.905963 -0.44075,2.081906 -0.80842,4.208203 -1.09876,6.373296 1.72596,0.592193 3.45101,1.122976 5.17115,1.592319 7.24492,1.97692 13.79777,4.988238 18.58297,8.318236 1.05298,0.754628 2.05081,1.546129 2.98726,2.376308 z m 79.46383,16.327877 c 4.71173,-1.46939 9.52937,-1.837157 14.17923,-0.615036 5.74708,1.510498 10.33407,5.213145 12.49886,10.781889 2.14566,5.519537 1.80396,13.086407 -3.22646,20.959929 -1.09897,1.72016 -2.25514,3.42713 -3.46819,5.11755 -7.59518,10.58356 -15.78114,18.24121 -21.87363,23.24548 -6.0572,4.97528 -11.39073,8.41813 -14.34175,10.24272 -6.52584,4.03488 -6.66004,3.86135 -6.66004,3.86135 0,0 -3.7e-4,6.3e-4 -0.41361,-0.19727 -0.86043,-0.41583 -3.70887,-1.54102 -11.20396,-6.07454 -6.39908,-3.87059 -20.85547,-13.24309 -33.72862,-29.54502 -1.56913,-1.98716 -3.05608,-4.0026 -4.46006,-6.04036 -5.36971,-7.793302 -6.0277,-15.419708 -4.09454,-21.03548 1.94973,-5.663908 6.41635,-9.4889 12.11809,-11.129976 5.66749,-1.631218 11.66936,-0.865373 17.50511,1.435876 5.77823,2.278565 11.97168,6.309983 17.6317,11.547442 1.5587,1.442374 3.19077,2.842923 4.89533,4.195134 0.23199,-0.19843 0.46241,-0.397781 0.69126,-0.59804 1.13704,-0.989626 2.23817,-2.000999 3.30318,-3.031962 6.54488,-6.335425 13.89934,-11.015147 20.6481,-13.119686 z m 54.6855,-58.843847 c 1.10473,-4.6891633 3.17689,-8.8806577 6.51625,-12.1876093 4.13263,-4.0925223 9.59335,-6.2381107 15.51469,-5.403319 5.87318,0.8280038 12.3067,4.8070416 16.60744,13.1188539 0.93819,1.8131184 1.83284,3.6722883 2.68165,5.5747474 5.2987,11.876856 7.715891,22.970171 8.899451,30.733537 1.182475,7.756254 1.41731,14.118647 1.478893,17.568335 0.136532,7.648037 -0.07867,7.671336 -0.07867,7.671336 0,0 0.04599,0.09182 -4.505343,2.881046 -2.78672,1.707804 -15.42042,9.54227 -32.49146,14.34062 0,0 0,10e-7 -1e-5,2e-6 -5.06073,1.403749 -10.82677,2.638721 -17.18143,3.390323 -2.51661,0.297588 -5.01243,0.505957 -7.48299,0.629121 -9.44071,0.470886 -16.27912,-3.009109 -20.02947,-7.608987 -3.79519,-4.654882 -4.65154,-10.522126 -3.06503,-16.15052 1.81987,-6.456257 6.45307,-11.580006 12.36137,-15.518493 4.43126,-2.865395 10.18359,-5.498315 16.5087,-7.374629 2.03397,-0.60334 4.0735,-1.295787 6.11155,-2.076953 -0.3076,-1.79867 -0.66816,-3.56862 -1.07911,-5.306774 -2.10423,-8.900787 -2.34559,-17.578405 -0.76648,-24.280637 z"
         inkscape:original-d="M -111.61859,-7.9710074 A 116.43976,114.38016 0 0 0 -229.65793,-120.62048 116.43976,114.38016 0 0 0 -344.4756,-4.8025664 116.43976,114.38016 0 0 0 -226.70826,108.1213 116.43976,114.38016 0 0 0 -111.6116,-7.4291154"
         inkscape:path-effect="#path-effect4832" />
      <path
         id="path4818"
         style="fill:#6ad8fb;fill-opacity:1;stroke-width:0"
         d="m -176.86143,-60.798229 c -3.48798,-2.865084 -6.28885,-6.357175 -7.79902,-10.517524 -3.42005,-9.421804 1.49396,-22.749558 19.36542,-22.952071 1.87715,-0.0213 3.77295,0.0085 5.68549,0.09146 6.76407,0.293685 12.85109,1.214502 18.06807,2.340174 0,0 1e-5,2e-6 1e-5,2e-6 14.74966,3.250298 25.87449,9.035229 28.36008,10.312367 4.02348,2.067323 3.99246,2.143308 3.99246,2.143308 0,0 0.20929,0.0024 0.74204,7.169264 0.2402,3.231302 0.567,9.208798 0.10074,16.565113 -0.46605,7.353177 -1.83425,17.957561 -5.92107,29.43959 -0.78418,2.203001 -1.63755,4.350631 -2.55681,6.437567 -3.52335,7.999359 -9.24737,12.0210787 -14.55965,13.0496667 -5.35519,1.036898 -10.36974,-0.749602 -14.23973,-4.3406057 -3.83296,-3.556632 -6.02645,-8.400076 -7.06566,-13.919665 -1.02691,-5.454285 -1.02436,-12.231008 0.14641,-19.223373 0.32263,-1.926774 0.57512,-3.893342 0.75384,-5.893872 -1.60069,-0.503698 -3.19922,-0.950409 -4.79168,-1.340397 -6.17311,-1.511875 -11.85965,-3.844277 -16.22229,-6.470133 -1.44624,-0.898045 -2.80471,-1.860816 -4.05865,-2.890866 z m -75.91603,-13.925539 c -4.47579,1.368794 -9.01561,1.727487 -13.33343,0.626939 -5.33857,-1.36072 -9.50795,-4.742072 -11.40477,-9.828778 -1.88044,-5.042768 -1.4234,-11.949976 3.32164,-19.121573 1.03683,-1.56711 2.12433,-3.12189 3.26198,-4.66149 7.11442,-9.62752 14.68167,-16.62491 20.25808,-21.18626 5.55118,-4.54071 10.41138,-7.70229 13.08871,-9.3747 5.92419,-3.70057 6.03985,-3.55012 6.03985,-3.55012 0,0 0.006,-0.01 1.57674,0.74457 0.93058,0.44631 6.19557,2.93881 12.4027,6.80337 6.31097,3.92922 17.66393,11.73172 28.31867,24.32326 1.50504,1.77871 2.93838,3.58468 4.29889,5.41289 10.82339,14.54339 3.35364,26.564327 -6.30055,29.479693 -5.22928,1.579138 -10.91993,0.964732 -16.5176,-1.05687 -5.5446,-2.002434 -11.53443,-5.597372 -16.96452,-10.307249 -1.46257,-1.26861 -2.98565,-2.500686 -4.56808,-3.691067 -0.0349,-0.02622 -0.0698,-0.05243 -0.10473,-0.07861 -1.29413,1.087992 -2.54357,2.203926 -3.74774,3.344611 -6.16369,5.838559 -13.21187,10.160002 -19.62584,12.121383 z m -51.60347,54.038283 c -1.01132,4.279691 -2.86576,8.104201 -5.85536,11.1453644 -1.90443,1.937276 -4.12867,3.4055433 -6.5843,4.2938734 -3.19422,1.1487927 -6.80553,1.3423574 -10.45348,0.1396207 -4.43577,-1.4581533 -8.98204,-5.0343175 -12.18134,-11.2632905 -0.85892,-1.672237 -1.67535,-3.388733 -2.44725,-5.146601 -4.81495,-10.965941 -6.91204,-21.279147 -7.89591,-28.457038 -0.98459,-7.183176 -1.09871,-13.076063 -1.09883,-16.263272 -2.6e-4,-7.07247 0.20259,-7.090183 0.20259,-7.090183 0,0 -0.0434,-0.08717 4.16305,-2.647734 2.60469,-1.585542 14.22669,-8.738412 30.01962,-13.043787 0,2e-6 10e-6,-1e-6 10e-6,-1e-6 4.68188,-1.254109 10.01306,-2.352383 15.88705,-3.009092 2.31728,-0.259014 4.61504,-0.437661 6.88966,-0.53967 18.13574,-0.813767 23.79719,12.235258 20.8076,21.771966 -1.85511,5.917722 -6.3307,10.657133 -11.89912,14.311989 -4.12897,2.623543 -9.44498,5.02247 -15.25939,6.727955 -1.87282,0.549311 -3.75105,1.180866 -5.62779,1.894741 0.24813,1.65812 0.5463,3.289667 0.89224,4.891421 1.76915,8.192183 1.88309,16.181479 0.44095,22.283738 z m 24.44122,68.330208 c 3.44479,2.906056 6.19841,6.429698 7.65644,10.605894 3.30106,9.45513 -1.75791,22.731318 -19.63268,22.720952 -1.8773,-0.0011 -3.77277,-0.05354 -5.68447,-0.159622 -6.18453,-0.34332 -11.79331,-1.205983 -16.68046,-2.259883 0,0 0,-2e-6 0,-2e-6 -15.32065,-3.371554 -26.84218,-9.525076 -29.42038,-10.885905 -4.16815,-2.200043 -4.1335,-2.282279 -4.1335,-2.282279 0,0 -0.20909,-0.005 -0.65172,-7.178248 -0.19952,-3.233582 -0.4514,-9.216596 0.10718,-16.566846 0.55821,-7.345489 2.0598,-17.938156 6.29618,-29.365116 0.81301,-2.192799 1.69477,-4.3292278 2.64195,-6.4039687 2.43652,-5.33743816 5.89314,-8.9176928 9.48954,-10.9405633 5.41664,-3.0557807 11.05316,-2.6205476 15.56466,-0.2078877 1.38535,0.7500137 2.67943,1.700607 3.86711,2.8327773 3.78002,3.6033429 5.90302,8.4670288 6.86748,13.9918664 0.95289,5.458642 0.86433,12.231945 -0.39335,19.206732 -0.34662,1.922163 -0.62353,3.885166 -0.82707,5.883182 1.59438,0.523601 3.18737,0.990264 4.77506,1.40024 6.44338,1.663926 12.34114,4.219276 16.77199,7.078366 1.1977,0.796378 2.32985,1.639265 3.38604,2.530311 z m 75.7182,14.7871 c 4.49163,-1.319042 9.03753,-1.627523 13.34477,-0.478149 9.76477,2.605694 17.76791,14.272994 7.74975,29.044265 -1.05474,1.555223 -2.15994,3.097549 -3.31508,4.624118 -7.22453,9.547063 -14.8684,16.455673 -20.49856,20.953893 -5.60373,4.47711 -10.50096,7.58218 -13.19883,9.22389 -5.96913,3.63233 -6.08334,3.4803 -6.08334,3.4803 0,0 -1.1e-4,1.9e-4 -0.22087,-0.10589 -0.57058,-0.27391 -2.78795,-1.10904 -9.59464,-5.10715 -5.62729,-3.30536 -19.53313,-11.93009 -32.10872,-27.138813 -1.48471,-1.795681 -2.89737,-3.617808 -4.23685,-5.461346 -10.65676,-14.666266 -3.04066,-26.59721 6.63911,-29.402368 5.24401,-1.519691 10.92434,-0.842779 16.49869,1.240884 5.52158,2.06394 11.47333,5.726179 16.85222,10.499369 1.48062,1.313924 3.02484,2.590529 4.63144,3.824298 0.25199,-0.206597 0.50221,-0.414243 0.75065,-0.622922 1.04048,-0.874671 2.05192,-1.767538 3.03402,-2.676923 6.2266,-5.765399 13.31957,-10.00737 19.75624,-11.897456 z m 52.30704,-53.4446551 c 1.06981,-4.2723557 2.97921,-8.07828192 6.01295,-11.0828888 3.75753,-3.7214551 8.7052,-5.6982347 14.08689,-4.9305296 5.33572,0.7611491 11.19555,4.4349791 15.03208,12.1566826 0.83641,1.6833742 1.62998,3.4103469 2.37867,5.1780249 4.67091,11.028962 6.6373,21.361716 7.53089,28.552665 0.89405,7.194671 0.93405,13.086636 0.89399,16.274049 -0.0889,7.071568 -0.29207,7.086785 -0.29207,7.086785 0,0 0.0392,0.08098 -4.03406,2.499001 -2.51917,1.495471 -13.77601,8.252961 -29.0133,12.408124 0,-10e-7 0,2e-6 0,2e-6 -5.01386,1.342567 -10.81152,2.519343 -17.25079,3.160324 -2.3198,0.230862 -4.61932,0.381853 -6.89495,0.456707 -18.14192,0.597196 -23.66072,-12.509837 -20.5519,-22.017141 1.99877,-6.11257 6.80149,-10.92798 12.73688,-14.573942 4.04426,-2.402375 9.15,-4.586919 14.69925,-6.138746 1.87923,-0.525494 3.76499,-1.133345 5.65038,-1.823648 -0.22747,-1.661152 -0.5053,-3.296446 -0.83122,-4.902656 -1.66704,-8.216065 -1.67968,-16.209241 -0.15369,-22.3028131 z"
         inkscape:original-d="M -118.4804,-7.8472536 A 109.5773,103.92163 0 0 0 -229.56301,-110.19644 109.5773,103.92163 0 0 0 -337.61383,-4.9685246 109.5773,103.92163 0 0 0 -226.78718,97.629964 109.5773,103.92163 0 0 0 -118.47382,-7.3549106"
         inkscape:path-effect="#path-effect4836" />
    </g>
  </g>
  <metadata
     id="metadata4996">
    <rdf:RDF>
      <cc:Work
         rdf:about="">
        <dc:title>heartlogo_open</dc:title>
      </cc:Work>
    </rdf:RDF>
  </metadata>
</svg>
