<?xml version="1.0" encoding="UTF-8" standalone="no"?>
<!-- Created with Inkscape (http://www.inkscape.org/) -->

<svg
   width="1200.9098"
   height="1194.5792"
   viewBox="0 0 317.74071 316.06576"
   version="1.1"
   id="svg5"
   inkscape:version="1.1.2 (b8e25be833, 2022-02-05)"
   sodipodi:docname="heartlogo2.svg"
   xmlns:inkscape="http://www.inkscape.org/namespaces/inkscape"
   xmlns:sodipodi="http://sodipodi.sourceforge.net/DTD/sodipodi-0.dtd"
   xmlns="http://www.w3.org/2000/svg"
   xmlns:svg="http://www.w3.org/2000/svg"
   xmlns:rdf="http://www.w3.org/1999/02/22-rdf-syntax-ns#"
   xmlns:cc="http://creativecommons.org/ns#"
   xmlns:dc="http://purl.org/dc/elements/1.1/">
  <title
     id="title1589">heartlogo</title>
  <sodipodi:namedview
     id="namedview7"
     pagecolor="#ffffff"
     bordercolor="#999999"
     borderopacity="1"
     inkscape:pageshadow="0"
     inkscape:pageopacity="0"
     inkscape:pagecheckerboard="0"
     inkscape:document-units="px"
     showgrid="false"
     units="px"
     inkscape:zoom="0.29231767"
     inkscape:cx="241.17598"
     inkscape:cy="632.87314"
     inkscape:window-width="1920"
     inkscape:window-height="1009"
     inkscape:window-x="-8"
     inkscape:window-y="-8"
     inkscape:window-maximized="1"
     inkscape:current-layer="layer1"
     showborder="false"
     fit-margin-top="0"
     fit-margin-left="0"
     fit-margin-right="0"
     fit-margin-bottom="0" />
  <defs
     id="defs2">
    <inkscape:path-effect
       effect="skeletal"
       id="path-effect4836"
       is_visible="true"
       lpeversion="1"
       pattern="m 188.25996,-247.05869 c 5.8864,0.0333 11.33985,1.88279 15.42881,5.67116 10.06517,9.32524 7.93825,26.76357 -4.76866,39.09948 l -4.19143,4.06921 c -35.49799,34.46111 -35.49799,34.46111 -35.49799,34.46111 0,0 0,0 -36.49089,-33.51453 l -5.15889,-4.73837 c -13.06257,-11.99714 -15.69788,-29.3728 -5.90914,-38.95903 9.78874,-9.58623 28.18506,-7.64559 41.24763,4.35157 l 5.31838,4.88472 4.34625,-4.21949 c 7.54474,-7.32447 17.07272,-11.1547 25.67593,-11.10583 z"
       copytype="repeated_stretched"
       prop_scale="0.76"
       scale_y_rel="false"
       spacing="-3.2"
       normal_offset="0"
       tang_offset="-1.4"
       prop_units="false"
       vertical_pattern="false"
       hide_knot="false"
       fuse_tolerance="0" />
    <inkscape:path-effect
       effect="skeletal"
       id="path-effect4832"
       is_visible="true"
       lpeversion="1"
       pattern="m 214.33188,-271.25636 c 6.25505,0.0367 12.05003,2.07227 16.39507,6.2419 10.69551,10.26372 8.43539,29.45701 -5.06731,43.03439 l -4.45393,4.47873 c -37.7211,37.92923 -37.7211,37.92923 -37.7211,37.92923 0,0 0,0 -38.7762,-36.88738 l -5.48197,-5.21524 c -13.88063,-13.20451 -16.68098,-32.32884 -6.27921,-42.87981 10.40178,-10.55098 29.9502,-8.41503 43.83083,4.7895 l 5.65145,5.37632 4.61844,-4.64414 c 8.01725,-8.06159 18.14193,-12.27729 27.28393,-12.2235 z"
       copytype="repeated_stretched"
       prop_scale="0.76"
       scale_y_rel="false"
       spacing="-3.2"
       normal_offset="0"
       tang_offset="-1.4"
       prop_units="false"
       vertical_pattern="false"
       hide_knot="false"
       fuse_tolerance="0" />
    <inkscape:path-effect
       effect="skeletal"
       id="path-effect4828"
       is_visible="true"
       lpeversion="1"
       pattern="m 240.26921,-295.46147 c 6.62179,0.0401 12.75654,2.26233 17.35634,6.81437 11.3226,11.20504 8.92996,32.15862 -5.36442,46.98123 l -4.71507,4.88949 c -39.93273,41.40787 -39.93273,41.40787 -39.93273,41.40787 0,0 0,0 -41.0497,-40.27046 l -5.80338,-5.69355 c -14.69447,-14.41555 -17.65901,-35.29384 -6.64737,-46.81248 11.01165,-11.51865 31.70622,-9.1868 46.40069,5.22876 l 5.9828,5.8694 4.88922,-5.07007 c 8.48731,-8.80095 19.20562,-13.40328 28.88362,-13.34456 z"
       copytype="repeated_stretched"
       prop_scale="0.76"
       scale_y_rel="false"
       spacing="-3.2"
       normal_offset="0"
       tang_offset="-1.4"
       prop_units="false"
       vertical_pattern="false"
       hide_knot="false"
       fuse_tolerance="0" />
    <inkscape:path-effect
       effect="skeletal"
       id="path-effect4824"
       is_visible="true"
       lpeversion="1"
       pattern="m 240.26921,-295.3968 c 6.62179,0.0401 12.75654,2.26233 17.35634,6.81437 11.3226,11.20504 8.92996,32.15862 -5.36442,46.98123 l -4.71507,4.88949 c -39.93273,41.40787 -39.93273,41.40787 -39.93273,41.40787 0,0 0,0 -41.0497,-40.27046 l -5.80338,-5.69355 c -14.69447,-14.41555 -17.65901,-35.29384 -6.64737,-46.81248 11.01165,-11.51865 31.70622,-9.1868 46.40069,5.22876 l 5.9828,5.8694 4.88922,-5.07007 c 8.48731,-8.80095 19.20562,-13.40328 28.88362,-13.34456 z"
       copytype="repeated_stretched"
       prop_scale="0.76"
       scale_y_rel="false"
       spacing="-3.2"
       normal_offset="0"
       tang_offset="-1.4"
       prop_units="false"
       vertical_pattern="false"
       hide_knot="false"
       fuse_tolerance="0" />
    <inkscape:path-effect
       effect="skeletal"
       id="path-effect17443"
       is_visible="true"
       lpeversion="1"
       pattern="m -290.67879,-247.05869 c -5.8864,0.0333 -11.33985,1.88279 -15.42881,5.67116 -10.06517,9.32524 -7.93825,26.76357 4.76866,39.09948 l 4.19143,4.06921 c 35.49799,34.46111 35.49799,34.46111 35.49799,34.46111 0,0 0,0 36.49089,-33.51453 l 5.15889,-4.73837 c 13.06257,-11.99714 15.69788,-29.3728 5.90914,-38.95903 -9.78874,-9.58623 -28.18506,-7.64559 -41.24763,4.35157 l -5.31838,4.88472 -4.34625,-4.21949 c -7.54474,-7.32447 -17.07272,-11.1547 -25.67593,-11.10583 z"
       copytype="repeated_stretched"
       prop_scale="0.76"
       scale_y_rel="false"
       spacing="-3.2"
       normal_offset="0"
       tang_offset="-1.4"
       prop_units="false"
       vertical_pattern="false"
       hide_knot="false"
       fuse_tolerance="0" />
    <inkscape:path-effect
       effect="skeletal"
       id="path-effect17339"
       is_visible="true"
       lpeversion="1"
       pattern="m -316.75071,-271.25636 c -6.25505,0.0367 -12.05003,2.07227 -16.39507,6.2419 -10.69551,10.26372 -8.43539,29.45701 5.06731,43.03439 l 4.45393,4.47873 c 37.7211,37.92923 37.7211,37.92923 37.7211,37.92923 0,0 0,0 38.7762,-36.88738 l 5.48197,-5.21524 c 13.88063,-13.20451 16.68098,-32.32884 6.27921,-42.87981 -10.40178,-10.55098 -29.9502,-8.41503 -43.83083,4.7895 l -5.65145,5.37632 -4.61844,-4.64414 c -8.01725,-8.06159 -18.14193,-12.27729 -27.28393,-12.2235 z"
       copytype="repeated_stretched"
       prop_scale="0.76"
       scale_y_rel="false"
       spacing="-3.2"
       normal_offset="0"
       tang_offset="-1.4"
       prop_units="false"
       vertical_pattern="false"
       hide_knot="false"
       fuse_tolerance="0" />
    <inkscape:path-effect
       effect="skeletal"
       id="path-effect17315"
       is_visible="true"
       lpeversion="1"
       pattern="m -342.68804,-295.46147 c -6.62179,0.0401 -12.75654,2.26233 -17.35634,6.81437 -11.3226,11.20504 -8.92996,32.15862 5.36442,46.98123 l 4.71507,4.88949 c 39.93273,41.40787 39.93273,41.40787 39.93273,41.40787 0,0 0,0 41.0497,-40.27046 l 5.80338,-5.69355 c 14.69447,-14.41555 17.65901,-35.29384 6.64737,-46.81248 -11.01165,-11.51865 -31.70622,-9.1868 -46.40069,5.22876 l -5.9828,5.8694 -4.88922,-5.07007 c -8.48731,-8.80095 -19.20562,-13.40328 -28.88362,-13.34456 z"
       copytype="repeated_stretched"
       prop_scale="0.76"
       scale_y_rel="false"
       spacing="-3.2"
       normal_offset="0"
       tang_offset="-1.4"
       prop_units="false"
       vertical_pattern="false"
       hide_knot="false"
       fuse_tolerance="0" />
    <inkscape:path-effect
       effect="skeletal"
       id="path-effect17131"
       is_visible="true"
       lpeversion="1"
       pattern="m -271.41055,-235.96855 c -5.61424,0.0315 -10.81556,1.77131 -14.71547,5.33536 -9.59981,8.77304 -7.57121,25.17876 4.54819,36.7842 l 3.99765,3.82826 c 33.85674,32.42052 33.85674,32.42052 33.85674,32.42052 0,0 0,0 34.80376,-31.52998 l 4.92036,-4.45779 c 12.45862,-11.28674 14.9721,-27.63351 5.63594,-36.6521 -9.33617,-9.01859 -26.88194,-7.19285 -39.34056,4.09389 l -5.07249,4.59548 -4.14531,-3.96964 c -7.19591,-6.89075 -16.28337,-10.49417 -24.48881,-10.4482 z"
       copytype="repeated_stretched"
       prop_scale="0.76"
       scale_y_rel="false"
       spacing="-3.2"
       normal_offset="0"
       tang_offset="-1.4"
       prop_units="false"
       vertical_pattern="false"
       hide_knot="false"
       fuse_tolerance="0" />
    <inkscape:path-effect
       effect="skeletal"
       id="path-effect17107"
       is_visible="true"
       lpeversion="1"
       pattern="m -310.98866,-266.5221 c -6.17385,0.0357 -11.89361,2.01053 -16.18225,6.05592 -10.55668,9.95789 -8.32588,28.5793 5.00154,41.75212 l 4.39611,4.34529 c 37.23145,36.79909 37.23145,36.79909 37.23145,36.79909 0,0 0,0 38.27287,-35.78828 l 5.4108,-5.05984 c 13.70045,-12.81108 16.46446,-31.36557 6.19771,-41.60217 -10.26676,-10.2366 -29.56143,-8.16429 -43.26188,4.64679 l -5.57809,5.21613 -4.5585,-4.50577 c -7.91317,-7.82138 -17.90643,-11.91146 -26.92976,-11.85928 z"
       copytype="repeated_stretched"
       prop_scale="0.76"
       scale_y_rel="false"
       spacing="-3.2"
       normal_offset="0"
       tang_offset="-1.4"
       prop_units="false"
       vertical_pattern="false"
       hide_knot="false"
       fuse_tolerance="0" />
    <inkscape:path-effect
       effect="skeletal"
       id="path-effect9941"
       is_visible="true"
       lpeversion="1"
       pattern="m -114.09346,-379.03383 c -6.18606,0.0357 -11.91714,2.01044 -16.21428,6.05568 -10.57755,9.95752 -8.34235,28.57824 5.01145,41.75057 l 4.40481,4.34512 c 37.30512,36.79773 37.30512,36.79773 37.30512,36.79773 0,0 0,0 38.34859,-35.78695 l 5.4215,-5.05966 c 13.72757,-12.8106 16.49704,-31.36439 6.20998,-41.60061 -10.28707,-10.23621 -29.61992,-8.16399 -43.34748,4.64662 l -5.58913,5.21593 -4.56751,-4.5056 c -7.92883,-7.82109 -17.94187,-11.91102 -26.98305,-11.85883 z"
       copytype="repeated_stretched"
       prop_scale="0.76"
       scale_y_rel="false"
       spacing="-3.2"
       normal_offset="0"
       tang_offset="-1.4"
       prop_units="false"
       vertical_pattern="false"
       hide_knot="false"
       fuse_tolerance="0" />
    <inkscape:path-effect
       effect="skeletal"
       id="path-effect1790"
       is_visible="true"
       lpeversion="1"
       pattern="m -342.68804,-295.3968 c -6.62179,0.0401 -12.75654,2.26233 -17.35634,6.81437 -11.3226,11.20504 -8.92996,32.15862 5.36442,46.98123 l 4.71507,4.88949 c 39.93273,41.40787 39.93273,41.40787 39.93273,41.40787 0,0 0,0 41.0497,-40.27046 l 5.80338,-5.69355 c 14.69447,-14.41555 17.65901,-35.29384 6.64737,-46.81248 -11.01165,-11.51865 -31.70622,-9.1868 -46.40069,5.22876 l -5.9828,5.8694 -4.88922,-5.07007 c -8.48731,-8.80095 -19.20562,-13.40328 -28.88362,-13.34456 z"
       copytype="repeated_stretched"
       prop_scale="0.76"
       scale_y_rel="false"
       spacing="-3.2"
       normal_offset="0"
       tang_offset="-1.4"
       prop_units="false"
       vertical_pattern="false"
       hide_knot="false"
       fuse_tolerance="0" />
    <inkscape:path-effect
       effect="skeletal"
       id="path-effect2146"
       is_visible="true"
       lpeversion="1"
       pattern="m -703.47005,-495.87606 c -6.72957,0.0403 -12.96418,2.26963 -17.63885,6.83635 -11.5069,11.24118 -9.07531,32.26236 5.45174,47.13279 l 4.79181,4.90527 c 40.58273,41.54145 40.58273,41.54145 40.58273,41.54145 0,0 0,0 41.71788,-40.40038 l 5.89784,-5.71191 c 14.93365,-14.46206 17.94645,-35.4077 6.75557,-46.9635 -11.19089,-11.55581 -32.22231,-9.21644 -47.15596,5.24563 l -6.08019,5.88833 -4.96881,-5.08643 c -8.62545,-8.82933 -19.51823,-13.44651 -29.35376,-13.3876 z"
       copytype="repeated_stretched"
       prop_scale="0.76"
       scale_y_rel="false"
       spacing="-3.2"
       normal_offset="0"
       tang_offset="-1.4"
       prop_units="false"
       vertical_pattern="false"
       hide_knot="false"
       fuse_tolerance="0" />
    <inkscape:path-effect
       effect="skeletal"
       id="path-effect1533"
       is_visible="true"
       lpeversion="1"
       pattern="m 500.96091,-686.38386 c 2.2323,-2.55486 3.07198,-5.67121 2.07913,-8.99762 -2.44406,-8.18808 -15.0392,-14.45648 -28.24029,-14.05482 l -4.35454,0.13241 c -36.87818,1.12223 -36.87818,1.12223 -36.87818,1.12223 0,0 0,0 8.66226,29.56455 l 1.22481,4.17978 c 3.10082,10.58316 13.82942,18.88154 24.05509,18.60646 10.22569,-0.27509 15.96169,-9.01636 12.86086,-19.59953 l -1.26258,-4.30895 4.51537,-0.13731 c 7.83815,-0.23849 14.0755,-2.77313 17.33807,-6.5072 z"
       copytype="repeated_stretched"
       prop_scale="0.76"
       scale_y_rel="false"
       spacing="-3.2"
       normal_offset="0"
       tang_offset="-1.4"
       prop_units="false"
       vertical_pattern="false"
       hide_knot="false"
       fuse_tolerance="0" />
    <inkscape:path-effect
       effect="skeletal"
       id="path-effect1349"
       is_visible="true"
       lpeversion="1"
       pattern="m 4555.1686,-123.33042 c -8.6866,0.0524 -16.734,2.94687 -22.7681,8.87634 -14.853,14.595563 -11.7143,41.889522 7.0371,61.197345 l 6.1852,6.369017 c 52.3836,53.9375445 52.3836,53.9375445 52.3836,53.9375445 0,0 0,0 53.8488,-52.4559695 l 7.6129,-7.416376 c 19.2762,-18.777573 23.1652,-45.973451 8.7201,-60.977541 -14.4452,-15.00413 -41.592,-11.96666 -60.8683,6.81094 l -7.8482,7.645439 -6.4136,-6.604249 c -11.1339,-11.46403 -25.1942,-17.45901 -37.8895,-17.38249 z"
       copytype="repeated_stretched"
       prop_scale="0.76"
       scale_y_rel="false"
       spacing="-3.2"
       normal_offset="0"
       tang_offset="-1.4"
       prop_units="false"
       vertical_pattern="false"
       hide_knot="false"
       fuse_tolerance="0" />
    <inkscape:path-effect
       effect="skeletal"
       id="path-effect1245"
       is_visible="true"
       lpeversion="1"
       pattern="m 8.4250533,-364.21715 c -9.13360489,0.0403 -17.5954221,2.26963 -23.9400433,6.83635 -15.617549,11.24118 -12.317315,32.26236 7.3992873,47.13279 l 6.5036093,4.90527 c 55.0802284,41.54145 55.0802284,41.54145 55.0802284,41.54145 0,0 0,0 56.620895,-40.40038 l 8.00476,-5.71191 c 20.26845,-14.46206 24.35752,-35.4077 9.16888,-46.9635 -15.18864,-11.55581 -43.73319,-9.21644 -64.001643,5.24563 l -8.252233,5.88833 -6.743845,-5.08643 c -11.706748,-8.82933 -26.490783,-13.44651 -39.8398957,-13.3876 z"
       copytype="repeated_stretched"
       prop_scale="0.76"
       scale_y_rel="false"
       spacing="-3.2"
       normal_offset="0"
       tang_offset="-1.4"
       prop_units="false"
       vertical_pattern="false"
       hide_knot="false"
       fuse_tolerance="0" />
    <inkscape:path-effect
       effect="skeletal"
       id="path-effect1141"
       is_visible="true"
       lpeversion="1"
       pattern="m -387.98591,-229.43072 c -6.72957,0.026 -12.96418,1.46523 -17.63885,4.41343 -11.5069,7.25713 -9.07531,20.82807 5.45174,30.42819 l 4.79181,3.16677 c 40.58273,26.8185 40.58273,26.8185 40.58273,26.8185 0,0 0,0 41.71788,-26.08185 l 5.89784,-3.68752 c 14.93365,-9.33648 17.94645,-22.85865 6.75557,-30.31889 -11.19089,-7.46025 -32.22231,-5.94999 -47.15596,3.3865 l -6.08019,3.80141 -4.96881,-3.28373 c -8.62545,-5.70007 -19.51823,-8.68085 -29.35376,-8.64281 z"
       copytype="repeated_stretched"
       prop_scale="0.76"
       scale_y_rel="false"
       spacing="-3.2"
       normal_offset="0"
       tang_offset="-1.4"
       prop_units="false"
       vertical_pattern="false"
       hide_knot="false"
       fuse_tolerance="0" />
    <inkscape:path-effect
       effect="skeletal"
       id="path-effect1037"
       is_visible="true"
       lpeversion="1"
       pattern="m -270.96753,-284.68248 c -5.1976,0.034 -10.0129,1.91653 -13.6234,5.77277 -8.88738,9.49231 -7.00933,27.24307 4.21067,39.8 l 3.70095,4.14212 c 31.34416,35.07855 31.34416,35.07855 31.34416,35.07855 0,0 0,0 32.22088,-34.115 l 4.55521,-4.82326 c 11.53403,-12.2121 13.86098,-29.89908 5.21768,-39.65706 -8.6433,-9.75798 -24.88697,-7.78256 -36.421,4.42953 l -4.69605,4.97224 -3.83766,-4.29509 c -6.66188,-7.45569 -15.07495,-11.35454 -22.67144,-11.3048 z"
       copytype="repeated_stretched"
       prop_scale="0.76"
       scale_y_rel="false"
       spacing="-3.2"
       normal_offset="0"
       tang_offset="-1.4"
       prop_units="false"
       vertical_pattern="false"
       hide_knot="false"
       fuse_tolerance="0" />
    <inkscape:path-effect
       effect="skeletal"
       id="path-effect1902"
       is_visible="true"
       lpeversion="1"
       pattern="m -831.05857,-535.75623 c -6.72957,0.0403 -12.96418,2.26963 -17.63885,6.83635 -11.5069,11.24118 -9.07531,32.26236 5.45174,47.13279 l 4.79181,4.90527 c 40.58273,41.54145 40.58273,41.54145 40.58273,41.54145 0,0 0,0 41.71788,-40.40038 l 5.89784,-5.71191 c 14.93365,-14.46206 17.94645,-35.4077 6.75557,-46.9635 -11.19089,-11.55581 -32.22231,-9.21644 -47.15596,5.24563 l -6.08019,5.88833 -4.96881,-5.08643 c -8.62545,-8.82933 -19.51823,-13.44651 -29.35376,-13.3876 z"
       copytype="repeated_stretched"
       prop_scale="0.76"
       scale_y_rel="false"
       spacing="-3.2"
       normal_offset="0"
       tang_offset="-1.4"
       prop_units="false"
       vertical_pattern="false"
       hide_knot="false"
       fuse_tolerance="0" />
    <filter
       style="color-interpolation-filters:sRGB"
       height="1"
       width="1"
       y="0"
       x="0"
       inkscape:label="Greyscale"
       id="filter3863">
      <feColorMatrix
         values="0.618 0.32 0.062 0 0 0.163 0.775 0.062 0 0 0.163 0.32 0.516 0 0 0 0 0 1 0 "
         type="matrix"
         result="fbSourceGraphic"
         id="feColorMatrix3861" />
      <feColorMatrix
         result="fbSourceGraphicAlpha"
         in="fbSourceGraphic"
         values="0 0 0 -1 0 0 0 0 -1 0 0 0 0 -1 0 0 0 0 1 0"
         id="feColorMatrix3883" />
      <feColorMatrix
         id="feColorMatrix3885"
         values="0.299 0.587 0.114 0 0 0.299 0.587 0.114 0 0 0.299 0.587 0.114 0 0 0 0 0 1 0 "
         type="matrix"
         result="fbSourceGraphic"
         in="fbSourceGraphic" />
      <feColorMatrix
         result="fbSourceGraphicAlpha"
         in="fbSourceGraphic"
         values="0 0 0 -1 0 0 0 0 -1 0 0 0 0 -1 0 0 0 0 1 0"
         id="feColorMatrix3905" />
      <feColorMatrix
         id="feColorMatrix3907"
         values="0.625 0.375 0 0 0 0.7 0.3 0 0 0 0 0.3 0.7 0 0 0 0 0 1 0 "
         type="matrix"
         result="fbSourceGraphic"
         in="fbSourceGraphic" />
      <feColorMatrix
         result="fbSourceGraphicAlpha"
         in="fbSourceGraphic"
         values="0 0 0 -1 0 0 0 0 -1 0 0 0 0 -1 0 0 0 0 1 0"
         id="feColorMatrix3927" />
      <feColorMatrix
         id="feColorMatrix3929"
         values="0.966 0.033 0 0 0 0 0.733 0.266 0 0 0 0.1833 0.816 0 0 0 0 0 1 0 "
         type="matrix"
         result="fbSourceGraphic"
         in="fbSourceGraphic" />
      <feColorMatrix
         result="fbSourceGraphicAlpha"
         in="fbSourceGraphic"
         values="0 0 0 -1 0 0 0 0 -1 0 0 0 0 -1 0 0 0 0 1 0"
         id="feColorMatrix3949" />
      <feColorMatrix
         id="feColorMatrix3951"
         values="0.95 0.05 0 0 0 0.2583 0.4333 0.5667 0 0 0 0.475 0.525 0 0 0 0 0 1 0 "
         type="matrix"
         result="fbSourceGraphic"
         in="fbSourceGraphic" />
      <feColorMatrix
         result="fbSourceGraphicAlpha"
         in="fbSourceGraphic"
         values="0 0 0 -1 0 0 0 0 -1 0 0 0 0 -1 0 0 0 0 1 0"
         id="feColorMatrix3971" />
      <feColorMatrix
         id="feColorMatrix3973"
         values="0.299 0.587 0.114 0 0 0.299 0.587 0.114 0 0 0.299 0.587 0.114 0 0 0 0 0 1 0 "
         type="matrix"
         result="fbSourceGraphic"
         in="fbSourceGraphic" />
      <feColorMatrix
         result="fbSourceGraphicAlpha"
         in="fbSourceGraphic"
         values="0 0 0 -1 0 0 0 0 -1 0 0 0 0 -1 0 0 0 0 1 0"
         id="feColorMatrix2441" />
      <feComposite
         in2="fbSourceGraphic"
         id="feComposite2443"
         operator="arithmetic"
         k1="0"
         k2="1"
         result="composite1"
         in="fbSourceGraphic"
         k3="0"
         k4="0" />
      <feColorMatrix
         id="feColorMatrix2445"
         in="composite1"
         values="1"
         type="saturate"
         result="colormatrix1" />
      <feFlood
         id="feFlood2447"
         flood-opacity="1"
         flood-color="rgb(158,67,0)"
         result="flood1" />
      <feBlend
         in2="colormatrix1"
         id="feBlend2449"
         in="flood1"
         mode="multiply"
         result="blend1" />
      <feBlend
         in2="blend1"
         id="feBlend2451"
         mode="screen"
         result="blend2" />
      <feColorMatrix
         id="feColorMatrix2453"
         in="blend2"
         values="1"
         type="saturate"
         result="colormatrix2" />
      <feComposite
         in2="fbSourceGraphic"
         id="feComposite2455"
         in="colormatrix2"
         operator="in"
         result="fbSourceGraphic" />
      <feColorMatrix
         result="fbSourceGraphicAlpha"
         in="fbSourceGraphic"
         values="0 0 0 -1 0 0 0 0 -1 0 0 0 0 -1 0 0 0 0 1 0"
         id="feColorMatrix2799" />
      <feColorMatrix
         id="feColorMatrix2801"
         type="hueRotate"
         values="330"
         result="color1"
         in="fbSourceGraphic" />
      <feColorMatrix
         id="feColorMatrix2803"
         type="saturate"
         values="0.6"
         result="fbSourceGraphic" />
      <feColorMatrix
         result="fbSourceGraphicAlpha"
         in="fbSourceGraphic"
         values="0 0 0 -1 0 0 0 0 -1 0 0 0 0 -1 0 0 0 0 1 0"
         id="feColorMatrix3039" />
      <feColorMatrix
         id="feColorMatrix3041"
         values="0.21 0.72 0.072 0 0 0.21 0.72 0.072 0 0 0.21 0.72 0.072 0 0 0 0 0 1 0 "
         in="fbSourceGraphic" />
    </filter>
  </defs>
  <g
     inkscape:label="Layer 1"
     inkscape:groupmode="layer"
     id="layer1"
     transform="translate(33.114703,164.32655)">
    <g
       id="g4856">
      <path
         id="path1786"
         style="fill:#06bef9;fill-opacity:1;stroke-width:0"
         d="m -31.474134,-42.662093 c -2.177767,9.592995 -1.637594,18.820373 1.368639,25.710163 3.711775,8.5067744 10.043056,11.2513853 16.431336,10.0532383 6.4680367,-1.2131057 13.2453265,-6.3310153 19.7333047,-13.4790513 1.4360379,-1.582078 2.9029678,-3.107099 4.3971113,-4.574806 9.179912,-9.017911 17.896857,-14.405678 23.471737,-17.406855 5.683045,-3.059407 10.346143,-4.826336 12.730945,-5.67615 5.338223,-1.902251 5.380202,-1.719405 5.380202,-1.719405 0,0 -0.09621,0.02884 -0.882523,-4.06203 -0.383948,-1.99752 -2.993696,-14.499548 -0.564347,-30.797146 2e-6,10e-7 1e-6,-6e-6 1e-6,-6e-6 0.573909,-3.944087 1.491119,-8.433798 2.936612,-13.366771 0.706733,-2.412088 1.510385,-4.829728 2.410525,-7.246038 3.40257,-9.13303 4.921211,-17.54958 3.163034,-23.93618 -1.731234,-6.28873 -6.868915,-10.76989 -15.94826,-10.28532 -9.635647,0.51426 -20.947168,6.65664 -29.890051,16.90544 -7.9040529,9.19384 -12.96668765,20.54097 -13.93879453,31.583836 -0.27565313,3.131744 -0.44369887,6.235281 -0.50890767,9.305212 -2.2140917,1.2554 -4.4145881,2.582274 -6.5973887,3.980337 -11.6423501,7.457052 -20.4558331,20.750743 -23.6931751,35.011532 z M 77.601707,-161.45991 c -9.408831,3.00492 -17.05546,8.16783 -21.428083,14.2534 -5.394861,7.50828 -4.530468,14.35961 -0.269403,19.25189 4.322006,4.96225 12.147835,8.20003 21.619583,10.14496 2.093909,0.43 4.154529,0.9151 6.178946,1.45276 12.490925,3.3171 21.41938,8.0507 26.78997,11.37833 5.45464,3.37971 9.18294,6.529797 11.06495,8.198212 4.17808,3.70388 4.01903,3.848649 4.01903,3.848649 0,0 -0.0144,-0.01307 1.23986,-1.17763 0.74671,-0.706107 4.10667,-3.91118 9.26863,-7.420401 4.99181,-3.39356 15.66689,-9.86936 32.05464,-13.66676 2.45272,-0.56842 4.95587,-1.05868 7.50403,-1.46652 9.62169,-1.53973 17.69994,-4.39553 22.37549,-9.07239 4.61355,-4.61485 5.9618,-11.29253 1.07032,-18.95066 -4.90317,-7.67642 -14.87983,-14.16679 -27.11989,-17.13636 -12.28685,-2.98091 -25.61253,-2.11245 -36.49146,2.71674 -2.66504,1.18306 -5.2674,2.43747 -7.80249,3.75961 -0.22457,0.11858 -0.44852,0.23767 -0.67186,0.35726 -2.22006,-1.29803 -4.49796,-2.54389 -6.83046,-3.73474 -12.45571,-6.35898 -28.59072,-7.20161 -42.571803,-2.73635 z m 157.735543,35.98548 c -7.32122,-6.78017 -15.62182,-10.90903 -23.07772,-11.71584 -9.1959,-0.99509 -14.72331,3.15102 -16.87024,9.27059 -2.18192,6.21929 -1.12109,14.60719 1.8594,23.80882 0.65822,2.03224 1.25059,4.06251 1.77706,6.086943 1.62242,6.238083 2.45078,11.771857 2.84206,16.420756 0,0 0,7e-6 0,7e-6 1.30666,14.882199 -1.39142,26.131593 -1.81065,27.996098 -0.8367,3.72122 -0.91648,3.694855 -0.91648,3.694855 0,0 0.0473,-0.185027 5.3354,1.860469 2.3638,0.914337 6.98157,2.808837 12.5898,6.039646 5.49975,3.168314 14.08558,8.83082 23.01954,18.170461 1.74083,1.819775 3.4396,3.721315 5.08979,5.70385 5.4044,6.493197 11.06257,11.4948387 16.64498,13.7940166 4.07545,1.6799288 8.1427,1.9146753 11.8387,0.1480363 2.89276,-1.3852336 5.54795,-4.0140798 7.56989,-8.0430539 4.09929,-8.168361 4.57966,-20.078069 0.94451,-32.053482 -3.65055,-12.026136 -11.07657,-22.915814 -20.63128,-29.780635 -2.54996,-1.83204 -5.13165,-3.562271 -7.73792,-5.189848 0.0538,-2.543092 0.0377,-5.112608 -0.0509,-7.705607 -0.37921,-11.087974 -4.98358,-22.753882 -12.65558,-32.347292 -1.80144,-2.21949 -3.73275,-4.28106 -5.76036,-6.15879 z m 47.78979,154.173904 c 2.07168,-9.619445 1.42935,-18.8446998 -1.65403,-25.7035784 -1.40924,-3.13481792 -3.20772,-5.5076545 -5.2148,-7.1591154 -5.18932,-4.2560248 -11.55634,-3.7015817 -17.78767,-0.2224239 -4.39258,2.4502681 -8.81607,6.3664641 -13.12241,11.2199084 -1.41803,1.598132 -2.86764,3.1394207 -4.34515,4.6236013 -9.07652,9.117945 -17.73606,14.601154 -23.27674,17.662652 -5.64879,3.121234 -10.29417,4.940707 -12.66933,5.817127 -5.31818,1.962371 -5.36212,1.780455 -5.36212,1.780455 0,0 0.10219,-0.03176 0.95387,4.18743 0.4125,2.043524 3.24576,14.978124 0.71053,31.875613 0,-10e-7 0,6e-6 0,6e-6 -0.53472,3.645792 -1.3581,7.734494 -2.60767,12.191426 -0.67842,2.420028 -1.45395,4.84669 -2.32617,7.273103 -3.29714,9.171512 -4.72109,17.603892 -2.89075,23.970602 1.80212,6.26853 6.99018,10.69158 16.06495,10.10247 9.26365,-0.60137 20.04582,-6.434 28.73563,-16.14421 8.32881,-9.44548 13.64864,-21.317946 14.53167,-32.840534 0.24013,-3.133891 0.37319,-6.238569 0.40396,-9.308646 2.19983,-1.27956 4.38532,-2.630407 6.55234,-4.052246 11.558,-7.583727 20.22416,-20.973172 23.30389,-35.27364 z M 175.40261,148.72134 c 9.37221,-3.11115 16.96001,-8.36045 21.26411,-14.49571 5.31043,-7.56972 4.36883,-14.41073 0.0524,-19.25425 -4.37781,-4.91244 -12.24038,-8.06148 -21.73308,-9.89943 -2.09864,-0.40637 -4.16464,-0.86822 -6.19508,-1.38302 -12.52602,-3.17555 -21.51403,-7.808169 -26.9238,-11.07153 -5.49545,-3.315052 -9.26511,-6.419865 -11.16812,-8.064204 -4.22577,-3.651365 -4.06926,-3.797247 -4.06926,-3.797247 0,0 0.0375,0.03404 -1.99905,1.91688 -1.17828,1.109049 -4.66101,4.348699 -10.00121,7.889226 -5.2073,3.452419 -15.277413,9.290839 -30.283664,12.947285 -2.445984,0.59607 -4.943357,1.11449 -7.48671,1.55102 -9.604036,1.64811 -17.648911,4.59482 -22.271447,9.32481 -4.560885,4.6669 -5.833805,11.35955 -0.856786,18.96106 4.988947,7.61972 15.038655,13.99695 27.315322,16.82799 12.323379,2.84182 25.645515,1.82257 36.473375,-3.13308 2.17656,-0.99619 4.31035,-2.04008 6.39881,-3.12967 0.68214,-0.36043 1.35867,-0.72556 2.02958,-1.09525 2.23396,1.27171 4.52509,2.49078 6.87012,3.65439 12.52232,6.21333 28.65745,6.87397 42.58446,2.25073 z M 17.278143,114.5573 c 7.39364,6.69149 15.737498,10.72343 23.200847,11.44443 9.205168,0.88927 14.685344,-3.31875 16.763145,-9.46238 2.111466,-6.24316 0.956566,-14.61927 -2.129258,-23.786215 -0.68151,-2.024654 -1.297267,-4.048075 -1.847219,-6.066398 -1.842427,-6.761089 -2.74123,-12.709848 -3.146732,-17.613685 0,0 10e-7,-7e-6 10e-7,-7e-6 -1.235363,-14.280277 1.247578,-25.101286 1.63751,-26.913867 0.772355,-3.590251 0.846742,-3.566494 0.846742,-3.566494 0,0 -0.04529,0.18609 -5.354309,-1.798893 C 44.875027,35.906238 40.238861,34.0646 34.595361,30.895497 29.060367,27.787326 20.415733,22.219858 11.376323,12.977959 9.615192,11.177477 7.8951346,9.2948843 6.2226737,7.3309401 -0.1291564,-0.12831335 -6.7266417,-5.5195295 -13.147921,-7.1023479 c -6.34637,-1.5643536 -12.746542,0.7510812 -16.74623,8.945355 -4.007337,8.2099469 -4.356185,20.1186899 -0.589087,32.0506149 3.783001,11.982294 11.329065,22.790323 20.9600786,29.550547 2.5702951,1.804104 5.1712372,3.506062 7.7956801,5.105044 -0.025182,2.543905 0.019817,5.113565 0.1378534,7.706033 0.4837386,10.621018 4.8564132,21.755144 12.1103049,31.065314 2.085565,2.63719 4.356007,5.06337 6.757464,7.23674 z"
         inkscape:original-d="M 2.3733093,-7.9645609 A 123.26677,124.87039 0 0 1 127.33344,-130.94554 123.26677,124.87039 0 0 1 248.88302,-4.5055297 123.26677,124.87039 0 0 1 124.21083,118.775 123.26677,124.87039 0 0 1 2.3659098,-7.3729695"
         inkscape:path-effect="#path-effect1790" />
      <path
         id="path17311"
         style="fill:#06bef9;fill-opacity:1;stroke-width:0"
         d="m -31.474135,-42.726763 c -2.177766,9.592996 -1.637594,18.820373 1.36864,25.710163 3.711775,8.506775 10.043056,11.2513859 16.431336,10.0532388 6.4680367,-1.2131056 13.24532648,-6.3310158 19.7333047,-13.4790508 1.4360379,-1.582079 2.9029677,-3.1071 4.3971113,-4.574807 9.179912,-9.01791 17.896857,-14.405677 23.471736,-17.406854 5.683046,-3.059408 10.346144,-4.826337 12.730946,-5.67615 5.338223,-1.902252 5.380202,-1.719406 5.380202,-1.719406 0,0 -0.09621,0.02884 -0.882524,-4.062029 -0.383947,-1.997521 -2.993696,-14.499549 -0.564346,-30.797147 1e-6,10e-7 1e-6,-6e-6 1e-6,-6e-6 0.573909,-3.944087 1.491119,-8.433797 2.936611,-13.366771 0.706733,-2.412088 1.510386,-4.829728 2.410526,-7.246038 3.40257,-9.13303 4.921211,-17.54958 3.163033,-23.93618 -1.731234,-6.28873 -6.868914,-10.76989 -15.948259,-10.28532 -9.635648,0.51426 -20.947168,6.65664 -29.890051,16.90544 -7.9040532,9.19384 -12.96668801,20.54097 -13.93879486,31.583837 -0.27565312,3.131744 -0.44369884,6.23528 -0.50890764,9.305212 -2.2140917,1.2554 -4.4145881,2.582274 -6.5973886,3.980336 -11.6423499,7.457053 -20.4558339,20.750743 -23.6931759,35.011532 z M 77.601707,-161.52458 c -9.408832,3.00492 -17.055461,8.16783 -21.428084,14.2534 -5.39486,7.50828 -4.530468,14.35961 -0.269402,19.25189 4.322005,4.96225 12.147835,8.20003 21.619583,10.14496 2.093908,0.43 4.154529,0.9151 6.178946,1.45276 12.490924,3.3171 21.41938,8.0507 26.78997,11.37833 5.45464,3.37971 9.18294,6.529797 11.06495,8.198212 4.17808,3.70388 4.01903,3.848649 4.01903,3.848649 0,0 -0.0144,-0.01307 1.23986,-1.17763 0.74671,-0.706107 4.10667,-3.911181 9.26863,-7.420401 4.99181,-3.39356 15.66689,-9.86936 32.05464,-13.66676 2.45272,-0.56842 4.95587,-1.05868 7.50403,-1.46652 9.62169,-1.53973 17.69994,-4.39553 22.37549,-9.07239 4.61355,-4.61485 5.9618,-11.29253 1.07032,-18.95066 -4.90317,-7.67642 -14.87983,-14.16679 -27.11989,-17.13636 -12.28685,-2.98091 -25.61253,-2.11245 -36.49146,2.71674 -2.66504,1.18306 -5.2674,2.43747 -7.80249,3.75961 -0.22457,0.11858 -0.44852,0.23766 -0.67186,0.35726 -2.22006,-1.29803 -4.49796,-2.54389 -6.83046,-3.73474 -12.45571,-6.35898 -28.590721,-7.20161 -42.571803,-2.73635 z m 157.735543,35.98547 c -7.32122,-6.78016 -15.62182,-10.90902 -23.07772,-11.71583 -9.1959,-0.99509 -14.72331,3.15102 -16.87024,9.27059 -2.18192,6.21929 -1.12109,14.60719 1.8594,23.80882 0.65822,2.03224 1.25059,4.06251 1.77706,6.086943 1.62242,6.238083 2.45078,11.771857 2.84206,16.420757 0,0 0,6e-6 0,6e-6 1.30666,14.882199 -1.39142,26.131593 -1.81065,27.996098 -0.8367,3.72122 -0.91648,3.694854 -0.91648,3.694854 0,0 0.0473,-0.185026 5.3354,1.86047 2.3638,0.914336 6.98157,2.808837 12.5898,6.039646 5.49975,3.168314 14.08558,8.83082 23.01954,18.17046 1.74083,1.819775 3.4396,3.721316 5.08979,5.703851 5.4044,6.493197 11.06258,11.4948398 16.64498,13.7940172 4.07546,1.6799273 8.14269,1.9146736 11.8387,0.1480363 2.89275,-1.3852333 5.54795,-4.0140799 7.56989,-8.0430545 4.09929,-8.168362 4.57966,-20.078069 0.94451,-32.053483 -3.65055,-12.026135 -11.07657,-22.915814 -20.63128,-29.780634 -2.54996,-1.83204 -5.13165,-3.562271 -7.73792,-5.189848 0.0538,-2.543092 0.0377,-5.112609 -0.0509,-7.705608 -0.37921,-11.087973 -4.98358,-22.753881 -12.65558,-32.347291 -1.80144,-2.21949 -3.73275,-4.28106 -5.76036,-6.1588 z m 47.78979,154.173914 c 2.07168,-9.619445 1.42935,-18.8447004 -1.65403,-25.703579 -1.40924,-3.13481716 -3.20772,-5.5076533 -5.2148,-7.1591142 -5.18932,-4.2560265 -11.55634,-3.7015831 -17.78767,-0.2224239 -4.39258,2.4502681 -8.81607,6.3664637 -13.12241,11.2199073 -1.41803,1.598132 -2.86764,3.1394207 -4.34515,4.6236008 -9.07652,9.117946 -17.73606,14.601155 -23.27674,17.662652 -5.64879,3.121234 -10.29417,4.940708 -12.66933,5.817128 -5.31818,1.962371 -5.36212,1.780455 -5.36212,1.780455 0,0 0.10219,-0.03176 0.95387,4.18743 0.4125,2.043523 3.24576,14.978124 0.71053,31.875614 0,-2e-6 0,6e-6 0,6e-6 -0.53472,3.645791 -1.3581,7.734493 -2.60767,12.191425 -0.67842,2.420028 -1.45395,4.84669 -2.32617,7.273103 -3.29714,9.171512 -4.72109,17.603892 -2.89075,23.970602 1.80212,6.26853 6.99018,10.69157 16.06495,10.10247 9.26365,-0.60137 20.04582,-6.434 28.73563,-16.14421 8.32881,-9.44548 13.64864,-21.317946 14.53167,-32.840534 0.24013,-3.133892 0.37319,-6.238569 0.40396,-9.308646 2.19983,-1.27956 4.38532,-2.630407 6.55234,-4.052246 11.558,-7.583727 20.22416,-20.973172 23.30389,-35.27364 z M 175.40261,148.65667 c 9.37221,-3.11115 16.96001,-8.36045 21.26411,-14.49571 5.31043,-7.56972 4.36884,-14.41073 0.0524,-19.25425 -4.37782,-4.91244 -12.24039,-8.06148 -21.73309,-9.89943 -2.09864,-0.40637 -4.16464,-0.86822 -6.19508,-1.38302 -12.52602,-3.17555 -21.51403,-7.808169 -26.9238,-11.07153 -5.49545,-3.315052 -9.26511,-6.419865 -11.16812,-8.064204 -4.22577,-3.651365 -4.06926,-3.797247 -4.06926,-3.797247 0,0 0.0375,0.03404 -1.99905,1.91688 -1.17828,1.10905 -4.66101,4.348699 -10.00121,7.889226 -5.2073,3.45242 -15.277413,9.290839 -30.283664,12.947285 -2.445984,0.59607 -4.943357,1.11449 -7.48671,1.55102 -9.604035,1.64811 -17.648911,4.59482 -22.271446,9.32481 -4.560886,4.6669 -5.833805,11.35955 -0.856786,18.96106 4.988947,7.61972 15.038654,13.99695 27.315321,16.82799 12.32338,2.84182 25.645515,1.82257 36.473375,-3.13308 2.17656,-0.99619 4.31035,-2.04008 6.39881,-3.12967 0.68214,-0.36043 1.35867,-0.72556 2.02958,-1.09525 2.23396,1.27171 4.52509,2.49078 6.87012,3.65439 12.52232,6.21333 28.65745,6.87397 42.58446,2.25073 z M 17.278143,114.49263 c 7.39364,6.69149 15.737499,10.72343 23.200848,11.44443 9.205167,0.88927 14.685344,-3.31875 16.763144,-9.46238 2.111466,-6.24316 0.956567,-14.61927 -2.129257,-23.786215 -0.681511,-2.024654 -1.297268,-4.048074 -1.847219,-6.066398 -1.842428,-6.761089 -2.74123,-12.709848 -3.146733,-17.613685 0,0 10e-7,-7e-6 10e-7,-7e-6 -1.235363,-14.280277 1.247578,-25.101286 1.63751,-26.913867 0.772356,-3.590251 0.846742,-3.566493 0.846742,-3.566493 0,0 -0.04529,0.186089 -5.354309,-1.798893 C 44.875027,35.841568 40.238861,33.99993 34.595361,30.830827 29.060367,27.722656 20.415733,22.155188 11.376323,12.913289 9.615192,11.112807 7.8951347,9.2302148 6.2226737,7.2662706 -0.12915637,-0.19298284 -6.7266417,-5.5841989 -13.147921,-7.1670174 c -6.34637,-1.5643535 -12.746542,0.7510813 -16.74623,8.9453552 -4.007337,8.2099464 -4.356185,20.1186892 -0.589087,32.0506142 3.783001,11.982295 11.329065,22.790324 20.9600789,29.550547 2.5702951,1.804105 5.1712372,3.506063 7.7956801,5.105044 -0.025182,2.543906 0.019817,5.113566 0.1378534,7.706033 0.4837387,10.621018 4.8564132,21.755144 12.1103046,31.065314 2.085565,2.63719 4.356007,5.06337 6.757464,7.23674 z"
         inkscape:original-d="M 2.3733093,-8.0292304 A 123.26677,124.87039 0 0 1 127.33344,-131.01021 123.26677,124.87039 0 0 1 248.88302,-4.5701992 123.26677,124.87039 0 0 1 124.21083,118.71033 123.26677,124.87039 0 0 1 2.3659098,-7.437639"
         inkscape:path-effect="#path-effect17315" />
      <path
         id="path17335"
         style="fill:#38cbfa;fill-opacity:1;stroke-width:0"
         d="m -21.529882,-40.362386 c -2.125516,8.963238 -1.709865,17.611811 1.008395,24.077784 3.357132,7.9856814 9.169773,10.5445472 15.0190938,9.4177403 5.92718706,-1.1418069 12.1312316,-5.9307123 18.1142652,-12.5579653 1.324759,-1.46735 2.679366,-2.879625 4.060231,-4.236808 8.475373,-8.330415 16.587506,-13.252713 21.749135,-15.971008 5.269448,-2.775076 9.604817,-4.359961 11.812582,-5.117461 4.95201,-1.699071 4.989418,-1.528046 4.989418,-1.528046 0,0 -0.08603,0.02371 -0.693065,-3.664512 -0.298794,-1.815406 -2.328184,-13.068376 0.153079,-27.665022 10e-7,1e-6 10e-7,-5e-6 10e-7,-5e-6 0.651498,-3.880653 1.677872,-8.345599 3.289682,-13.2756 0.724294,-2.215584 1.536857,-4.433301 2.436871,-6.647209 3.403717,-8.372042 5.007049,-16.075022 3.523858,-21.966262 -1.459511,-5.79719 -6.112683,-9.97191 -14.488996,-9.65826 -9.183173,0.34386 -20.12774,6.1531 -28.748883,15.93369 -7.147803,8.2188 -11.8180158,18.276998 -12.958017,28.135599 -0.3354662,2.90135 -0.5689921,5.77963 -0.7048035,8.629232 -2.068506,1.142112 -4.1247413,2.352146 -6.1647011,3.63008 -10.8886454,6.821417 -19.2365014,19.130964 -22.3981454,32.464033 z M 81.354674,-148.83996 c -8.699375,2.66932 -15.825491,7.3191 -19.967764,12.85182 -5.110315,6.8257 -4.465799,13.12644 -0.631707,17.66917 3.888226,4.60687 11.055175,7.66546 19.823295,9.53067 1.938274,0.41236 3.846567,0.87409 5.722481,1.38285 11.562157,3.1354 19.911551,7.517679 24.944621,10.57703 5.1139,3.108482 8.66112,5.996559 10.44999,7.519012 3.97975,3.387066 3.84422,3.514159 3.84422,3.514159 0,0 -0.0136,-0.01274 1.2408,-1.129574 0.74531,-0.669456 3.98606,-3.600696 8.86818,-6.819311 4.71562,-3.108846 14.72259,-9.037026 29.78991,-12.630816 2.27425,-0.54251 4.59365,-1.01508 6.95373,-1.41372 8.9119,-1.50505 16.316,-4.22406 20.5296,-8.57873 4.15838,-4.29759 5.24278,-10.44879 0.57978,-17.41433 -4.67433,-6.98245 -13.97574,-12.81156 -25.28024,-15.4139 -11.34909,-2.6126 -23.59162,-1.71624 -33.58674,2.75242 -2.41945,1.08173 -4.78433,2.22475 -7.09098,3.42576 -0.23557,0.12338 -0.47046,0.24736 -0.70467,0.37192 -2.04618,-1.19083 -4.14351,-2.33588 -6.2893,-3.43251 -11.45102,-5.85198 -26.269789,-6.72809 -39.195206,-2.76192 z m 145.798246,32.01273 c -6.92345,-6.1027 -14.67031,-9.75708 -21.55987,-10.38257 -8.49599,-0.77133 -13.50793,3.10876 -15.34604,8.75939 -1.86926,5.74639 -0.67897,13.42983 2.34389,21.868468 0.66729,1.862916 1.27473,3.725853 1.82204,5.585453 1.82778,6.2098 2.78043,11.686088 3.2595,16.221034 0,0 0,6e-6 0,6e-6 1.42681,13.235457 -0.69462,23.294224 -1.02556,24.976952 -0.65557,3.333328 -0.72599,3.311853 -0.72599,3.311853 0,0 0.0421,-0.173299 4.95177,1.655236 2.19035,0.81577 6.48744,2.51641 11.69381,5.447774 5.09788,2.870281 13.09877,8.044742 21.35587,16.668182 1.61052,1.681889 3.18044,3.44232 4.70335,5.280923 4.94154,5.966238 10.07474,10.6047802 15.14272,12.7829855 3.82014,1.6445361 7.63951,1.8842453 11.10395,0.1431872 2.60087,-1.3121524 4.98466,-3.760775 6.79176,-7.4836787 3.72356,-7.67109 4.06616,-18.835035 0.55895,-30.014512 -3.52267,-11.228717 -10.55361,-21.312068 -19.50179,-27.604411 -2.38677,-1.678332 -4.80299,-3.259269 -7.24163,-4.742406 -0.0142,-2.362768 -0.0948,-4.748428 -0.24462,-7.153905 -0.61518,-9.878066 -4.85898,-20.190171 -11.76717,-28.754461 -1.95847,-2.39464 -4.07989,-4.59544 -6.31494,-6.5655 z m 46.03394,142.956682 c 2.01957,-8.992183 1.50118,-17.6410101 -1.29525,-24.0777202 -1.22762,-2.82567573 -2.7927,-4.9912819 -4.54229,-6.5281479 -4.87457,-4.2536371 -10.90542,-3.6578737 -16.77791,-0.2163531 -3.93457,2.3014958 -7.89627,5.8920815 -11.77551,10.2964686 -1.30663,1.4834645 -2.64382,2.9120328 -4.00797,4.2856762 -8.37172,8.4303644 -16.42648,13.4466144 -21.55444,16.2238394 -5.23559,2.83552 -9.55359,4.471408 -11.75199,5.254613 -4.93249,1.757253 -4.97189,1.586986 -4.97189,1.586986 0,0 0.0919,-0.02639 0.75824,3.786552 0.32524,1.861028 2.55676,13.53365 -0.0397,28.70603 0,-10e-7 0,5e-6 0,5e-6 -0.60926,3.60258 -1.53574,7.681628 -2.93742,12.149468 -0.69765,2.223961 -1.48382,4.45102 -2.35771,6.675232 -3.30501,8.411229 -4.82066,16.131119 -3.27017,22.005179 1.52558,5.77969 6.22625,9.90104 14.60063,9.48922 8.82685,-0.43406 19.25215,-5.9454 27.63218,-15.20754 7.56178,-8.471983 12.48512,-19.033181 13.55437,-29.358417 0.30077,-2.904659 0.50004,-5.78519 0.60207,-8.635999 2.05475,-1.166201 4.09645,-2.400185 6.12109,-3.701919 10.80672,-6.94834 19.00951,-19.356649 22.01365,-32.733173 z M 171.57578,135.81817 c 8.66772,-2.76836 15.74139,-7.49959 19.82134,-13.07994 5.03355,-6.88464 4.31705,-13.17739 0.43085,-17.67542 -3.94084,-4.56126 -11.14298,-7.537135 -19.93092,-9.302444 -1.94275,-0.390293 -3.85609,-0.830344 -5.7376,-1.3178 -11.59481,-3.003647 -19.99813,-7.292333 -25.06639,-10.292441 -5.15056,-3.048824 -8.73492,-5.895162 -10.54247,-7.395506 -4.02248,-3.338823 -3.88907,-3.466906 -3.88907,-3.466906 0,0 0.0353,0.03316 -1.99992,1.838098 -1.16204,1.039407 -4.51476,4.001491 -9.55378,7.246694 -4.91056,3.162481 -14.31853,8.501713 -28.09283,11.952608 -2.267958,0.56826 -4.581914,1.067114 -6.937396,1.492548 -8.895022,1.60633 -16.266933,4.410219 -20.430372,8.813649 -4.108595,4.34543 -5.12254,10.50891 -0.381648,17.41976 4.752454,6.92771 14.118686,12.64996 25.454019,15.12331 11.379875,2.48306 23.616407,1.44762 33.563297,-3.13669 1.95234,-0.89982 3.86833,-1.8396 5.746,-2.81761 0.67447,-0.35344 1.34339,-0.71171 2.00674,-1.0747 2.05907,1.16681 4.16869,2.28738 6.32619,3.35909 11.51327,5.71885 26.33525,6.42713 39.21396,2.3137 z M 25.435339,105.49698 c 6.988531,6.01674 14.773043,9.57875 21.667525,10.12341 8.50211,0.67166 13.469246,-3.26539 15.242764,-8.93711 1.803395,-5.76725 0.525914,-13.43746 -2.595669,-21.840403 -0.689102,-1.855084 -1.318513,-3.710855 -1.887925,-5.563958 -2.064962,-6.719667 -3.093439,-12.596394 -3.589527,-17.363349 0,0 1e-6,-6e-6 1e-6,-6e-6 -1.345802,-12.658088 0.58282,-22.301131 0.886948,-23.932316 0.597716,-3.205836 0.662918,-3.186712 0.662918,-3.186712 0,0 -0.04012,0.174195 -4.969888,-1.595691 C 48.652455,32.41099 44.337518,30.761732 39.09645,27.890741 33.964013,25.079258 25.904597,19.998405 17.541914,11.472556 15.911021,9.8099327 14.319714,8.0684725 12.774401,6.2485286 6.9054622,-0.66379216 0.86546272,-5.6964912 -5.0174091,-7.1772278 -10.827704,-8.6396966 -16.70223,-6.4793771 -20.325402,1.2164135 -23.95563,8.92719 -24.165958,20.087142 -20.527141,31.220072 c 3.65479,11.181796 10.8040137,21.181103 19.82647371,27.368337 2.40655799,1.65028 4.84144549,3.202889 7.29764159,4.657439 0.042262,2.362654 0.1513936,4.747491 0.3299652,7.151433 0.7001161,9.423159 4.7157475,19.225991 11.2172115,27.504771 2.230231,2.801278 4.685804,5.351878 7.291188,7.594928 z"
         inkscape:original-d="M 9.1997614,-7.9710074 A 116.43976,114.38016 0 0 1 127.2391,-120.62048 116.43976,114.38016 0 0 1 242.05677,-4.8025664 116.43976,114.38016 0 0 1 124.28943,108.1213 116.43976,114.38016 0 0 1 9.1927717,-7.4291154"
         inkscape:path-effect="#path-effect17339" />
      <path
         id="path17439"
         style="fill:#6ad8fb;fill-opacity:1;stroke-width:0"
         d="m -11.553253,-37.928282 c -2.075713,8.331184 -1.786458,16.400143 0.64338,22.442585 3.0019121,7.465068 8.298027,9.8381404 13.6101535,8.782078 5.3883847,-1.0712227 11.0204765,-5.532225 16.5003665,-11.638765 1.21387,-1.352634 2.456572,-2.652139 3.724596,-3.898752 7.773523,-7.642637 15.284021,-12.098902 20.034451,-14.535312 4.857754,-2.491455 8.867668,-3.895776 10.899139,-4.561985 4.568066,-1.498072 4.600817,-1.339266 4.600817,-1.339266 0,0 -0.07576,0.01876 -0.510703,-3.269968 -0.21608,-1.633828 -1.689463,-11.647919 0.819839,-24.565975 2e-6,10e-7 1e-6,-5e-6 1e-6,-5e-6 0.737196,-3.797388 1.884919,-8.221452 3.683089,-13.132031 0.73892,-2.018058 1.557285,-4.035134 2.453963,-6.046199 3.392851,-7.608953 5.067831,-14.598843 3.850402,-19.990753 -1.197188,-5.30226 -5.373326,-9.16415 -13.046553,-9.01053 -8.717558,0.17453 -19.286209,5.63964 -27.574719,14.93172 -6.391812,7.242001 -10.662687,16.027813 -11.945864,24.707873 -0.394433,2.66833 -0.69283,5.318954 -0.898825,7.946037 -1.923051,1.028171 -3.835213,2.120645 -5.7325747,3.277689 -10.13619408,6.181404 -18.0211956,17.499691 -21.1109583,29.901559 z m 96.624629,-98.170228 c -7.992378,2.34231 -14.594747,6.48658 -18.500306,11.47035 -4.817817,6.14787 -4.383553,11.89596 -0.969546,16.084 3.46164,4.24647 9.975342,7.11793 18.043343,8.896156 1.783359,0.393093 3.540032,0.829935 5.268103,1.308363 10.638455,2.945049 18.4076,6.972634 23.1011,9.763699 4.77084,2.837057 8.132,5.464484 9.82469,6.842338 3.77506,3.07293 3.66158,3.18291 3.66158,3.18291 0,0 -0.0127,-0.01238 1.2423,-1.079626 0.74305,-0.631423 3.85731,-3.291734 8.45352,-6.220896 4.43445,-2.826068 13.76465,-8.208153 27.5229,-11.585828 2.09647,-0.514744 4.23288,-0.96764 6.40562,-1.35496 8.20523,-1.462476 14.94025,-4.036196 18.69889,-8.062926 3.70988,-3.9745 4.54011,-9.59605 0.11497,-15.87275 -4.43615,-6.29234 -13.05699,-11.4704 -23.4297,-13.71726 -10.41478,-2.25597 -21.58575,-1.34285 -30.7079,2.76035 -2.17724,0.97936 -4.30778,2.01041 -6.3888,3.09023 -0.24616,0.12766 -0.49157,0.256 -0.73624,0.38501 -1.87427,-1.08351 -3.79314,-2.12739 -5.75448,-3.12923 -10.45896,-5.34217 -23.976975,-6.2397 -35.850044,-2.75993 z m 133.892354,28.11804 c -6.51161,-5.43034 -13.69657,-8.61888 -20.01839,-9.07179 -7.79445,-0.55841 -12.29798,3.04832 -13.83676,8.22569 -1.5659,5.26862 -0.25973,12.246922 2.7933,19.919573 0.67364,1.693011 1.29354,3.387853 1.85918,5.081665 2.05915,6.165534 3.14989,11.568419 3.72536,15.966494 0,1e-6 0,3e-6 0,5e-6 1.52038,11.61135 -0.0518,20.489417 -0.29764,21.990765 -0.48272,2.948441 -0.54373,2.931637 -0.54373,2.931637 0,0 0.0369,-0.161135 4.57021,1.452604 2.01761,0.718208 5.99637,2.226451 10.80301,4.858869 4.69818,2.573018 12.11819,7.258523 19.70185,15.164663 1.48091,1.543805 2.92264,3.162948 4.31887,4.857497 4.48481,5.443309 9.10053,9.7201607 13.66053,11.774576 3.55519,1.605949 7.11733,1.8514017 10.34344,0.1381515 2.31478,-1.23755 4.43236,-3.506739 6.02794,-6.9270815 3.34697,-7.174694 3.54851,-17.591791 0.16514,-27.971658 -3.39888,-10.427485 -10.03799,-19.698097 -18.38149,-25.413242 -2.22407,-1.523414 -4.47521,-2.953888 -6.74652,-4.291497 -0.082,-2.180526 -0.22713,-4.380243 -0.43766,-6.595931 -0.82412,-8.67189 -4.69957,-17.6466 -10.844,-25.17688 -2.10925,-2.55571 -4.42052,-4.87756 -6.86264,-6.91411 z m 44.25151,131.670094 c 1.96984,-8.363061 1.57708,-16.4350618 -0.93222,-22.4501479 -1.0516,-2.5208248 -2.39132,-4.4792312 -3.89216,-5.8981875 -4.5505,-4.2535098 -10.23043,-3.6090054 -15.72776,-0.2100663 -3.4856,2.1484011 -6.99555,5.41496401 -10.45538,9.3763805 -1.19558,1.3688511 -2.42071,2.6847087 -3.67191,3.9477993 -7.66938,7.7426739 -15.12239,12.2912769 -19.83968,14.7851019 -4.82429,2.550385 -8.81716,4.00399 -10.83958,4.6949 -4.54911,1.554097 -4.58388,1.395848 -4.58388,1.395848 0,0 0.0814,-0.02117 0.56911,3.388321 0.24015,1.679054 1.89232,12.098482 -0.74159,25.565973 0,-10e-7 0,5e-6 0,5e-6 -0.69208,3.541307 -1.73373,7.595822 -3.30657,12.059689 -0.71409,2.026815 -1.50793,4.053495 -2.38042,6.075004 -3.30137,7.648611 -4.89604,14.656333 -3.61648,20.033794 1.25815,5.287462 5.47865,9.100912 13.1524,8.855932 8.37784,-0.26744 18.43814,-5.44738 26.4987,-14.242985 6.7942,-7.495401 11.31411,-16.760133 12.54647,-25.89224 0.36068,-2.672947 0.62567,-5.327078 0.79863,-7.956566 1.90986,-1.052193 3.80803,-2.168609 5.69059,-3.349499 10.05699,-6.308707 17.79947,-17.729297 20.73173,-30.179056 z m -95.43377,99.366386 c 7.96562,-2.4338 14.52194,-6.65423 18.37151,-11.68335 4.74889,-6.20398 4.24817,-11.9464 0.78553,-16.093938 -3.51078,-4.205211 -10.05789,-7.000276 -18.14449,-8.68599 -1.78756,-0.372664 -3.54891,-0.789452 -5.28214,-1.248201 -10.66855,-2.823465 -18.48588,-6.765046 -23.21058,-9.502012 -4.80332,-2.782514 -8.19736,-5.371801 -9.90644,-6.729549 -3.81279,-3.029015 -3.70104,-3.13988 -3.70104,-3.13988 0,0 0.033,0.03215 -1.99984,1.754642 -1.14311,0.967829 -4.35788,3.655074 -9.08935,6.606085 -4.60831,2.874199 -13.34819,7.716742 -25.90429,10.950691 -2.090656,0.538527 -4.221974,1.015729 -6.390357,1.427874 -8.189216,1.556316 -14.893463,4.208553 -18.605058,8.279515 -3.663255,4.017942 -4.428244,9.649093 0.06694,15.873353 4.506431,6.23984 13.183843,11.31783 23.581744,13.44571 10.43993,2.13648 21.602721,1.09638 30.679741,-3.11141 1.73262,-0.8032 3.43498,-1.63916 5.10564,-2.50639 0.66538,-0.34518 1.32534,-0.69533 1.97984,-1.05032 1.88608,1.06182 3.8163,2.08357 5.78846,3.06285 10.51656,5.2218 24.04057,5.9661 35.87418,2.35032 z M 33.593513,96.493917 c 6.569205,5.347643 13.786228,8.448893 20.110588,8.826353 7.797565,0.46538 12.258998,-3.19316 13.738045,-8.388628 1.504946,-5.286439 0.11884,-12.250222 -3.025784,-19.886376 -0.693855,-1.684989 -1.334171,-3.372396 -1.920428,-5.059363 -2.314979,-6.660872 -3.486907,-12.448665 -4.081789,-17.053469 0,0 1e-6,-5e-6 1e-6,-5e-6 -1.429532,-11.060728 -0.02572,-19.537122 0.196061,-20.987337 0.431983,-2.824776 0.487995,-2.810038 0.487995,-2.810038 0,0 -0.03483,0.161834 -4.587457,-1.395343 -2.02687,-0.693268 -6.022897,-2.15179 -10.863647,-4.725308 C 38.915104,22.498703 31.436767,17.90524 23.747179,10.096684 22.24579,8.5721454 20.782528,6.9720318 19.363693,5.2962577 13.975095,-1.0684903 8.4907987,-5.7430623 3.1445671,-7.1218628 -2.1313026,-8.4825169 -7.481959,-6.4770832 -10.727446,0.72082073 -13.97937,7.9329994 -14.04765,18.342531 -10.533007,28.67224 c 3.5307082,10.376928 10.2861212,19.560657 18.7015957,25.170023 2.2432373,1.495207 4.5123843,2.89727 6.8005393,4.206285 0.109528,2.179356 0.282486,4.377152 0.521133,6.590163 0.887664,8.230452 4.538312,16.720103 10.288243,23.964057 2.367307,2.94973 5.007216,5.605529 7.815009,7.891149 z"
         inkscape:original-d="M 16.061569,-7.8472536 A 109.5773,103.92163 0 0 1 127.14418,-110.19644 109.5773,103.92163 0 0 1 235.195,-4.9685246 109.5773,103.92163 0 0 1 124.36835,97.629964 109.5773,103.92163 0 0 1 16.054992,-7.3549106"
         inkscape:path-effect="#path-effect17443" />
    </g>
  </g>
  <metadata
     id="metadata1587">
    <rdf:RDF>
      <cc:Work
         rdf:about="">
        <dc:title>heartlogo</dc:title>
      </cc:Work>
    </rdf:RDF>
  </metadata>
</svg>
