<?xml version="1.0" encoding="UTF-8" standalone="no"?>
<!-- Created with Inkscape (http://www.inkscape.org/) -->

<svg
   width="66.963257"
   height="58.437729"
   viewBox="0 0 17.717359 15.461649"
   version="1.1"
   id="svg5"
   inkscape:version="1.1.2 (b8e25be833, 2022-02-05)"
   sodipodi:docname="donutlogo.svg"
   xmlns:inkscape="http://www.inkscape.org/namespaces/inkscape"
   xmlns:sodipodi="http://sodipodi.sourceforge.net/DTD/sodipodi-0.dtd"
   xmlns="http://www.w3.org/2000/svg"
   xmlns:svg="http://www.w3.org/2000/svg"
   xmlns:rdf="http://www.w3.org/1999/02/22-rdf-syntax-ns#"
   xmlns:cc="http://creativecommons.org/ns#"
   xmlns:dc="http://purl.org/dc/elements/1.1/">
  <title
     id="title826">donutlogo</title>
  <sodipodi:namedview
     id="namedview7"
     pagecolor="#ffffff"
     bordercolor="#999999"
     borderopacity="1"
     inkscape:pageshadow="0"
     inkscape:pageopacity="0"
     inkscape:pagecheckerboard="0"
     inkscape:document-units="px"
     showgrid="false"
     units="px"
     inkscape:zoom="4"
     inkscape:cx="-45.5"
     inkscape:cy="2.5"
     inkscape:window-width="1920"
     inkscape:window-height="1009"
     inkscape:window-x="-8"
     inkscape:window-y="-8"
     inkscape:window-maximized="1"
     inkscape:current-layer="layer1"
     inkscape:snap-global="false"
     fit-margin-top="0"
     fit-margin-left="0"
     fit-margin-right="0"
     fit-margin-bottom="0"
     showborder="false" />
  <defs
     id="defs2">
    <inkscape:path-effect
       effect="bend_path"
       id="path-effect4271"
       is_visible="true"
       lpeversion="1"
       bendpath="m 79.277906,135.60085 c 3.784072,-4.73844 8.800272,-5.43905 13.904739,0.29765"
       prop_scale="1"
       scale_y_rel="false"
       vertical="false"
       hide_knot="false"
       bendpath-nodetypes="cc" />
    <inkscape:path-effect
       effect="bend_path"
       id="path-effect44973"
       is_visible="true"
       lpeversion="1"
       bendpath="m -140.85814,126.60709 h 21.89291"
       prop_scale="1"
       scale_y_rel="false"
       vertical="false"
       hide_knot="false"
       bendpath-nodetypes="cc" />
    <rect
       x="165.59274"
       y="315.73019"
       width="469.17947"
       height="247.28519"
       id="rect6104" />
  </defs>
  <g
     inkscape:label="Layer 1"
     inkscape:groupmode="layer"
     id="layer1"
     transform="translate(-93.14921,-136.78432)">
    <text
       xml:space="preserve"
       transform="scale(0.26458333)"
       id="text6102"
       style="font-size:53.3333px;line-height:1.25;font-family:Impact;-inkscape-font-specification:'Impact, Normal';font-variant-ligatures:none;white-space:pre;shape-inside:url(#rect6104)" />
    <g
       id="g4555"
       transform="translate(16.4189,11.649321)"
       inkscape:export-filename="C:\Users\Chantal\Desktop\HTML.CSS,JS projects\donut_landing_page\images\donutlogo.png"
       inkscape:export-xdpi="96"
       inkscape:export-ydpi="96">
      <g
         id="g49496"
         transform="matrix(0.23609389,0,0,0.24012435,60.885214,94.52224)">
        <path
           id="path1623"
           style="fill:#b9742b;fill-opacity:1;fill-rule:evenodd;stroke-width:0.113704"
           d="m 78.28026,164.00688 c 1.142509,16.18386 16.663151,26.49339 27.68008,26.8053 14.97484,-3.32869 27.59038,-14.58696 27.6801,-26.8053 h -1.57164 c -0.46508,1.4789 -1.83596,1.41992 -3.38626,1.42017 -0.065,-0.009 -0.1297,-0.019 -0.1941,-0.0311 -0.16741,1.82691 -1.69914,3.22541 -3.53371,3.22635 -1.6844,-8.5e-4 -3.13627,-1.18538 -3.47552,-2.83527 -0.31134,0.10164 -0.63524,0.15971 -0.96249,0.17256 -1.75507,-1.2e-4 -3.2467,-0.21751 -3.50995,-1.95272 h -1.11284 c 0.003,0.0592 -0.002,-0.0592 0,0 -4e-5,5.49018 -5.55761,8.42721 -9.93354,8.58274 -4.36999,0.15531 -10.434072,-4.13511 -9.920917,-8.58274 h -3.590606 c -0.182159,1.81333 -1.707698,2.12914 -3.53016,2.13038 -1.035266,-8.6e-4 -2.018529,-0.45382 -2.692257,-1.23986 -0.603395,1.19477 -1.895779,2.5894 -3.375773,2.47097 -1.479995,-0.11842 -3.320362,-2.45412 -3.320339,-3.36149 z"
           sodipodi:nodetypes="ccccccccccccscccczcc" />
        <path
           id="path880"
           style="fill:#e0ae7a;fill-opacity:1;fill-rule:evenodd;stroke-width:0.113704"
           d="m 78.28026,164.00688 a 27.692749,27.692749 0 0 0 -0.01266,0.17766 27.692749,27.692749 0 0 0 27.69274,27.69274 27.692749,27.692749 0 0 0 27.69274,-27.69274 27.692749,27.692749 0 0 0 -0.0126,-0.17766 h -1.57164 a 3.5503526,3.5503526 0 0 1 -3.38626,2.48528 3.5503526,3.5503526 0 0 1 -0.1941,-0.0311 3.5503526,3.5503526 0 0 1 -3.53371,3.22636 3.5503526,3.5503526 0 0 1 -3.47552,-2.83527 3.5503526,3.5503526 0 0 1 -0.96249,0.17255 3.5503526,3.5503526 0 0 1 -3.50995,-3.01782 h -1.11284 a 9.940986,9.940986 0 0 1 0.007,0.17766 9.940986,9.940986 0 0 1 -9.94089,9.9409 9.940986,9.940986 0 0 1 -9.940905,-9.9409 9.940986,9.940986 0 0 1 0.01999,-0.17766 h -3.590606 a 3.5503526,3.5503526 0 0 1 -3.53016,3.19548 3.5503526,3.5503526 0 0 1 -2.692257,-1.23986 3.5503526,3.5503526 0 0 1 -3.16595,1.94985 3.5503526,3.5503526 0 0 1 -3.550369,-3.55037 3.5503526,3.5503526 0 0 1 0.02021,-0.3551 z" />
        <path
           id="path3855"
           style="fill:#ff7da7;fill-opacity:1;fill-rule:evenodd;stroke-width:0.113704"
           d="m 79.207173,167.89197 c 6.202128,18.47583 15.118701,21.95117 26.220607,22.38397 11.44711,0.44626 21.83926,-5.6977 27.11126,-23.00036 -0.004,-0.0592 -0.008,0.0228 -0.0126,-0.0364 l -1.10093,0.0157 c -0.46508,1.4789 -1.06582,1.0312 -2.61612,1.03145 -0.065,-0.009 0.71351,0.0254 -0.14972,0.0576 -0.16741,1.82691 -2.49797,3.22541 -4.33254,3.22636 -1.6844,-8.6e-4 -3.13627,-1.18539 -3.47552,-2.83528 -0.31134,0.10164 -0.63524,0.1597 -0.96249,0.17255 -1.75507,-1.1e-4 -2.54694,-0.19234 -2.81019,-1.92756 l -0.83579,0.0314 c 0.0658,0.46715 0.14394,0.58914 0.0361,-0.0106 -5e-5,5.49018 -5.86014,8.84375 -10.42276,8.87309 -4.6795,0.0301 -10.80587,-3.47194 -10.805917,-8.96213 0.117093,0.76174 0.022,0.69222 0.007,0.0117 l -2.393012,0.0979 c -0.182158,1.81334 -2.550909,2.06257 -4.373371,2.06381 -1.035268,-8.6e-4 -1.485974,-0.45382 -2.159703,-1.23986 -0.603396,1.19477 -1.956135,2.52819 -3.343467,2.4824 -1.280373,-0.0423 -2.726225,-1.20748 -2.927896,-2.48952 0.01691,-0.0187 -0.648972,-0.0949 -0.652876,0.0537 z"
           sodipodi:nodetypes="cscccccccccccacccccacc" />
      </g>
      <g
         id="g4269"
         transform="translate(-0.21351342,-3.8131728)">
        <g
           aria-label="DONUTS"
           transform="matrix(0.64765628,0,0,1.4021711,0.26674483,12.387673)"
           id="text7650"
           style="font-size:5.5536px;line-height:2;font-family:Impact;-inkscape-font-specification:'Impact, Normal';font-variant-ligatures:none;fill:#b9742b;stroke-width:0.0385663">
          <path
             d="m 124.61796,88.515613 c 0.22978,-0.118152 0.46442,-0.234272 0.70336,-0.347411 0.18448,-0.08735 0.23791,-0.19504 0.16366,-0.328007 -0.0738,-0.132151 -0.27033,-0.280182 -0.59453,-0.438222 l -1.75385,-0.854934 c -0.32555,-0.158695 -0.64227,-0.25199 -0.95967,-0.27623 -0.31587,-0.02413 -0.60165,0.02297 -0.8421,0.141176 -0.31022,0.152503 -0.60673,0.309143 -0.88897,0.468971 L 119.2564,86.41492 c 0.29209,-0.168758 0.60055,-0.334118 0.92485,-0.495179 0.34417,-0.170927 0.74188,-0.272684 1.16671,-0.303211 0.42789,-0.03148 0.86515,0.0085 1.30525,0.11647 0.44161,0.108374 0.86484,0.279828 1.28918,0.510642 l 1.58596,0.862672 c 0.4014,0.218338 0.70427,0.431641 0.91562,0.630219 0.21328,0.198482 0.32441,0.378667 0.33304,0.538116 0.009,0.160322 -0.0983,0.29116 -0.3323,0.40038 -0.21417,0.09998 -0.42677,0.202482 -0.6373,0.306621 z m -5.70614,-1.895408 c 0.22275,-0.136878 0.45607,-0.271819 0.69971,-0.404365 l 6.44799,2.642406 c -0.16993,0.08228 -0.33865,0.165835 -0.5059,0.250208 z"
             style="font-weight:bold;font-family:Bahnschrift;-inkscape-font-specification:'Bahnschrift, Bold'"
             id="path1062" />
          <path
             d="m 129.01962,87.713657 c -0.19961,0.06135 -0.4438,0.06975 -0.75124,0.02613 -0.30686,-0.04535 -0.65462,-0.137953 -1.03692,-0.279248 -0.384,-0.142504 -0.78079,-0.327403 -1.16701,-0.557811 l -1.49527,-0.892017 c -0.38766,-0.231264 -0.66246,-0.456278 -0.80729,-0.681404 -0.14689,-0.226104 -0.155,-0.433515 -0.0158,-0.61984 0.13907,-0.188176 0.41781,-0.339848 0.82427,-0.445733 0.40693,-0.106008 0.8419,-0.140244 1.27499,-0.102717 0.43537,0.03546 0.83285,0.138497 1.1892,0.305343 0.35603,0.165786 0.63851,0.381525 0.87653,0.645333 l 0.91706,1.016424 c 0.23597,0.261541 0.3889,0.508229 0.47772,0.727291 0.0876,0.218183 0.11048,0.402745 0.0676,0.549914 -0.0437,0.14651 -0.1539,0.246892 -0.35378,0.308331 z m -0.8215,-0.63698 c 0.11148,-0.03262 0.17902,-0.08418 0.20716,-0.156368 0.0262,-0.07356 0.0118,-0.162767 -0.0435,-0.267233 -0.0535,-0.104737 -0.14548,-0.218774 -0.27978,-0.339764 l -1.13166,-1.01946 c -0.13474,-0.121384 -0.28706,-0.220153 -0.46309,-0.295774 -0.17349,-0.07605 -0.35548,-0.122651 -0.5457,-0.139084 -0.19183,-0.01797 -0.37712,-0.0041 -0.54972,0.04172 -0.17262,0.04578 -0.28968,0.11205 -0.34835,0.196916 -0.0609,0.08345 -0.0607,0.179145 -6.6e-4,0.286706 0.0622,0.107034 0.17911,0.21691 0.34694,0.331148 l 1.40977,0.959621 c 0.16747,0.113999 0.34094,0.206753 0.51484,0.278779 0.17567,0.07159 0.34026,0.11831 0.49278,0.140524 0.15076,0.02073 0.27955,0.01486 0.39096,-0.01773 z"
             style="font-weight:bold;font-family:Bahnschrift;-inkscape-font-specification:'Bahnschrift, Bold'"
             id="path1064" />
          <path
             d="m 127.91017,83.635567 c 0.48906,-0.07149 0.99017,-0.133557 1.50284,-0.185355 1.21301,0.849213 2.10403,1.762777 2.59909,2.734951 0.021,0.03983 0.0414,0.07966 0.0611,0.11947 -0.0179,0.0219 -0.0354,0.04387 -0.0526,0.06591 -0.002,0.0022 -0.003,0.0043 -0.005,0.0065 l -0.14801,-3.090191 c 0.004,-1.22e-4 0.007,-2.42e-4 0.011,-3.63e-4 0.41791,0.0065 0.83005,0.01945 1.23627,0.03847 l -0.56685,3.878683 c -0.16419,0.0018 -0.32683,0.009 -0.48779,0.02208 -0.0458,-0.0027 -0.0917,-0.0049 -0.13776,-0.0065 -0.42731,-0.997623 -1.2777,-1.933221 -2.46939,-2.800487 0.0193,-0.02592 0.039,-0.05185 0.0591,-0.07776 l 1.47179,2.911074 c -0.16178,0.0162 -0.32474,0.03754 -0.48866,0.06363 z"
             style="font-weight:bold;font-family:Bahnschrift;-inkscape-font-specification:'Bahnschrift, Bold'"
             id="path1066" />
          <path
             d="m 134.1356,87.383269 c -0.22065,-0.03796 -0.37002,-0.116337 -0.47468,-0.243099 -0.10266,-0.127145 -0.16089,-0.300812 -0.17277,-0.517819 -0.0111,-0.217357 0.0246,-0.481835 0.13166,-0.778013 l 0.87856,-2.429711 c 0.41391,0.03437 0.82105,0.07505 1.22129,0.121616 l -1.32692,2.401616 c -0.11765,0.212926 -0.14853,0.388495 -0.1075,0.519331 0.0415,0.13223 0.1519,0.211366 0.34618,0.243241 0.19513,0.03202 0.39086,0.0031 0.59941,-0.08979 0.20849,-0.09182 0.41433,-0.240339 0.59818,-0.445378 l 2.0691,-2.307592 c 0.37376,0.06717 0.74031,0.139445 1.0995,0.216398 l -2.40054,2.236897 c -0.29388,0.273847 -0.60511,0.497656 -0.90561,0.670385 -0.29834,0.172104 -0.58225,0.291328 -0.84423,0.359462 -0.2607,0.06722 -0.49145,0.08034 -0.71163,0.04246 z"
             style="font-weight:bold;font-family:Bahnschrift;-inkscape-font-specification:'Bahnschrift, Bold'"
             id="path1068" />
          <path
             d="m 140.49694,84.809106 c 0.32033,0.08999 0.6337,0.183849 0.93993,0.281155 l -4.61084,2.98233 c -0.19038,-0.06764 -0.38025,-0.132439 -0.56947,-0.193986 z m -1.109,-0.648937 c 1.37644,0.312462 2.64056,0.693454 3.78306,1.118294 l -1.00169,0.563568 c -1.07033,-0.400654 -2.23945,-0.759291 -3.49805,-1.05123 z"
             style="font-weight:bold;font-family:Bahnschrift;-inkscape-font-specification:'Bahnschrift, Bold'"
             id="path1070" />
          <path
             d="m 138.80365,88.911359 c -0.14524,-0.06235 -0.25836,-0.136536 -0.34204,-0.223757 -0.0822,-0.0866 -0.13279,-0.182776 -0.15389,-0.289417 -0.017,-0.107368 -0.004,-0.221368 0.0392,-0.342084 0.38162,-0.123456 0.77033,-0.243948 1.16527,-0.361453 -0.047,0.149463 -0.0393,0.284462 0.0252,0.405953 0.0673,0.120272 0.18453,0.216824 0.35679,0.292034 0.19875,0.08677 0.41478,0.126068 0.65211,0.118096 0.23961,-0.0092 0.47987,-0.06532 0.71683,-0.170329 l 0.004,-0.0019 c 0.16583,-0.07349 0.27227,-0.143285 0.31858,-0.210283 0.0463,-0.06692 0.0507,-0.12994 0.0132,-0.188719 -0.0376,-0.05872 -0.10389,-0.126638 -0.20012,-0.203005 -0.002,-0.0034 -0.005,-0.0062 -0.0102,-0.0084 -0.003,-0.0013 -0.006,-0.0038 -0.008,-0.0073 -0.0135,-0.0098 -0.0269,-0.01965 -0.0404,-0.02947 -0.1704,-0.134465 -0.29165,-0.257765 -0.36094,-0.371386 -0.0665,-0.114808 -0.0453,-0.255001 0.0613,-0.421891 0.10874,-0.167509 0.3651,-0.365985 0.77408,-0.588972 l 0.004,-0.0021 c 0.36415,-0.198543 0.73396,-0.344128 1.12099,-0.434263 0.3861,-0.08991 0.77067,-0.12097 1.14855,-0.09113 0.37991,0.02843 0.73769,0.118285 1.05565,0.268132 0.14591,0.06877 0.26663,0.151224 0.36076,0.246627 0.0959,0.0963 0.16163,0.201009 0.19701,0.31339 0.0354,0.112376 0.0399,0.229268 0.0142,0.350113 -0.43202,0.08975 -0.86307,0.182375 -1.29241,0.277858 0.0307,-0.142389 0.0128,-0.273352 -0.0537,-0.391677 -0.0648,-0.117472 -0.17372,-0.211907 -0.32383,-0.281841 -0.22531,-0.104971 -0.46338,-0.156815 -0.70486,-0.155816 -0.23945,-3.47e-4 -0.45909,0.05153 -0.66158,0.153398 l -0.004,0.002 c -0.16993,0.08548 -0.27237,0.167365 -0.309,0.24464 -0.034,0.07603 -0.0285,0.14537 0.0162,0.208365 0.0448,0.06317 0.12235,0.143493 0.22995,0.242211 0.004,0.0044 0.008,0.0088 0.0117,0.01312 0.007,0.0031 0.0119,0.0068 0.0158,0.01117 0.007,0.0059 0.0122,0.01209 0.0149,0.01852 0.007,0.0059 0.0144,0.01183 0.0215,0.01772 0.15311,0.141249 0.24421,0.272971 0.27779,0.393009 0.0381,0.119825 -0.0212,0.256563 -0.17676,0.408993 -0.153,0.15159 -0.44621,0.31494 -0.87804,0.494661 l -0.009,0.0036 c -0.40453,0.16836 -0.8002,0.290146 -1.17993,0.368167 -0.38005,0.07809 -0.73384,0.110485 -1.05816,0.0978 -0.3236,-0.01208 -0.60505,-0.06968 -0.84926,-0.17452 1e-5,2.6e-5 2e-5,5.3e-5 3e-5,7.9e-5 z"
             style="font-weight:bold;font-family:Bahnschrift;-inkscape-font-specification:'Bahnschrift, Bold'"
             id="path1072" />
        </g>
        <g
           aria-label="DONUTS"
           transform="scale(0.66738273,1.4983906)"
           id="text22398"
           style="font-size:5.403px;line-height:2;font-family:Impact;-inkscape-font-specification:'Impact, Normal';font-variant-ligatures:none;fill:#e0ae7a;stroke-width:0.0375206">
          <path
             d="m 121.08569,91.181144 c 0.22121,-0.112382 0.44743,-0.223109 0.67811,-0.331286 0.17811,-0.08352 0.22434,-0.186543 0.14158,-0.313762 -0.0823,-0.126435 -0.28795,-0.26803 -0.62147,-0.418999 l -1.80413,-0.816657 c -0.33492,-0.151603 -0.65633,-0.240333 -0.97344,-0.262682 -0.31557,-0.02225 -0.59598,0.02389 -0.82629,0.138023 -0.29711,0.147241 -0.58022,0.298163 -0.84877,0.451871 l -1.21292,-0.442896 c 0.2772,-0.162645 0.57108,-0.322287 0.88113,-0.478077 0.32904,-0.165329 0.7164,-0.264627 1.13607,-0.295506 0.42265,-0.03181 0.85993,0.0051 1.3052,0.107525 0.44679,0.102823 0.87996,0.266505 1.31859,0.487405 l 1.6393,0.825567 c 0.41492,0.208956 0.73131,0.413307 0.95536,0.603579 0.22597,0.190176 0.34867,0.362807 0.36754,0.515384 0.019,0.153417 -0.0796,0.278356 -0.30622,0.382343 -0.20743,0.09518 -0.41317,0.192482 -0.61672,0.291065 -0.40431,-0.147632 -0.80862,-0.295265 -1.21292,-0.442897 z m -5.79379,-1.798672 c 0.21065,-0.131747 0.43208,-0.261796 0.66403,-0.389714 l 6.58652,2.514336 c -0.16441,0.07806 -0.32755,0.157155 -0.48915,0.236855 z"
             style="font-weight:bold;font-family:Bahnschrift;-inkscape-font-specification:'Bahnschrift, Bold'"
             id="path1600" />
          <path
             d="m 125.42032,90.404776 c -0.19446,0.06053 -0.43743,0.0697 -0.74704,0.02878 -0.30914,-0.04259 -0.66241,-0.130781 -1.05328,-0.265728 -0.39266,-0.136108 -0.80096,-0.31303 -1.20187,-0.533793 l -1.55226,-0.854745 c -0.40243,-0.221595 -0.69217,-0.437617 -0.85283,-0.65438 -0.16279,-0.217707 -0.18635,-0.418062 -0.0621,-0.59893 0.124,-0.182661 0.38944,-0.3309 0.78514,-0.435812 0.3957,-0.104909 0.8255,-0.140998 1.25858,-0.107566 0.43513,0.03141 0.8378,0.128385 1.2046,0.287479 0.36639,0.158065 0.66364,0.365052 0.92052,0.619079 l 0.98972,0.978724 c 0.25467,0.25184 0.42574,0.49003 0.53094,0.702046 0.10389,0.211159 0.14086,0.390287 0.10927,0.533497 -0.0324,0.142571 -0.13468,0.240733 -0.3294,0.30135 z m -0.86488,-0.611997 c 0.10858,-0.03222 0.17196,-0.0826 0.19456,-0.152755 0.0205,-0.07147 -5.4e-4,-0.157871 -0.0634,-0.258789 -0.0612,-0.10119 -0.1613,-0.211122 -0.30405,-0.327492 l -1.20278,-0.980532 c -0.14322,-0.116751 -0.30214,-0.21145 -0.48283,-0.283571 -0.17814,-0.07257 -0.36252,-0.116533 -0.55287,-0.131231 -0.19198,-0.01619 -0.37503,-0.0016 -0.54307,0.04376 -0.16807,0.04534 -0.27939,0.110127 -0.33131,0.19256 -0.0542,0.08107 -0.0468,0.173634 0.0209,0.277353 0.0699,0.103173 0.1944,0.208821 0.36979,0.318449 l 1.47334,0.920903 c 0.17502,0.109397 0.35445,0.198257 0.53279,0.267086 0.18011,0.06839 0.34743,0.112786 0.50095,0.133508 0.15164,0.0193 0.27949,0.01295 0.388,-0.01925 z"
             style="font-weight:bold;font-family:Bahnschrift;-inkscape-font-specification:'Bahnschrift, Bold'"
             id="path1602" />
          <path
             d="m 124.00302,86.456816 c 0.47944,-0.07368 0.97131,-0.138662 1.47512,-0.194156 1.32177,0.844893 2.30058,1.757729 2.85169,2.732036 -0.0172,0.02275 -0.034,0.04551 -0.0504,0.06827 l -0.38505,-2.986534 c 0.15858,-0.0071 0.31812,-0.01337 0.47862,-0.01865 0.2623,0.0043 0.52226,0.01102 0.77983,0.02006 l -0.29867,3.795635 c -0.0999,0.0035 -0.19925,0.009 -0.29791,0.01672 -0.10007,-0.0057 -0.20087,-0.0088 -0.30233,-0.0096 -0.49654,-0.955265 -1.41075,-1.850356 -2.65977,-2.678983 0.017,-0.02536 0.0345,-0.05072 0.0523,-0.07609 l 1.6879,2.808381 c -0.15832,0.01876 -0.31771,0.04223 -0.47794,0.07001 -0.95114,-1.182372 -1.90229,-2.364743 -2.85344,-3.547115 z"
             style="font-weight:bold;font-family:Bahnschrift;-inkscape-font-specification:'Bahnschrift, Bold'"
             id="path1604" />
          <path
             d="m 130.3918,90.011127 c -0.21355,-0.03176 -0.35966,-0.103999 -0.46585,-0.224405 -0.1042,-0.120725 -0.16891,-0.288092 -0.19173,-0.498574 -0.0221,-0.210771 -0.002,-0.468964 0.0863,-0.758816 l 0.72544,-2.378795 c 0.4167,0.02896 0.82653,0.06401 1.22936,0.104754 l -1.18892,2.352326 c -0.10538,0.208501 -0.12736,0.379479 -0.0817,0.505408 0.0462,0.127344 0.15676,0.201796 0.34723,0.22899 0.19122,0.0273 0.38112,-0.0042 0.58221,-0.09756 0.20095,-0.09224 0.39858,-0.23916 0.57271,-0.440099 l 1.9604,-2.262232 c 0.37597,0.06073 0.74464,0.126411 1.10586,0.196654 l -2.30751,2.194038 c -0.28239,0.268501 -0.58327,0.489336 -0.8732,0.660804 -0.2879,0.170859 -0.56203,0.290983 -0.81428,0.361729 -0.25117,0.06988 -0.47328,0.08745 -0.6863,0.05577 z"
             style="font-weight:bold;font-family:Bahnschrift;-inkscape-font-specification:'Bahnschrift, Bold'"
             id="path1606" />
          <path
             d="m 136.59118,87.431367 c 0.32145,0.08302 0.63586,0.169834 0.94306,0.260042 l -4.53366,2.929846 c -0.18493,-0.06167 -0.36932,-0.120535 -0.55302,-0.176211 z m -1.12558,-0.613874 c 1.38407,0.286027 2.65446,0.638894 3.80209,1.035327 l -0.9918,0.554171 c -1.07075,-0.373143 -2.24112,-0.704511 -3.50202,-0.970831 z"
             style="font-weight:bold;font-family:Bahnschrift;-inkscape-font-specification:'Bahnschrift, Bold'"
             id="path1608" />
          <path
             d="m 134.92177,91.39558 c -0.14128,-0.05785 -0.25055,-0.127386 -0.33071,-0.209772 -0.0788,-0.08181 -0.12626,-0.1732 -0.14491,-0.275033 -0.0146,-0.102575 4.2e-4,-0.211963 0.0442,-0.328223 0.37679,-0.123659 0.76115,-0.244447 1.15222,-0.362339 -0.0478,0.143983 -0.0419,0.273344 0.0199,0.388988 0.0646,0.11445 0.17853,0.205517 0.34731,0.275502 0.19473,0.08074 0.40755,0.115839 0.6428,0.105387 0.2375,-0.01168 0.47699,-0.06827 0.71412,-0.171783 l 0.004,-0.0018 c 0.16597,-0.07245 0.27287,-0.140658 0.31993,-0.205523 0.047,-0.06478 0.0524,-0.125343 0.0158,-0.181338 -0.0365,-0.05594 -0.10154,-0.120382 -0.19624,-0.192573 -0.002,-0.0033 -0.005,-0.0059 -0.0101,-0.0079 -0.003,-0.0013 -0.006,-0.0036 -0.008,-0.0069 -0.0132,-0.0093 -0.0265,-0.01854 -0.0397,-0.0278 -0.16775,-0.127079 -0.28712,-0.244027 -0.3552,-0.352259 -0.0653,-0.109431 -0.0438,-0.244349 0.062,-0.405993 0.1079,-0.162228 0.36194,-0.356244 0.76741,-0.575524 l 0.004,-0.002 c 0.36112,-0.195297 0.72812,-0.339673 1.11342,-0.43084 0.38431,-0.09093 0.76806,-0.125121 1.14609,-0.100544 0.38002,0.02319 0.73885,0.105829 1.0581,0.24665 0.14651,0.06463 0.26785,0.142704 0.36251,0.233516 0.0964,0.09165 0.16254,0.191713 0.19809,0.29946 0.0356,0.107751 0.04,0.220158 0.014,0.336678 -0.43318,0.09078 -0.86502,0.184365 -1.29477,0.280724 0.0315,-0.137241 0.0139,-0.262982 -0.0524,-0.376056 -0.0646,-0.112271 -0.17355,-0.201921 -0.32363,-0.267544 -0.22526,-0.0985 -0.4632,-0.145728 -0.70413,-0.142062 -0.23895,0.0023 -0.45769,0.05474 -0.65922,0.155006 l -0.004,0.002 c -0.16911,0.08413 -0.27101,0.164055 -0.30746,0.23876 -0.0338,0.07348 -0.0285,0.140062 0.0159,0.200072 0.0445,0.0602 0.12134,0.136484 0.22796,0.230133 0.004,0.0041 0.008,0.0083 0.0115,0.01251 0.007,0.0029 0.0118,0.0064 0.0157,0.01053 0.007,0.0056 0.0121,0.01146 0.0147,0.01764 0.007,0.0056 0.0142,0.0112 0.0213,0.01685 0.15164,0.133999 0.24126,0.259552 0.27344,0.37453 0.0367,0.114724 -0.0242,0.246745 -0.18147,0.394892 -0.15482,0.147328 -0.4498,0.307368 -0.88319,0.484716 l -0.009,0.0036 c -0.40591,0.166106 -0.80203,0.287404 -1.18052,0.366556 -0.37887,0.07923 -0.72994,0.114374 -1.0499,0.106088 -0.31933,-0.0077 -0.59502,-0.05944 -0.83255,-0.156711 6e-5,-4.4e-5 1.3e-4,-8.8e-5 1.9e-4,-1.32e-4 z"
             style="font-weight:bold;font-family:Bahnschrift;-inkscape-font-specification:'Bahnschrift, Bold'"
             id="path1610" />
        </g>
      </g>
    </g>
  </g>
  <metadata
     id="metadata824">
    <rdf:RDF>
      <cc:Work
         rdf:about="">
        <dc:title>donutlogo</dc:title>
      </cc:Work>
    </rdf:RDF>
  </metadata>
</svg>
