<?xml version="1.0" encoding="UTF-8" standalone="no"?>
<!-- Created with Inkscape (http://www.inkscape.org/) -->

<svg
   width="200"
   height="400"
   viewBox="0 0 52.916665 105.83334"
   version="1.1"
   id="svg5"
   inkscape:version="1.1.2 (b8e25be833, 2022-02-05)"
   sodipodi:docname="crocus.svg"
   xmlns:inkscape="http://www.inkscape.org/namespaces/inkscape"
   xmlns:sodipodi="http://sodipodi.sourceforge.net/DTD/sodipodi-0.dtd"
   xmlns:xlink="http://www.w3.org/1999/xlink"
   xmlns="http://www.w3.org/2000/svg"
   xmlns:svg="http://www.w3.org/2000/svg"
   xmlns:rdf="http://www.w3.org/1999/02/22-rdf-syntax-ns#"
   xmlns:cc="http://creativecommons.org/ns#"
   xmlns:dc="http://purl.org/dc/elements/1.1/">
  <title
     id="title1028">crocus</title>
  <sodipodi:namedview
     id="namedview7"
     pagecolor="#ffffff"
     bordercolor="#999999"
     borderopacity="1"
     inkscape:pageshadow="0"
     inkscape:pageopacity="0"
     inkscape:pagecheckerboard="0"
     inkscape:document-units="px"
     showgrid="false"
     units="px"
     showborder="false"
     inkscape:snap-global="false"
     inkscape:zoom="0.90583671"
     inkscape:cx="60.165369"
     inkscape:cy="109.29122"
     inkscape:window-width="1920"
     inkscape:window-height="1009"
     inkscape:window-x="-8"
     inkscape:window-y="-8"
     inkscape:window-maximized="1"
     inkscape:current-layer="g64851"
     fit-margin-top="0"
     fit-margin-left="0"
     fit-margin-right="0"
     fit-margin-bottom="0"
     showguides="false" />
  <defs
     id="defs2">
    <linearGradient
       inkscape:collect="always"
       id="linearGradient1972">
      <stop
         style="stop-color:#c700ff;stop-opacity:1;"
         offset="0"
         id="stop1968" />
      <stop
         style="stop-color:#c700ff;stop-opacity:0;"
         offset="1"
         id="stop1970" />
    </linearGradient>
    <linearGradient
       inkscape:collect="always"
       xlink:href="#linearGradient1972"
       id="linearGradient1974"
       x1="-35.524334"
       y1="131.77051"
       x2="-35.292725"
       y2="68.396477"
       gradientUnits="userSpaceOnUse"
       gradientTransform="matrix(0.26756909,-0.06603453,0.05453559,0.29300551,-153.02754,32.212367)" />
    <linearGradient
       inkscape:collect="always"
       xlink:href="#linearGradient1972"
       id="linearGradient2348"
       gradientUnits="userSpaceOnUse"
       gradientTransform="matrix(-0.2116889,-0.12367188,-0.0977035,0.24147192,-132.93202,35.56394)"
       x1="-35.524334"
       y1="131.77051"
       x2="-35.614902"
       y2="67.499992" />
    <linearGradient
       inkscape:collect="always"
       xlink:href="#linearGradient1972"
       id="linearGradient2451"
       gradientUnits="userSpaceOnUse"
       gradientTransform="matrix(0.21757021,-0.07072807,0.05959323,0.26803993,-153.22786,25.349173)"
       x1="-35.524334"
       y1="131.77051"
       x2="-35.13662"
       y2="67.283234" />
    <linearGradient
       inkscape:collect="always"
       xlink:href="#linearGradient1972"
       id="linearGradient2706"
       gradientUnits="userSpaceOnUse"
       gradientTransform="matrix(-0.22267667,-0.05248195,-0.03720901,0.27205192,-143.52659,26.207426)"
       x1="-35.524334"
       y1="131.77051"
       x2="-35.075779"
       y2="65.179352" />
    <linearGradient
       inkscape:collect="always"
       xlink:href="#linearGradient1972"
       id="linearGradient2710"
       gradientUnits="userSpaceOnUse"
       gradientTransform="matrix(-0.22458655,0.02054154,0.01659444,0.2769157,-157.00062,26.088941)"
       x1="-35.524334"
       y1="131.77051"
       x2="-35.964001"
       y2="67.886169" />
    <filter
       inkscape:collect="always"
       style="color-interpolation-filters:sRGB"
       id="filter31391"
       x="-0.20869602"
       y="-0.071758531"
       width="1.417392"
       height="1.1435171">
      <feGaussianBlur
         inkscape:collect="always"
         stdDeviation="0.79314649"
         id="feGaussianBlur31393" />
    </filter>
    <filter
       inkscape:collect="always"
       style="color-interpolation-filters:sRGB"
       id="filter31395"
       x="-0.3919003"
       y="-0.067618684"
       width="1.7838006"
       height="1.1352374">
      <feGaussianBlur
         inkscape:collect="always"
         stdDeviation="0.79314649"
         id="feGaussianBlur31397" />
    </filter>
    <filter
       inkscape:collect="always"
       style="color-interpolation-filters:sRGB"
       id="filter31399"
       x="-0.47925967"
       y="-0.071662195"
       width="1.9585193"
       height="1.1433244">
      <feGaussianBlur
         inkscape:collect="always"
         stdDeviation="0.79314649"
         id="feGaussianBlur31401" />
    </filter>
    <filter
       inkscape:collect="always"
       style="color-interpolation-filters:sRGB"
       id="filter31403"
       x="-0.47925967"
       y="-0.071662195"
       width="1.9585193"
       height="1.1433244">
      <feGaussianBlur
         inkscape:collect="always"
         stdDeviation="0.79314649"
         id="feGaussianBlur31405" />
    </filter>
    <filter
       inkscape:collect="always"
       style="color-interpolation-filters:sRGB"
       id="filter31407"
       x="-0.38609585"
       y="-0.067618684"
       width="1.7721917"
       height="1.1352374">
      <feGaussianBlur
         inkscape:collect="always"
         stdDeviation="0.79314649"
         id="feGaussianBlur31409" />
    </filter>
    <filter
       inkscape:collect="always"
       style="color-interpolation-filters:sRGB"
       id="filter31411"
       x="-0.33408239"
       y="-0.070433777"
       width="1.6681648"
       height="1.1408676">
      <feGaussianBlur
         inkscape:collect="always"
         stdDeviation="0.79314649"
         id="feGaussianBlur31413" />
    </filter>
    <filter
       inkscape:collect="always"
       style="color-interpolation-filters:sRGB"
       id="filter43088"
       x="-0.025877201"
       y="-0.010779006"
       width="1.0515298"
       height="1.0215861">
      <feGaussianBlur
         inkscape:collect="always"
         stdDeviation="0.088196882"
         id="feGaussianBlur43090" />
    </filter>
    <filter
       inkscape:collect="always"
       style="color-interpolation-filters:sRGB"
       id="filter61985"
       x="-0.22537177"
       y="-0.17935905"
       width="1.4507435"
       height="1.3587181">
      <feGaussianBlur
         inkscape:collect="always"
         stdDeviation="3.4665904"
         id="feGaussianBlur61987" />
    </filter>
    <filter
       inkscape:collect="always"
       style="color-interpolation-filters:sRGB"
       id="filter63395"
       x="-0.50654835"
       y="-0.095440729"
       width="2.0130967"
       height="1.1908815">
      <feGaussianBlur
         inkscape:collect="always"
         stdDeviation="2.35421"
         id="feGaussianBlur63397" />
    </filter>
    <linearGradient
       inkscape:collect="always"
       xlink:href="#linearGradient1972"
       id="linearGradient64411"
       gradientUnits="userSpaceOnUse"
       gradientTransform="matrix(0.1548226,-0.04817429,0.03983094,0.19048998,-164.63464,71.183594)"
       x1="-35.524334"
       y1="131.77051"
       x2="-35.13662"
       y2="67.283234" />
    <linearGradient
       inkscape:collect="always"
       xlink:href="#linearGradient1972"
       id="linearGradient64413"
       gradientUnits="userSpaceOnUse"
       gradientTransform="matrix(-0.15733739,-0.03918859,-0.02880734,0.19246577,-157.76718,71.878759)"
       x1="-35.524334"
       y1="131.77051"
       x2="-35.075779"
       y2="65.179352" />
    <linearGradient
       inkscape:collect="always"
       xlink:href="#linearGradient1972"
       id="linearGradient64415"
       gradientUnits="userSpaceOnUse"
       gradientTransform="matrix(-0.15934526,0.01254497,0.00927879,0.19639479,-167.31497,71.67405)"
       x1="-35.524334"
       y1="131.77051"
       x2="-35.964001"
       y2="67.886169" />
    <linearGradient
       inkscape:collect="always"
       xlink:href="#linearGradient1972"
       id="linearGradient64417"
       gradientUnits="userSpaceOnUse"
       gradientTransform="matrix(0.19021402,-0.04440002,0.03602295,0.20813739,-164.55418,76.049234)"
       x1="-35.524334"
       y1="131.77051"
       x2="-35.292725"
       y2="68.396477" />
    <linearGradient
       inkscape:collect="always"
       xlink:href="#linearGradient1972"
       id="linearGradient64419"
       gradientUnits="userSpaceOnUse"
       gradientTransform="matrix(-0.15960476,-0.06869456,-0.04785214,0.1783104,-154.23202,78.121203)"
       x1="-35.524334"
       y1="131.77051"
       x2="-35.614902"
       y2="67.499992" />
    <linearGradient
       inkscape:collect="always"
       xlink:href="#linearGradient1972"
       id="linearGradient64551"
       gradientUnits="userSpaceOnUse"
       gradientTransform="matrix(0.16085381,-0.02165912,0.01349886,0.17577456,-132.63908,80.231165)"
       x1="-35.524334"
       y1="131.77051"
       x2="-35.13662"
       y2="67.283234" />
    <linearGradient
       inkscape:collect="always"
       xlink:href="#linearGradient1972"
       id="linearGradient64553"
       gradientUnits="userSpaceOnUse"
       gradientTransform="matrix(-0.15135213,-0.05677746,-0.05514953,0.16805267,-125.89332,81.801831)"
       x1="-35.524334"
       y1="131.77051"
       x2="-35.075779"
       y2="65.179352" />
    <linearGradient
       inkscape:collect="always"
       xlink:href="#linearGradient1972"
       id="linearGradient64555"
       gradientUnits="userSpaceOnUse"
       gradientTransform="matrix(-0.16046246,-0.01081318,-0.01774846,0.17682929,-135.3766,80.299054)"
       x1="-35.524334"
       y1="131.77051"
       x2="-35.964001"
       y2="67.886169" />
    <linearGradient
       inkscape:collect="always"
       xlink:href="#linearGradient1972"
       id="linearGradient64557"
       gradientUnits="userSpaceOnUse"
       gradientTransform="matrix(0.1955917,-0.01339331,0.00727996,0.19102224,-133.22764,84.591421)"
       x1="-35.524334"
       y1="131.77051"
       x2="-35.292725"
       y2="68.396477" />
    <linearGradient
       inkscape:collect="always"
       xlink:href="#linearGradient1972"
       id="linearGradient64559"
       gradientUnits="userSpaceOnUse"
       gradientTransform="matrix(-0.13603909,-0.10062053,-0.09453181,0.14230876,-119.4216,88.839904)"
       x1="-35.524334"
       y1="131.77051"
       x2="-35.614902"
       y2="67.499992" />
  </defs>
  <g
     inkscape:label="Layer 1"
     inkscape:groupmode="layer"
     id="layer1"
     transform="translate(53.174662,-39.797762)">
    <g
       id="g64851"
       transform="matrix(0.77040391,0,0,0.77040391,86.364885,5.7838868)">
      <g
         id="g2319">
        <g
           id="g64493"
           transform="matrix(-1.0006696,-0.10438551,-0.0997281,0.89842748,-160.46942,39.691519)">
          <path
             id="path64489"
             style="fill:#009696;fill-opacity:1;fill-rule:evenodd;stroke-width:0.177511"
             d="m -38.366066,103.97401 c -1.636389,0.22816 4.843628,25.5501 5.370172,46.72212 h 3.143728 c 1.892639,-12.08507 1.480573,-27.47916 -6.342013,-43.40442 -1.151576,-2.34438 -1.834396,-3.36475 -2.171887,-3.3177 z" />
          <path
             id="path64491"
             style="opacity:0.384146;fill:#d8ffff;fill-opacity:1;fill-rule:evenodd;stroke-width:0.181679;filter:url(#filter63395)"
             d="m -133.39877,108.62175 c -1.32124,0.37909 6.11775,32.26861 8.33075,59.19672 l 2.57517,-0.17021 c 0.53335,-15.4894 -1.09964,-35.06714 -8.84764,-54.91994 -1.14059,-2.92256 -1.7858,-4.18475 -2.05828,-4.10657 z"
             transform="matrix(0.56105448,0,0,0.56105448,38.84238,48.778706)" />
        </g>
        <ellipse
           style="fill:#008080;fill-opacity:1;fill-rule:evenodd;stroke-width:0.0993676"
           id="ellipse64495"
           cx="-116.25625"
           cy="167.17052"
           rx="1.9778018"
           ry="29.344011"
           transform="matrix(0.99050973,0.13744262,-0.15197317,0.98838462,0,0)" />
        <path
           id="path64497"
           style="fill:url(#linearGradient64551);fill-rule:evenodd;stroke-width:0.0447187"
           d="m -132.29423,103.95294 c 0.41266,5.37342 1.97596,15.06658 -3.74339,10.26075 -1.90835,-1.60354 -3.88373,-3.80476 -4.29639,-9.17819 -0.41266,-5.373428 2.2695,-14.382992 3.00599,-11.995428 1.68499,5.462441 4.62113,5.539437 5.03379,10.912868 z"
           sodipodi:nodetypes="sssss" />
        <path
           id="path64499"
           style="fill:url(#linearGradient64553);fill-rule:evenodd;stroke-width:0.0447187"
           d="m -131.89888,104.80928 c -1.68592,5.13737 -5.52404,14.22295 1.19023,10.81571 2.24032,-1.13688 4.68872,-2.8405 6.37464,-7.97786 1.68592,-5.13737 1.22934,-14.5 -0.058,-12.340086 -2.94532,4.941606 -5.82093,4.364866 -7.50685,9.502236 z"
           sodipodi:nodetypes="sssss" />
        <path
           id="path64501"
           style="fill:url(#linearGradient64555);fill-rule:evenodd;stroke-width:0.0447187"
           d="m -136.29376,104.06342 c -0.54257,5.40567 0.59178,11.53837 3.49901,10.01629 2.22951,-1.16725 3.97864,-4.07015 4.52121,-9.47582 0.54257,-5.405674 0.0657,-11.535571 -2.44472,-11.89662 -2.1212,-0.305064 -5.03293,5.950483 -5.5755,11.35615 z"
           sodipodi:nodetypes="sssss" />
        <path
           id="path64523"
           style="opacity:0.453252;fill:#8b00b3;fill-opacity:1;fill-rule:evenodd;stroke-width:0.119934;filter:url(#filter31403)"
           d="m -13.903935,56.994804 c -0.763715,6.018494 -0.100374,13.433656 -0.540783,13.36643 -0.440409,-0.06722 -1.817793,-7.591382 -1.054077,-13.60988 0.763715,-6.018498 3.235263,-13.019254 3.675672,-12.952028 0.440408,0.06722 -1.317097,7.176982 -2.080812,13.195478 z"
           sodipodi:nodetypes="sssss"
           transform="matrix(0.56090474,0.0630931,-0.06099561,0.50352015,-123.0398,73.258449)" />
        <path
           id="path64525"
           style="fill:url(#linearGradient64557);fill-rule:evenodd;stroke-width:0.0512087"
           d="m -134.10514,111.37723 c 0.11128,2.91978 -0.71111,10.23391 -2.05705,14.44992 -1.98734,6.22517 -2.4815,5.51952 -2.99658,-3.58195 -0.16204,-2.86327 -4.42552,-5.45746 -4.64806,-11.29701 -0.22255,-5.83956 1.55172,-12.605983 4.2513,-12.790838 2.69958,-0.184857 5.22785,7.380328 5.45039,13.219878 z"
           sodipodi:nodetypes="ssssss" />
        <path
           id="path64527"
           style="opacity:0.453252;fill:#8b00b3;fill-opacity:1;fill-rule:evenodd;stroke-width:0.119934;filter:url(#filter31399)"
           d="m -5.0310044,56.994804 c 0.763715,6.018494 0.100374,13.433656 0.540783,13.36643 0.440409,-0.06722 1.817793,-7.591382 1.054077,-13.60988 -0.763715,-6.018498 -3.235263,-13.019254 -3.675672,-12.952028 -0.440408,0.06722 1.317097,7.176982 2.080812,13.195478 z"
           sodipodi:nodetypes="sssss"
           transform="matrix(0.56090474,0.0630931,-0.06099561,0.50352015,-123.0398,73.258449)" />
        <path
           id="path64529"
           style="fill:url(#linearGradient64559);fill-rule:evenodd;stroke-width:0.0449569"
           d="m -130.83707,108.80032 c -2.88984,4.35038 -14.72129,23.88778 -1.40036,10.62382 1.96723,-1.95882 5.31002,-1.24424 8.19985,-5.59461 2.88984,-4.35038 4.75995,-10.33057 2.88232,-11.71935 -1.87762,-1.38878 -6.79198,2.33976 -9.68181,6.69014 z"
           sodipodi:nodetypes="sssss" />
        <path
           id="path64531"
           style="opacity:0.453252;mix-blend-mode:normal;fill:#8b00b3;fill-opacity:1;fill-rule:evenodd;stroke-width:0.134254;filter:url(#filter31411)"
           d="m -27.366808,70.381534 c 0.893637,6.197141 3.845777,13.130793 3.317781,13.25791 -0.527996,0.127118 -4.336188,-6.600438 -5.229824,-12.797582 -0.893637,-6.197144 -0.106338,-14.098092 0.421659,-14.225208 0.527996,-0.127114 0.596748,7.567737 1.490384,13.76488 z"
           sodipodi:nodetypes="sssss"
           transform="matrix(0.89752237,0.19825518,-0.13453883,0.58530101,-107.62686,72.934969)" />
        <path
           id="path64533"
           style="opacity:0.453252;mix-blend-mode:normal;fill:#8b00b3;fill-opacity:1;fill-rule:evenodd;stroke-width:0.14332;filter:url(#filter31391)"
           d="M 6.4836197,72.762613 C 4.6897525,78.896409 0.58181691,85.256615 1.1329235,85.523072 1.6840309,85.78953 6.6854896,79.861335 8.4793564,73.727534 10.273225,67.593735 10.487039,59.27758 9.935931,59.011124 9.3848231,58.74467 8.2774872,66.628814 6.4836197,72.762613 Z"
           sodipodi:nodetypes="sssss"
           transform="matrix(0.59974011,0.11774481,-0.13485855,0.55674429,-118.73325,69.750156)" />
        <path
           id="path64535"
           style="opacity:0.453252;mix-blend-mode:normal;fill:#8b00b3;fill-opacity:1;fill-rule:evenodd;stroke-width:0.131481;filter:url(#filter31395)"
           d="m 2.6537693,61.983766 c -0.6902975,6.454243 -3.26145997,13.684199 -2.7722409,13.81417 0.48921985,0.129973 3.8535654,-6.88926 4.543862,-13.343507 C 5.1156885,56.000183 4.2205996,47.779979 3.7313796,47.650009 3.2421598,47.520041 3.3440669,55.529522 2.6537693,61.983766 Z"
           sodipodi:nodetypes="sssss"
           transform="matrix(0.98087073,0.11033277,-0.08055966,0.66502189,-124.56169,65.802664)" />
        <path
           id="path64537"
           style="opacity:0.453252;mix-blend-mode:normal;fill:#8b00b3;fill-opacity:1;fill-rule:evenodd;stroke-width:0.132466;filter:url(#filter31407)"
           d="m -21.05482,61.180526 c 0.700676,6.454243 3.310492,13.684199 2.813918,13.81417 -0.496575,0.129973 -3.911499,-6.88926 -4.612173,-13.343507 -0.700676,-6.454246 0.20787,-14.67445 0.704445,-14.80442 0.496575,-0.129968 0.393135,7.879513 1.09381,14.333757 z"
           sodipodi:nodetypes="sssss"
           transform="matrix(0.81257156,0.09140171,-0.07831133,0.64646186,-116.14942,67.60486)" />
        <path
           id="path64541"
           style="opacity:0.896341;fill:#008181;fill-opacity:1;fill-rule:evenodd;stroke:#b000e1;stroke-width:0.0957088;stroke-opacity:0;filter:url(#filter43088)"
           d="m -18.035035,98.867255 c 0.805812,1.958065 0.55408,3.449265 0.863072,5.373605 2.84517,17.71916 3.536028,19.13889 5.705142,6.50379 0.578636,-3.37056 5.7351908,-21.999886 0.429897,-11.907641 -2.780561,5.289451 3.9471718,-10.724124 -3.499056,0.01512 -0.66459,0.958499 -6.218087,-6.591911 -3.499055,0.01512 z"
           sodipodi:nodetypes="ssssss"
           transform="matrix(0.56090474,0.0630931,-0.06099561,0.50352015,-123.0398,73.258449)" />
        <g
           id="g64547"
           transform="matrix(-0.72804706,-0.66198054,-0.68322072,0.6279271,-68.994153,63.232349)">
          <path
             id="path64543"
             style="fill:#009696;fill-opacity:1;fill-rule:evenodd;stroke-width:0.189415"
             d="m -1.5092535,110.09169 c -0.5378145,0.0214 -1.643043,0.51079 -3.4442652,1.54375 -18.2660463,10.47522 -24.3412673,26.62389 -26.1089873,39.06584 l 2.429804,-0.20356 c 8.492693,-19.32664 30.7573731,-40.55064 27.1234485,-40.40603 z" />
          <path
             id="path64545"
             style="opacity:0.388211;fill:#f7ffff;fill-opacity:1;fill-rule:evenodd;stroke-width:0.224748;filter:url(#filter61985)"
             d="m -79.406717,119.79637 c -0.66289,0.0245 -2.025152,0.58343 -4.245269,1.76332 -22.514034,11.96512 -30.002114,30.41063 -32.180934,44.62222 l 2.99488,-0.23252 c 10.46777,-22.07548 37.910359,-46.3182 33.431323,-46.15302 z"
             transform="matrix(0.42439175,0.01930136,-0.02586302,0.56866726,26.447069,49.651577)" />
        </g>
        <ellipse
           style="fill:#008080;fill-opacity:1;fill-rule:evenodd;stroke-width:0.147009"
           id="path52118"
           cx="-149.80156"
           cy="133.23703"
           rx="2.7746663"
           ry="45.78199"
           transform="rotate(-0.72444041)" />
        <path
           id="path50536"
           style="fill:#009696;fill-opacity:1;fill-rule:evenodd;stroke-width:0.25046"
           d="m -161.08512,115.98905 c -2.30461,0.35109 7.28937,35.96064 8.40994,65.82153 l 4.43528,-0.0561 c 2.45462,-17.08383 1.59864,-38.79505 -9.72186,-61.12346 -1.6665,-3.28699 -2.64806,-4.7144 -3.12336,-4.64199 z" />
        <path
           id="path62889"
           style="opacity:0.384146;fill:#d8ffff;fill-opacity:1;fill-rule:evenodd;stroke-width:0.181679;filter:url(#filter63395)"
           d="m -133.39877,108.62175 c -1.32124,0.37909 6.11775,32.26861 8.33075,59.19672 l 2.57517,-0.17021 c 0.53335,-15.4894 -1.09964,-35.06714 -8.84764,-54.91994 -1.14059,-2.92256 -1.7858,-4.18475 -2.05828,-4.10657 z"
           transform="matrix(0.79155697,-0.01000888,0.01000888,0.79155697,-53.141166,36.740062)" />
        <path
           id="path2449"
           style="fill:url(#linearGradient2451);fill-rule:evenodd;stroke-width:0.0661629"
           d="m -147.22935,61.865281 c 1.82177,8.193977 6.24136,22.78519 -2.79241,16.697868 -3.01426,-2.03113 -6.2604,-4.968763 -8.08216,-13.162742 -1.82177,-8.193982 -0.20681,-22.715433 1.36815,-19.202931 3.6033,8.036154 7.68466,7.473826 9.50642,15.667805 z"
           sodipodi:nodetypes="sssss" />
        <path
           id="path2704"
           style="fill:url(#linearGradient2706);fill-rule:evenodd;stroke-width:0.0661629"
           d="m -146.48289,63.094669 c -1.13748,8.316624 -4.33452,23.22351 4.16456,16.409534 2.83585,-2.273589 5.82777,-5.469759 6.96525,-13.786384 1.13748,-8.316628 -1.67357,-22.654644 -2.95247,-19.023861 -2.92597,8.30676 -7.03986,8.084085 -8.17734,16.400711 z"
           sodipodi:nodetypes="sssss" />
        <path
           id="path2708"
           style="fill:url(#linearGradient2710);fill-rule:evenodd;stroke-width:0.0661629"
           d="m -152.73873,62.963523 c 0.50729,8.465311 3.50455,17.66321 7.17371,14.64067 2.81382,-2.31794 4.55885,-7.202062 4.05156,-15.667371 -0.50729,-8.465317 -2.59397,-17.811427 -6.15229,-17.786066 -3.00661,0.02143 -5.58027,10.347457 -5.07298,18.812767 z"
           sodipodi:nodetypes="sssss" />
        <g
           id="g1524"
           transform="matrix(0.21409872,-0.00887336,0.01147602,0.27689623,-171.37565,34.477253)">
          <rect
             style="fill:#ff6600;fill-rule:evenodd;stroke-width:0.264583"
             id="rect1000"
             width="7.022253"
             height="54.112656"
             x="93.767731"
             y="106.15993"
             ry="3.5111265" />
          <rect
             style="fill:#ff6600;fill-rule:evenodd;stroke-width:0.264583"
             id="rect1022"
             width="7.022253"
             height="54.112656"
             x="128.5713"
             y="92.584778"
             ry="3.5111265"
             transform="rotate(7.6243521)" />
          <rect
             style="fill:#ff6600;fill-rule:evenodd;stroke-width:0.264583"
             id="rect1020"
             width="7.022253"
             height="54.112656"
             x="104.09457"
             y="106.15993"
             ry="3.5111265" />
          <rect
             style="fill:#ff7f2a;fill-rule:evenodd;stroke-width:0.264583"
             id="rect892"
             width="7.022253"
             height="54.112656"
             x="98.724617"
             y="112.76913"
             ry="3.5111265" />
          <rect
             style="fill:#ff7f2a;fill-rule:evenodd;stroke-width:0.264583"
             id="rect996"
             width="7.022253"
             height="54.112656"
             x="124.37477"
             y="97.432426"
             ry="3.5111265"
             transform="rotate(7.3495543)" />
          <rect
             style="fill:#ff6600;fill-rule:evenodd;stroke-width:0.264583"
             id="rect1024"
             width="7.022253"
             height="54.112656"
             x="-75.620552"
             y="120.75166"
             ry="3.5111265"
             transform="matrix(-0.99115924,0.13267767,0.13267767,0.99115924,0,0)" />
          <rect
             style="fill:#ff7f2a;fill-rule:evenodd;stroke-width:0.264583"
             id="rect998"
             width="7.022253"
             height="54.112656"
             x="-79.645882"
             y="123.74744"
             ry="3.5111265"
             transform="matrix(-0.99178417,0.12792244,0.12792244,0.99178417,0,0)" />
          <rect
             style="fill:#ff9f5f;fill-opacity:1;fill-rule:evenodd;stroke-width:0.247899"
             id="rect1043"
             width="7.022253"
             height="47.503475"
             x="118.36667"
             y="106.08714"
             ry="3.0822866"
             transform="rotate(6.6774425)" />
          <rect
             style="fill:#ff9f5f;fill-opacity:1;fill-rule:evenodd;stroke-width:0.247899"
             id="rect1063"
             width="7.022253"
             height="47.503475"
             x="81.090805"
             y="127.3616"
             ry="3.0822866"
             transform="rotate(-5.2623956)" />
        </g>
        <path
           id="path31387"
           style="opacity:0.453252;fill:#8b00b3;fill-opacity:1;fill-rule:evenodd;stroke-width:0.119934;filter:url(#filter31403)"
           d="m -13.903935,56.994804 c -0.763715,6.018494 -0.100374,13.433656 -0.540783,13.36643 -0.440409,-0.06722 -1.817793,-7.591382 -1.054077,-13.60988 0.763715,-6.018498 3.235263,-13.019254 3.675672,-12.952028 0.440408,0.06722 -1.317097,7.176982 -2.080812,13.195478 z"
           sodipodi:nodetypes="sssss"
           transform="matrix(0.79094124,-0.03278072,0.03278072,0.79094124,-141.56598,12.365415)" />
        <path
           id="path1548"
           style="fill:url(#linearGradient1974);fill-rule:evenodd;stroke-width:0.075765"
           d="m -148.00752,73.738993 c 0.83358,4.478589 1.39782,15.953038 0.51641,22.769396 -1.30145,10.064731 -2.14957,9.090731 -4.98078,-4.830811 -0.89068,-4.379647 -7.39486,-7.392749 -9.06201,-16.349926 -1.66716,-8.957184 -0.78657,-19.807494 2.90645,-20.71891 3.69303,-0.911417 8.95278,10.173076 10.61993,19.130251 z"
           sodipodi:nodetypes="ssssss" />
        <path
           id="path31389"
           style="opacity:0.453252;fill:#8b00b3;fill-opacity:1;fill-rule:evenodd;stroke-width:0.119934;filter:url(#filter31399)"
           d="m -5.0310044,56.994804 c 0.763715,6.018494 0.100374,13.433656 0.540783,13.36643 0.440409,-0.06722 1.817793,-7.591382 1.054077,-13.60988 -0.763715,-6.018498 -3.235263,-13.019254 -3.675672,-12.952028 -0.440408,0.06722 1.317097,7.176982 2.080812,13.195478 z"
           sodipodi:nodetypes="sssss"
           transform="matrix(0.79094124,-0.03278072,0.03278072,0.79094124,-141.56598,12.365415)" />
        <path
           id="path2346"
           style="fill:url(#linearGradient2348);fill-rule:evenodd;stroke-width:0.0665153"
           d="m -144.08451,69.00543 c -2.98679,7.381789 -14.81341,40.26718 0.5347,16.714451 2.2666,-3.478256 7.05913,-3.151308 10.04592,-10.533097 2.9868,-7.381795 4.18302,-17.041393 1.26126,-18.748328 -2.92175,-1.706935 -8.85508,5.185174 -11.84188,12.566974 z"
           sodipodi:nodetypes="sssss" />
        <path
           id="path27203"
           style="opacity:0.453252;mix-blend-mode:normal;fill:#8b00b3;fill-opacity:1;fill-rule:evenodd;stroke-width:0.134254;filter:url(#filter31411)"
           d="m -27.366808,70.381534 c 0.893637,6.197141 3.845777,13.130793 3.317781,13.25791 -0.527996,0.127118 -4.336188,-6.600438 -5.229824,-12.797582 -0.893637,-6.197144 -0.106338,-14.098092 0.421659,-14.225208 0.527996,-0.127114 0.596748,7.567737 1.490384,13.76488 z"
           sodipodi:nodetypes="sssss"
           transform="matrix(1.2860958,0.08800444,-0.06399019,0.93515175,-119.38511,7.9630299)" />
        <path
           id="path31381"
           style="opacity:0.453252;mix-blend-mode:normal;fill:#8b00b3;fill-opacity:1;fill-rule:evenodd;stroke-width:0.14332;filter:url(#filter31391)"
           d="M 6.4836197,72.762613 C 4.6897525,78.896409 0.58181691,85.256615 1.1329235,85.523072 1.6840309,85.78953 6.6854896,79.861335 8.4793564,73.727534 10.273225,67.593735 10.487039,59.27758 9.935931,59.011124 9.3848231,58.74467 8.2774872,66.628814 6.4836197,72.762613 Z"
           sodipodi:nodetypes="sssss"
           transform="matrix(0.85740714,0.04252286,-0.0570529,0.89018566,-136.42254,5.9540786)" />
        <path
           id="path31383"
           style="opacity:0.453252;mix-blend-mode:normal;fill:#8b00b3;fill-opacity:1;fill-rule:evenodd;stroke-width:0.131481;filter:url(#filter31395)"
           d="m 2.6537693,61.983766 c -0.6902975,6.454243 -3.26145997,13.684199 -2.7722409,13.81417 0.48921985,0.129973 3.8535654,-6.88926 4.543862,-13.343507 C 5.1156885,56.000183 4.2205996,47.779979 3.7313796,47.650009 3.2421598,47.520041 3.3440669,55.529522 2.6537693,61.983766 Z"
           sodipodi:nodetypes="sssss"
           transform="matrix(1.3831424,-0.05732462,0.043295,1.0446319,-145.40752,1.2162478)" />
        <path
           id="path31385"
           style="opacity:0.453252;mix-blend-mode:normal;fill:#8b00b3;fill-opacity:1;fill-rule:evenodd;stroke-width:0.132466;filter:url(#filter31407)"
           d="m -21.05482,61.180526 c 0.700676,6.454243 3.310492,13.684199 2.813918,13.81417 -0.496575,0.129973 -3.911499,-6.88926 -4.612173,-13.343507 -0.700676,-6.454246 0.20787,-14.67445 0.704445,-14.80442 0.496575,-0.129968 0.393135,7.879513 1.09381,14.333757 z"
           sodipodi:nodetypes="sssss"
           transform="matrix(1.1458209,-0.0474888,0.04208667,1.0154774,-133.34601,2.0450984)" />
        <path
           id="path40209"
           style="opacity:0.896341;fill:#008181;fill-opacity:1;fill-rule:evenodd;stroke:#b000e1;stroke-width:0.0957088;stroke-opacity:0;filter:url(#filter43088)"
           d="m -18.035035,98.867255 c 0.805812,1.958065 0.55408,3.449265 0.863072,5.373605 2.84517,17.71916 3.536028,19.13889 5.705142,6.50379 0.578636,-3.37056 5.7351908,-21.999886 0.429897,-11.907641 -2.780561,5.289451 3.9471718,-10.724124 -3.499056,0.01512 -0.66459,0.958499 -6.218087,-6.591911 -3.499055,0.01512 z"
           sodipodi:nodetypes="ssssss"
           transform="matrix(0.79094124,-0.03278072,0.03278072,0.79094124,-141.56599,12.365415)" />
        <g
           id="g2239"
           transform="matrix(0.83120767,0,0,0.86766468,-25.457811,24.04037)">
          <path
             id="path50538"
             style="fill:#009696;fill-opacity:1;fill-rule:evenodd;stroke-width:0.267255"
             d="m -108.70681,124.3644 c -0.75883,0.0302 -2.31825,0.72069 -4.85969,2.17815 -25.77249,14.78002 -34.34433,37.56499 -36.8385,55.11998 l 3.42834,-0.28722 c 11.98277,-27.26893 43.39714,-57.21495 38.26985,-57.01091 z" />
          <path
             id="path61533"
             style="opacity:0.388211;fill:#f7ffff;fill-opacity:1;fill-rule:evenodd;stroke-width:0.224748;filter:url(#filter61985)"
             d="m -79.406717,119.79637 c -0.66289,0.0245 -2.025152,0.58343 -4.245269,1.76332 -22.514034,11.96512 -30.002114,30.41063 -32.180934,44.62222 l 2.99488,-0.23252 c 10.46777,-22.07548 37.910359,-46.3182 33.431323,-46.15302 z"
             transform="matrix(0.59909233,0.01966019,-0.02634385,0.80275876,-71.84727,38.621375)" />
        </g>
        <g
           id="g65393"
           transform="rotate(-4.6261957,-165.3661,169.55031)">
          <g
             id="g64451"
             transform="matrix(-0.98874253,-0.14962688,-0.14962688,0.98874253,-170.52912,27.583975)">
            <path
               id="path64353"
               style="fill:#009696;fill-opacity:1;fill-rule:evenodd;stroke-width:0.177511"
               d="m -38.366066,103.97401 c -1.636389,0.22816 4.843628,25.5501 5.370172,46.72212 h 3.143728 c 1.892639,-12.08507 1.480573,-27.47916 -6.342013,-43.40442 -1.151576,-2.34438 -1.834396,-3.36475 -2.171887,-3.3177 z" />
            <path
               id="path64357"
               style="opacity:0.384146;fill:#d8ffff;fill-opacity:1;fill-rule:evenodd;stroke-width:0.181679;filter:url(#filter63395)"
               d="m -133.39877,108.62175 c -1.32124,0.37909 6.11775,32.26861 8.33075,59.19672 l 2.57517,-0.17021 c 0.53335,-15.4894 -1.09964,-35.06714 -8.84764,-54.91994 -1.14059,-2.92256 -1.7858,-4.18475 -2.05828,-4.10657 z"
               transform="matrix(0.56105448,0,0,0.56105448,38.84238,48.778706)" />
          </g>
          <ellipse
             style="fill:#008080;fill-opacity:1;fill-rule:evenodd;stroke-width:0.104192"
             id="ellipse64359"
             cx="-161.98781"
             cy="149.02277"
             rx="1.9665223"
             ry="32.447617" />
          <path
             id="path64361"
             style="fill:url(#linearGradient64411);fill-rule:evenodd;stroke-width:0.0468924"
             d="m -160.7108,97.115776 c 1.21763,5.823274 4.21898,16.203454 -2.12858,11.808514 -2.11796,-1.46645 -4.39212,-3.57739 -5.60975,-9.400669 -1.21764,-5.82328 0.057,-16.099947 1.14166,-13.596575 2.4816,5.727393 5.37904,5.365453 6.59667,11.18873 z"
             sodipodi:nodetypes="sssss" />
          <path
             id="path64365"
             style="fill:url(#linearGradient64415);fill-rule:evenodd;stroke-width:0.0468924"
             d="m -164.62506,97.844714 c 0.28365,6.003786 2.32534,12.549066 4.95271,10.439916 2.01488,-1.61748 3.29532,-5.06315 3.01167,-11.066934 -0.28365,-6.003791 -1.6787,-12.64594 -4.20066,-12.659854 -2.13093,-0.01175 -4.04738,7.283086 -3.76372,13.286872 z"
             sodipodi:nodetypes="sssss" />
          <g
             id="g64385"
             transform="matrix(0.15180813,-0.00436988,0.00565162,0.19633513,-177.57751,77.489908)">
            <rect
               style="fill:#ff6600;fill-rule:evenodd;stroke-width:0.264583"
               id="rect64367"
               width="7.022253"
               height="54.112656"
               x="93.767731"
               y="106.15993"
               ry="3.5111265" />
            <rect
               style="fill:#ff6600;fill-rule:evenodd;stroke-width:0.264583"
               id="rect64369"
               width="7.022253"
               height="54.112656"
               x="128.5713"
               y="92.584778"
               ry="3.5111265"
               transform="rotate(7.6243521)" />
            <rect
               style="fill:#ff6600;fill-rule:evenodd;stroke-width:0.264583"
               id="rect64371"
               width="7.022253"
               height="54.112656"
               x="104.09457"
               y="106.15993"
               ry="3.5111265" />
            <rect
               style="fill:#ff7f2a;fill-rule:evenodd;stroke-width:0.264583"
               id="rect64373"
               width="7.022253"
               height="54.112656"
               x="98.724617"
               y="112.76913"
               ry="3.5111265" />
            <rect
               style="fill:#ff7f2a;fill-rule:evenodd;stroke-width:0.264583"
               id="rect64375"
               width="7.022253"
               height="54.112656"
               x="124.37477"
               y="97.432426"
               ry="3.5111265"
               transform="rotate(7.3495543)" />
            <rect
               style="fill:#ff6600;fill-rule:evenodd;stroke-width:0.264583"
               id="rect64377"
               width="7.022253"
               height="54.112656"
               x="-75.620552"
               y="120.75166"
               ry="3.5111265"
               transform="matrix(-0.99115924,0.13267767,0.13267767,0.99115924,0,0)" />
            <rect
               style="fill:#ff7f2a;fill-rule:evenodd;stroke-width:0.264583"
               id="rect64379"
               width="7.022253"
               height="54.112656"
               x="-79.645882"
               y="123.74744"
               ry="3.5111265"
               transform="matrix(-0.99178417,0.12792244,0.12792244,0.99178417,0,0)" />
            <rect
               style="fill:#ff9f5f;fill-opacity:1;fill-rule:evenodd;stroke-width:0.247899"
               id="rect64381"
               width="7.022253"
               height="47.503475"
               x="118.36667"
               y="106.08714"
               ry="3.0822866"
               transform="rotate(6.6774425)" />
            <rect
               style="fill:#ff9f5f;fill-opacity:1;fill-rule:evenodd;stroke-width:0.247899"
               id="rect64383"
               width="7.022253"
               height="47.503475"
               x="81.090805"
               y="127.3616"
               ry="3.0822866"
               transform="rotate(-5.2623956)" />
          </g>
          <path
             id="path64387"
             style="opacity:0.453252;fill:#8b00b3;fill-opacity:1;fill-rule:evenodd;stroke-width:0.119934;filter:url(#filter31403)"
             d="m -13.903935,56.994804 c -0.763715,6.018494 -0.100374,13.433656 -0.540783,13.36643 -0.440409,-0.06722 -1.817793,-7.591382 -1.054077,-13.60988 0.763715,-6.018498 3.235263,-13.019254 3.675672,-12.952028 0.440408,0.06722 -1.317097,7.176982 -2.080812,13.195478 z"
             sodipodi:nodetypes="sssss"
             transform="matrix(0.56082218,-0.01614359,0.01614359,0.56082218,-156.25369,62.086698)" />
          <path
             id="path64389"
             style="fill:url(#linearGradient64417);fill-rule:evenodd;stroke-width:0.0536979"
             d="m -161.36868,105.52353 c 0.55061,3.18138 0.84766,11.31821 0.16193,16.14096 -1.01251,7.12106 -1.60482,6.42321 -3.48651,-3.46816 -0.59197,-3.11177 -5.17439,-5.30539 -6.27561,-11.66815 -1.10122,-6.36277 -0.37993,-14.044331 2.24543,-14.657144 2.62536,-0.612815 6.25354,7.289735 7.35476,13.652494 z"
             sodipodi:nodetypes="ssssss" />
          <path
             id="path64391"
             style="opacity:0.453252;fill:#8b00b3;fill-opacity:1;fill-rule:evenodd;stroke-width:0.119934;filter:url(#filter31399)"
             d="m -5.0310044,56.994804 c 0.763715,6.018494 0.100374,13.433656 0.540783,13.36643 0.440409,-0.06722 1.817793,-7.591382 1.054077,-13.60988 -0.763715,-6.018498 -3.235263,-13.019254 -3.675672,-12.952028 -0.440408,0.06722 1.317097,7.176982 2.080812,13.195478 z"
             sodipodi:nodetypes="sssss"
             transform="matrix(0.56082218,-0.01614359,0.01614359,0.56082218,-156.25369,62.086698)" />
          <path
             id="path64395"
             style="opacity:0.453252;mix-blend-mode:normal;fill:#8b00b3;fill-opacity:1;fill-rule:evenodd;stroke-width:0.134254;filter:url(#filter31411)"
             d="m -27.366808,70.381534 c 0.893637,6.197141 3.845777,13.130793 3.317781,13.25791 -0.527996,0.127118 -4.336188,-6.600438 -5.229824,-12.797582 -0.893637,-6.197144 -0.106338,-14.098092 0.421659,-14.225208 0.527996,-0.127114 0.596748,7.567737 1.490384,13.76488 z"
             sodipodi:nodetypes="sssss"
             transform="matrix(0.91326326,-0.02628882,0.01911524,0.66405609,-145.53324,56.343851)" />
          <path
             id="path64393"
             style="fill:url(#linearGradient64419);fill-rule:evenodd;stroke-width:0.0471422"
             d="m -159.18593,102.6098 c -1.46284,5.45095 -6.93905,29.60664 1.82123,11.71153 1.29372,-2.64274 4.69328,-2.82711 6.15612,-8.27805 1.46284,-5.45094 1.46917,-12.349399 -0.73372,-13.297529 -2.20288,-0.948132 -5.78079,4.413099 -7.24363,9.864049 z"
             sodipodi:nodetypes="sssss" />
          <path
             id="path64397"
             style="opacity:0.453252;mix-blend-mode:normal;fill:#8b00b3;fill-opacity:1;fill-rule:evenodd;stroke-width:0.14332;filter:url(#filter31391)"
             d="M 6.4836197,72.762613 C 4.6897525,78.896409 0.58181691,85.256615 1.1329235,85.523072 1.6840309,85.78953 6.6854896,79.861335 8.4793564,73.727534 10.273225,67.593735 10.487039,59.27758 9.935931,59.011124 9.3848231,58.74467 8.2774872,66.628814 6.4836197,72.762613 Z"
             sodipodi:nodetypes="sssss"
             transform="matrix(0.60248142,0.08485229,-0.09720476,0.62468885,-150.75043,60.945853)" />
          <g
             id="g64813">
            <path
               id="path64363"
               style="fill:url(#linearGradient64413);fill-rule:evenodd;stroke-width:0.0468924"
               d="m -160.19282,97.993714 c -0.88064,5.883676 -3.27991,16.419316 2.80432,11.666516 2.0301,-1.58585 4.17907,-3.82412 5.05971,-9.707794 0.88064,-5.883679 -0.98302,-16.07001 -1.9219,-13.508387 -2.14803,5.860659 -5.06149,5.665988 -5.94213,11.549665 z"
               sodipodi:nodetypes="sssss" />
            <path
               id="path64399"
               style="opacity:0.453252;mix-blend-mode:normal;fill:#8b00b3;fill-opacity:1;fill-rule:evenodd;stroke-width:0.131481;filter:url(#filter31395)"
               d="m 2.6537693,61.983766 c -0.6902975,6.454243 -3.26145997,13.684199 -2.7722409,13.81417 0.48921985,0.129973 3.8535654,-6.88926 4.543862,-13.343507 C 5.1156885,56.000183 4.2205996,47.779979 3.7313796,47.650009 3.2421598,47.520041 3.3440669,55.529522 2.6537693,61.983766 Z"
               sodipodi:nodetypes="sssss"
               transform="matrix(0.98072635,-0.02823078,0.02132158,0.74070328,-158.65715,54.589154)" />
          </g>
          <path
             id="path64401"
             style="opacity:0.453252;mix-blend-mode:normal;fill:#8b00b3;fill-opacity:1;fill-rule:evenodd;stroke-width:0.132466;filter:url(#filter31407)"
             d="m -21.05482,61.180526 c 0.700676,6.454243 3.310492,13.684199 2.813918,13.81417 -0.496575,0.129973 -3.911499,-6.88926 -4.612173,-13.343507 -0.700676,-6.454246 0.20787,-14.67445 0.704445,-14.80442 0.496575,-0.129968 0.393135,7.879513 1.09381,14.333757 z"
             sodipodi:nodetypes="sssss"
             transform="matrix(0.81245196,-0.02338691,0.02072651,0.72003106,-150.33583,54.846501)" />
          <path
             id="path64405"
             style="opacity:0.896341;fill:#008181;fill-opacity:1;fill-rule:evenodd;stroke:#b000e1;stroke-width:0.0957088;stroke-opacity:0;filter:url(#filter43088)"
             d="m -18.035035,98.867255 c 0.805812,1.958065 0.55408,3.449265 0.863072,5.373605 2.84517,17.71916 3.536028,19.13889 5.705142,6.50379 0.578636,-3.37056 5.7351908,-21.999886 0.429897,-11.907641 -2.780561,5.289451 3.9471718,-10.724124 -3.499056,0.01512 -0.66459,0.958499 -6.218087,-6.591911 -3.499055,0.01512 z"
             sodipodi:nodetypes="ssssss"
             transform="matrix(0.56082218,-0.01614359,0.01614359,0.56082218,-156.25369,62.086698)" />
          <g
             id="g64455"
             transform="matrix(-0.91033989,-0.41386144,-0.41386144,0.91033989,-127.37858,31.296253)">
            <path
               id="path64355"
               style="fill:#009696;fill-opacity:1;fill-rule:evenodd;stroke-width:0.189415"
               d="m -1.5092535,110.09169 c -0.5378145,0.0214 -1.643043,0.51079 -3.4442652,1.54375 -18.2660463,10.47522 -24.3412673,26.62389 -26.1089873,39.06584 l 2.429804,-0.20356 c 8.492693,-19.32664 30.7573731,-40.55064 27.1234485,-40.40603 z" />
            <path
               id="path64407"
               style="opacity:0.388211;fill:#f7ffff;fill-opacity:1;fill-rule:evenodd;stroke-width:0.224748;filter:url(#filter61985)"
               d="m -79.406717,119.79637 c -0.66289,0.0245 -2.025152,0.58343 -4.245269,1.76332 -22.514034,11.96512 -30.002114,30.41063 -32.180934,44.62222 l 2.99488,-0.23252 c 10.46777,-22.07548 37.910359,-46.3182 33.431323,-46.15302 z"
               transform="matrix(0.42439175,0.01930136,-0.02586302,0.56866726,26.447069,49.651577)" />
          </g>
        </g>
      </g>
    </g>
  </g>
  <metadata
     id="metadata1026">
    <rdf:RDF>
      <cc:Work
         rdf:about="">
        <dc:title>crocus</dc:title>
      </cc:Work>
    </rdf:RDF>
  </metadata>
</svg>
