<?xml version="1.0" encoding="UTF-8" standalone="no"?>
<!-- Created with Inkscape (http://www.inkscape.org/) -->

<svg
   width="200"
   height="400"
   viewBox="0 0 52.916665 105.83334"
   version="1.1"
   id="svg11259"
   inkscape:version="1.1.2 (b8e25be833, 2022-02-05)"
   sodipodi:docname="groterPaasei.svg"
   xmlns:inkscape="http://www.inkscape.org/namespaces/inkscape"
   xmlns:sodipodi="http://sodipodi.sourceforge.net/DTD/sodipodi-0.dtd"
   xmlns="http://www.w3.org/2000/svg"
   xmlns:svg="http://www.w3.org/2000/svg"
   xmlns:rdf="http://www.w3.org/1999/02/22-rdf-syntax-ns#"
   xmlns:cc="http://creativecommons.org/ns#"
   xmlns:dc="http://purl.org/dc/elements/1.1/">
  <title
     id="title12689">groterPaasei</title>
  <sodipodi:namedview
     id="namedview11261"
     pagecolor="#ffffff"
     bordercolor="#999999"
     borderopacity="1"
     inkscape:pageshadow="0"
     inkscape:pageopacity="0"
     inkscape:pagecheckerboard="0"
     inkscape:document-units="px"
     showgrid="false"
     units="px"
     showborder="false"
     inkscape:zoom="0.90583672"
     inkscape:cx="57.957465"
     inkscape:cy="196.50341"
     inkscape:window-width="1920"
     inkscape:window-height="1009"
     inkscape:window-x="-8"
     inkscape:window-y="-8"
     inkscape:window-maximized="1"
     inkscape:current-layer="layer1"
     inkscape:snap-global="false" />
  <defs
     id="defs11256">
    <filter
       inkscape:collect="always"
       style="color-interpolation-filters:sRGB"
       id="filter14842"
       x="-0.15865777"
       y="-0.20530043"
       width="1.3173155"
       height="1.4106009">
      <feGaussianBlur
         inkscape:collect="always"
         stdDeviation="3.9755318"
         id="feGaussianBlur14844" />
    </filter>
    <filter
       inkscape:collect="always"
       style="color-interpolation-filters:sRGB"
       id="filter25137"
       x="-0.053311235"
       y="-0.037278689"
       width="1.1066225"
       height="1.0745574">
      <feGaussianBlur
         inkscape:collect="always"
         stdDeviation="0.40311973"
         id="feGaussianBlur25139" />
    </filter>
    <filter
       inkscape:collect="always"
       style="color-interpolation-filters:sRGB"
       id="filter25141"
       x="-0.053311235"
       y="-0.037278689"
       width="1.1066225"
       height="1.0745574">
      <feGaussianBlur
         inkscape:collect="always"
         stdDeviation="0.40311973"
         id="feGaussianBlur25143" />
    </filter>
    <filter
       inkscape:collect="always"
       style="color-interpolation-filters:sRGB"
       id="filter25145"
       x="-0.036743101"
       y="-0.087949334"
       width="1.0734862"
       height="1.1758987">
      <feGaussianBlur
         inkscape:collect="always"
         stdDeviation="0.40311973"
         id="feGaussianBlur25147" />
    </filter>
    <filter
       inkscape:collect="always"
       style="color-interpolation-filters:sRGB"
       id="filter25149"
       x="-0.036743101"
       y="-0.087949334"
       width="1.0734862"
       height="1.1758987">
      <feGaussianBlur
         inkscape:collect="always"
         stdDeviation="0.40311973"
         id="feGaussianBlur25151" />
    </filter>
    <filter
       inkscape:collect="always"
       style="color-interpolation-filters:sRGB"
       id="filter1898"
       x="-0.73907258"
       y="-0.67119519"
       width="2.4781452"
       height="2.2774549">
      <feGaussianBlur
         inkscape:collect="always"
         stdDeviation="26.792824"
         id="feGaussianBlur1900" />
    </filter>
    <filter
       inkscape:collect="always"
       style="color-interpolation-filters:sRGB"
       id="filter3778"
       x="-0.92894924"
       y="-0.84991321"
       width="2.8578985"
       height="2.6998264">
      <feGaussianBlur
         inkscape:collect="always"
         stdDeviation="2.2306937"
         id="feGaussianBlur3780" />
    </filter>
    <filter
       inkscape:collect="always"
       style="color-interpolation-filters:sRGB"
       id="filter3822"
       x="-0.45542614"
       y="-0.33063526"
       width="1.9108523"
       height="1.6612705">
      <feGaussianBlur
         inkscape:collect="always"
         stdDeviation="3.3069681"
         id="feGaussianBlur3824" />
    </filter>
  </defs>
  <g
     inkscape:label="Layer 1"
     inkscape:groupmode="layer"
     id="layer1">
    <g
       id="g5127">
      <g
         id="g14858"
         transform="matrix(0.55340089,-0.02308151,0.03900909,0.93527967,1.0289903,5.6829271)">
        <path
           id="path12845"
           style="fill:#ffccd8;fill-opacity:1;stroke-width:3.11111"
           d="M 0.00398,66.568661 C 0.36446,37.201668 19.58824,-0.36232194 42.97602,0.00263896 66.4783,0.36938516 87.26126,38.575291 87.00229,67.943893 86.74332,97.312494 64.39588,106.31102 43.66819,106.05964 21.3122,105.78851 0.38635,95.47873 0,67.019468"
           sodipodi:nodetypes="csssc" />
        <path
           id="path13302"
           style="opacity:0.254065;mix-blend-mode:normal;fill:#ffffff;fill-opacity:1;stroke-width:1.71214;filter:url(#filter14842)"
           d="M 12.780764,31.546801 C 13.029929,18.678978 26.317367,2.2194531 42.482966,2.379369 58.727693,2.5400675 73.092827,19.280862 72.913831,32.149389 72.734844,45.017917 57.288328,48.960829 42.96138,48.850682 27.508969,48.73188 13.045067,44.214411 12.77802,31.744332"
           sodipodi:nodetypes="csssc"
           transform="matrix(0.9735889,0,0,0.97110445,0.33748154,0.06871976)" />
      </g>
      <path
         id="rect1320"
         style="fill:#ff6186;fill-opacity:1;fill-rule:evenodd;stroke-width:0.167851"
         d="m 6.4244186,44.527363 c 1.2863285,0.405193 9.3329644,2.414218 14.0184404,3.200533 4.404557,0.73917 3.403486,2.301958 3.532345,5.328827 0.128859,3.026871 3.753695,6.347743 -3.067148,5.598502 C 16.465583,58.167239 2.8502431,57.936918 3.468672,52.05637 3.5864948,50.936008 3.597822,48.788852 3.7814453,47.235673 4.68585,39.585764 4.6054181,43.954379 6.4244186,44.527363 Z"
         sodipodi:nodetypes="sssssss" />
      <path
         id="path5291"
         style="fill:#ff6e90;fill-opacity:1;fill-rule:evenodd;stroke-width:0.199264"
         d="M 24.797122,51.814391 C 23.203355,58.377893 9.5984223,52.895966 5.7620238,49.428646 1.9256246,45.961326 -1.7103384,45.874764 1.7013774,31.266234 5.1130937,16.657705 7.6971621,22.19278 11.533561,25.6601 15.36996,29.127421 26.390888,45.250888 24.797122,51.814391 Z"
         sodipodi:nodetypes="szzzs" />
      <path
         id="path8764"
         style="fill:#ff4a74;fill-opacity:1;fill-rule:evenodd;stroke-width:0.199264"
         inkscape:transform-center-x="-1.772985"
         inkscape:transform-center-y="-0.21455388"
         d="M 23.575517,45.026161 C 23.164954,46.403422 15.209301,35.720876 11.43623,31.64064 7.6631577,27.560404 5.209899,23.49531 5.6204609,22.118049 6.0310235,20.740787 9.1499355,22.5729 12.923008,26.653136 16.69608,30.733373 23.986079,43.6489 23.575517,45.026161 Z"
         sodipodi:nodetypes="sssss" />
      <path
         id="path5253"
         style="fill:#ff6186;fill-opacity:1;fill-rule:evenodd;stroke-width:0.16962"
         d="m 46.866115,43.02342 c -1.273862,0.508728 -9.288138,3.167246 -13.988061,4.333086 -4.418138,1.095942 -3.263753,2.571631 -3.132162,5.598501 0.131592,3.026871 -3.268978,6.631935 3.607219,5.32883 4.478524,-0.848724 18.314178,-2.189028 17.174417,-7.9987 C 50.310381,49.17828 50.112486,47.039504 49.79081,45.506702 48.206451,37.957146 48.667487,42.304025 46.866115,43.02342 Z"
         sodipodi:nodetypes="sssssss" />
      <g
         id="g14059"
         transform="matrix(-0.55340089,0.02308151,0.04278054,1.0257036,49.621065,2.2393311)">
        <path
           id="path14055"
           style="fill:#ff6e90;fill-opacity:1;fill-rule:evenodd;stroke-width:0.264583"
           d="M 39.549891,47.46149 C 36.181127,53.800475 12.052035,47.89826 5.3925394,44.359166 -1.2669576,40.820072 -7.8192506,40.587654 -0.56586056,26.473319 6.6875304,12.358984 10.932414,17.864572 17.59191,21.403666 24.251407,24.942761 42.918655,41.122503 39.549891,47.46149 Z"
           sodipodi:nodetypes="szzzs" />
        <path
           id="path14057"
           style="fill:#ff4a74;fill-opacity:1;fill-rule:evenodd;stroke-width:0.264583"
           inkscape:transform-center-x="-1.772985"
           inkscape:transform-center-y="-0.21455388"
           transform="rotate(32.463044)"
           d="m 53.834927,14.094995 c 0,1.572824 -17.198533,-0.222791 -24.901339,-0.222791 -7.702806,0 -13.487778,-1.322483 -13.487779,-2.895307 0,-1.5728239 5.784972,-2.8003933 13.487779,-2.8003933 7.702807,0 24.901339,4.3456673 24.901339,5.9184913 z"
           sodipodi:nodetypes="sssss" />
      </g>
      <g
         id="g17421"
         transform="matrix(0.54412619,0.22414743,-0.16805584,1.4111734,53.071925,35.389845)">
        <path
           id="rect14298"
           style="fill:#ff6e90;fill-rule:evenodd;stroke-width:0.264583"
           d="M -41.421953,22.333336 -52.28173,17.285595 -64.520482,41.904952 c 0,0 21.312832,-7.825899 23.098529,-19.571616 z"
           sodipodi:nodetypes="cccc" />
        <path
           id="path17029"
           style="fill:#ff6e90;fill-rule:evenodd;stroke-width:0.264583"
           d="m -48.740623,18.911795 10.827625,5.116345 -12.248843,24.222262 c 0,0 -6.463118,-20.451098 1.421218,-29.338607 z"
           sodipodi:nodetypes="cccc" />
      </g>
      <g
         id="g17659"
         transform="matrix(-0.53860653,0.18248664,0.20390168,1.4072265,1.8110102,32.992459)">
        <path
           id="path17655"
           style="fill:#ff6e90;fill-rule:evenodd;stroke-width:0.264583"
           d="M -41.421953,22.333336 -52.28173,17.285595 -64.520482,41.904952 c 0,0 21.312832,-7.825899 23.098529,-19.571616 z"
           sodipodi:nodetypes="cccc" />
        <path
           id="path17657"
           style="fill:#ff6e90;fill-rule:evenodd;stroke-width:0.264583"
           d="m -48.740623,18.911795 10.827625,5.116345 -12.248843,24.222262 c 0,0 -6.463118,-20.451098 1.421218,-29.338607 z"
           sodipodi:nodetypes="cccc" />
      </g>
      <g
         id="g23624"
         style="opacity:0.428862;filter:url(#filter25149)"
         transform="matrix(0.55340089,-0.02308151,0.03900909,0.93527967,0.94816974,5.686298)">
        <path
           style="fill:#ff4a74;fill-opacity:1;stroke:none;stroke-width:0.290887px;stroke-linecap:butt;stroke-linejoin:miter;stroke-opacity:1"
           d="m 41.475875,46.859927 c 15.289022,2.904488 -0.206703,7.167195 -15.81976,-5.107682 -9.388889,-7.38148 15.660766,7.620987 15.660766,7.620987 z"
           id="path17892"
           sodipodi:nodetypes="cscc" />
        <path
           style="fill:#ff4a74;fill-opacity:1;stroke:none;stroke-width:0.290887px;stroke-linecap:butt;stroke-linejoin:miter;stroke-opacity:1"
           d="m 41.444063,45.802433 c 15.343426,-2.601832 2.302258,6.79051 -16.608215,0.721393 -11.371785,-3.649656 17.334449,1.689948 17.334449,1.689948 z"
           id="path23617"
           sodipodi:nodetypes="cscc" />
        <path
           style="fill:#ff4a74;fill-opacity:1;stroke:none;stroke-width:0.290887px;stroke-linecap:butt;stroke-linejoin:miter;stroke-opacity:1"
           d="m 40.271491,44.722716 c 13.711344,-7.361338 4.348517,5.701037 -15.510003,5.982727 -11.941892,0.169394 16.967645,-3.929129 16.967645,-3.929129 z"
           id="path23619"
           sodipodi:nodetypes="cscc" />
      </g>
      <g
         id="g23761"
         transform="matrix(0.55449607,0.07230131,-0.01756036,0.93276649,38.203012,-21.065119)"
         style="opacity:0.428862;mix-blend-mode:normal;filter:url(#filter25137)">
        <path
           style="fill:#ff4a74;fill-opacity:1;stroke:none;stroke-width:0.290887px;stroke-linecap:butt;stroke-linejoin:miter;stroke-opacity:1"
           d="m -17.260836,74.022551 c 8.3916181,-13.106143 6.574172,2.862109 -10.633929,12.777824 -10.348067,5.962801 12.907049,-11.693893 12.907049,-11.693893 z"
           id="path23668"
           sodipodi:nodetypes="cscc" />
        <path
           style="fill:#ff4a74;fill-opacity:1;stroke:none;stroke-width:0.290887px;stroke-linecap:butt;stroke-linejoin:miter;stroke-opacity:1"
           d="m -19.692895,74.343962 c -1.722903,-15.466799 6.910715,-1.911401 -0.22658,16.62233 -4.292002,11.145228 2.675402,-17.209917 2.675402,-17.209917 z"
           id="path23672"
           sodipodi:nodetypes="cscc" />
      </g>
      <g
         id="g23632"
         transform="matrix(-0.55340089,0.02308151,0.03900909,0.93527967,49.330724,3.7650881)"
         style="opacity:0.428862;filter:url(#filter25145)">
        <path
           style="fill:#ff4a74;fill-opacity:1;stroke:none;stroke-width:0.290887px;stroke-linecap:butt;stroke-linejoin:miter;stroke-opacity:1"
           d="m 41.475875,46.859927 c 15.289022,2.904488 -0.206703,7.167195 -15.81976,-5.107682 -9.388889,-7.38148 15.660766,7.620987 15.660766,7.620987 z"
           id="path23626"
           sodipodi:nodetypes="cscc" />
        <path
           style="fill:#ff4a74;fill-opacity:1;stroke:none;stroke-width:0.290887px;stroke-linecap:butt;stroke-linejoin:miter;stroke-opacity:1"
           d="m 41.444063,45.802433 c 15.343426,-2.601832 2.302258,6.79051 -16.608215,0.721393 -11.371785,-3.649656 17.334449,1.689948 17.334449,1.689948 z"
           id="path23628"
           sodipodi:nodetypes="cscc" />
        <path
           style="fill:#ff4a74;fill-opacity:1;stroke:none;stroke-width:0.290887px;stroke-linecap:butt;stroke-linejoin:miter;stroke-opacity:1"
           d="m 40.271491,44.722716 c 13.711344,-7.361338 4.348517,5.701037 -15.510003,5.982727 -11.941892,0.169394 16.967645,-3.929129 16.967645,-3.929129 z"
           id="path23630"
           sodipodi:nodetypes="cscc" />
      </g>
      <g
         id="g23767"
         transform="matrix(-0.54654954,0.11822425,0.09517279,0.92806456,10.081299,-19.892206)"
         style="opacity:0.428862;mix-blend-mode:normal;filter:url(#filter25141)">
        <path
           style="fill:#ff4a74;fill-opacity:1;stroke:none;stroke-width:0.290887px;stroke-linecap:butt;stroke-linejoin:miter;stroke-opacity:1"
           d="m -17.260836,74.022551 c 8.3916181,-13.106143 6.574172,2.862109 -10.633929,12.777824 -10.348067,5.962801 12.907049,-11.693893 12.907049,-11.693893 z"
           id="path23763"
           sodipodi:nodetypes="cscc" />
        <path
           style="fill:#ff4a74;fill-opacity:1;stroke:none;stroke-width:0.290887px;stroke-linecap:butt;stroke-linejoin:miter;stroke-opacity:1"
           d="m -19.692895,74.343962 c -1.722903,-15.466799 6.910715,-1.911401 -0.22658,16.62233 -4.292002,11.145228 2.675402,-17.209917 2.675402,-17.209917 z"
           id="path23765"
           sodipodi:nodetypes="cscc" />
      </g>
      <rect
         style="fill:#ff6186;fill-opacity:1;fill-rule:evenodd;stroke-width:0.190515"
         id="rect14893"
         width="9.0597839"
         height="19.139454"
         x="20.275661"
         y="41.870144"
         ry="7.6557808"
         transform="rotate(-2.3883356)" />
      <g
         id="g908"
         transform="matrix(0.22804082,-0.00951124,0.00560291,0.13433497,15.06253,5.7107805)"
         inkscape:transform-center-x="29.86577"
         inkscape:transform-center-y="-6.8272044"
         style="opacity:0.538618;fill:#ffffff;filter:url(#filter1898)">
        <path
           id="path904"
           style="fill:#ffffff;fill-opacity:1;stroke-width:3.11111"
           d="M 0.00398,66.568661 C 0.36446,37.201668 19.58824,-0.36232194 42.97602,0.00263896 66.4783,0.36938516 87.26126,38.575291 87.00229,67.943893 86.74332,97.312494 64.39588,106.31102 43.66819,106.05964 21.3122,105.78851 0.38635,95.47873 0,67.019468"
           sodipodi:nodetypes="csssc" />
        <path
           id="path906"
           style="opacity:0.254065;mix-blend-mode:normal;fill:#ffffff;fill-opacity:1;stroke-width:1.71214;filter:url(#filter14842)"
           d="M 12.780764,31.546801 C 13.029929,18.678978 26.317367,2.2194531 42.482966,2.379369 58.727693,2.5400675 73.092827,19.280862 72.913831,32.149389 72.734844,45.017917 57.288328,48.960829 42.96138,48.850682 27.508969,48.73188 13.045067,44.214411 12.77802,31.744332"
           sodipodi:nodetypes="csssc"
           transform="matrix(0.9735889,0,0,0.97110445,0.33748154,0.06871976)" />
      </g>
      <rect
         style="fill:#ffffff;fill-opacity:1;fill-rule:evenodd;stroke-width:0.0871711;opacity:0.5;filter:url(#filter3778)"
         id="rect3740"
         width="5.7631407"
         height="6.2990727"
         x="20.314573"
         y="42.309097"
         ry="2.5196288"
         transform="matrix(0.99976866,-0.02150874,0.08059687,0.99674678,0,0)" />
      <path
         id="path3784"
         style="opacity:0.32723577;mix-blend-mode:normal;fill:#ffffff;fill-opacity:1;fill-rule:evenodd;stroke-width:0.14158;filter:url(#filter3822)"
         d="M 17.534118,48.416879 C 16.704657,53.239473 7.0883818,49.484558 4.2975187,47.022427 1.5066512,44.560283 -1.0064998,44.563529 0.74609091,33.83227 2.4986778,23.10101 4.5104058,27.096147 7.3012735,29.55829 10.092138,32.020426 18.363585,43.594286 17.534121,48.416872 Z"
         sodipodi:nodetypes="szzzs"
         transform="matrix(0.86269102,0,0,0.92465099,-0.82547608,1.167208)" />
      <path
         id="path3826"
         style="opacity:0.32723577;fill:#ffffff;fill-opacity:1;fill-rule:evenodd;stroke-width:0.14158;filter:url(#filter3822)"
         d="M 18.41038,49.001053 C 17.580919,53.823647 7.9646435,50.068732 5.1737804,47.606601 2.3829129,45.144457 -0.13023807,45.147703 1.6223526,34.416444 3.3749395,23.685184 5.3866675,27.680321 8.1775352,30.142464 10.9684,32.6046 19.239847,44.17846 18.410383,49.001046 Z"
         sodipodi:nodetypes="szzzs"
         transform="matrix(-0.86492194,0,0,0.97494276,53.169816,-2.0083023)" />
    </g>
  </g>
  <metadata
     id="metadata12687">
    <rdf:RDF>
      <cc:Work
         rdf:about="">
        <dc:title>groterPaasei</dc:title>
      </cc:Work>
    </rdf:RDF>
  </metadata>
</svg>
